<?xml version="1.0" encoding="UTF-8" standalone="no"?>
<svg
   xmlns:dc="http://purl.org/dc/elements/1.1/"
   xmlns:cc="http://creativecommons.org/ns#"
   xmlns:rdf="http://www.w3.org/1999/02/22-rdf-syntax-ns#"
   xmlns:svg="http://www.w3.org/2000/svg"
   xmlns="http://www.w3.org/2000/svg"
   xmlns:sodipodi="http://sodipodi.sourceforge.net/DTD/sodipodi-0.dtd"
   xmlns:inkscape="http://www.inkscape.org/namespaces/inkscape"
   viewBox="93.54 168.27 111.02 66.02"
   preserveAspectRatio="xMidYMid"
   width="100%"
   height="100%"
   id="svg4266"
   version="1.1"
   inkscape:version="0.48.0 r9654"
   sodipodi:docname="Aloe emodin.svg">
  <metadata
     id="metadata4416">
    <rdf:RDF>
      <cc:Work
         rdf:about="">
        <dc:format>image/svg+xml</dc:format>
        <dc:type
           rdf:resource="http://purl.org/dc/dcmitype/StillImage" />
      </cc:Work>
    </rdf:RDF>
  </metadata>
  <defs
     id="defs4414" />
  <sodipodi:namedview
     pagecolor="#ffffff"
     bordercolor="#666666"
     borderopacity="1"
     objecttolerance="10"
     gridtolerance="10"
     guidetolerance="10"
     inkscape:pageopacity="0"
     inkscape:pageshadow="2"
     inkscape:window-width="640"
     inkscape:window-height="480"
     id="namedview4412"
     showgrid="false"
     inkscape:zoom="3.8776128"
     inkscape:cx="55.51"
     inkscape:cy="33.01"
     inkscape:window-x="0"
     inkscape:window-y="0"
     inkscape:window-maximized="0"
     inkscape:current-layer="svg4266" />
  <clipPath
     id="161">
    <rect
       x="0.3"
       y="0.3"
       width="539.4"
       height="719.15"
       id="rect4269" />
  </clipPath>
  <g
     id="drawing"
     transform="matrix(0.94140808,0,0,0.94140808,7.4806879,11.859262)">
    <path
       style="fill:#ffffff;fill-opacity:0"
       d="m 93.540001,168.27 111.019999,0 0,66.02 -111.019999,0 z"
       id="rect4272"
       inkscape:connector-curvature="0" />
    <g
       id="page"
       clip-path="url(#161)">
      <g
         id="Solid">
        <path
           d="m 118.48,194.72 0,0 0.3,-0.17 0.3,0.17 0,14.06 -0.3,0.17 -0.3,-0.17 z"
           shape-rendering="geometricPrecision"
           id="path4276"
           inkscape:connector-curvature="0"
           style="fill:#000000;fill-rule:evenodd;stroke:#000000;stroke-width:0;stroke-linejoin:miter" />
        <path
           style="stroke:#000000;stroke-width:0.60000002"
           d="m 116.19,196.05 0,11.4"
           id="line4278"
           inkscape:connector-curvature="0" />
      </g>
      <g
         id="g4280">
        <path
           d="m 118.78,209.3 0,0 0,-0.35 0.3,-0.17 12.17,7.02 0,0.35 0,0.35 z"
           shape-rendering="geometricPrecision"
           id="path4282"
           inkscape:connector-curvature="0"
           style="fill:#000000;fill-rule:evenodd;stroke:#000000;stroke-width:0;stroke-linejoin:miter" />
      </g>
      <g
         id="g4284">
        <path
           d="m 131.25,216.5 0,0 0,-0.35 0,-0.35 12.17,-7.02 0.3,0.17 0,0.35 z"
           shape-rendering="geometricPrecision"
           id="path4286"
           inkscape:connector-curvature="0"
           style="fill:#000000;fill-rule:evenodd;stroke:#000000;stroke-width:0;stroke-linejoin:miter" />
      </g>
      <g
         id="g4288">
        <path
           d="m 144.02,208.78 0,0 -0.3,0.17 -0.3,-0.17 0,-14.06 0.3,-0.17 0.3,0.17 z"
           shape-rendering="geometricPrecision"
           id="path4290"
           inkscape:connector-curvature="0"
           style="fill:#000000;fill-rule:evenodd;stroke:#000000;stroke-width:0;stroke-linejoin:miter" />
        <path
           style="stroke:#000000;stroke-width:0.60000002"
           d="m 146.31,207.45 0,-11.4"
           id="line4292"
           inkscape:connector-curvature="0" />
      </g>
      <g
         id="g4294">
        <path
           d="m 143.72,194.2 0,0 0,0.35 -0.3,0.17 -12.17,-7.02 0,-0.35 0,-0.35 z"
           shape-rendering="geometricPrecision"
           id="path4296"
           inkscape:connector-curvature="0"
           style="fill:#000000;fill-rule:evenodd;stroke:#000000;stroke-width:0;stroke-linejoin:miter" />
      </g>
      <g
         id="g4298">
        <path
           d="m 131.25,187 0,0 0,0.35 0,0.35 -12.17,7.02 -0.3,-0.17 0,-0.35 z"
           shape-rendering="geometricPrecision"
           id="path4300"
           inkscape:connector-curvature="0"
           style="fill:#000000;fill-rule:evenodd;stroke:#000000;stroke-width:0;stroke-linejoin:miter" />
      </g>
      <g
         id="g4302">
        <path
           d="m 118.78,194.2 0,0 0,0.35 -0.3,0.17 -12.17,-7.02 0,-0.35 0,-0.35 z"
           shape-rendering="geometricPrecision"
           id="path4304"
           inkscape:connector-curvature="0"
           style="fill:#000000;fill-rule:evenodd;stroke:#000000;stroke-width:0;stroke-linejoin:miter" />
      </g>
      <g
         id="g4306">
        <path
           d="m 106.31,187 0,0 0,0.35 0,0.35 -12.17,7.02 -0.3,-0.17 -0.3,-0.17 z"
           shape-rendering="geometricPrecision"
           id="path4308"
           inkscape:connector-curvature="0"
           style="fill:#000000;fill-rule:evenodd;stroke:#000000;stroke-width:0;stroke-linejoin:miter" />
        <path
           style="stroke:#000000;stroke-width:0.60000002"
           d="m 106.31,190.34 -9.88,5.71"
           id="line4310"
           inkscape:connector-curvature="0" />
      </g>
      <g
         id="g4312">
        <path
           d="m 93.54,194.38 0,0 0.3,0.17 0.3,0.17 0,14.06 -0.3,0.17 -0.3,0.17 z"
           shape-rendering="geometricPrecision"
           id="path4314"
           inkscape:connector-curvature="0"
           style="fill:#000000;fill-rule:evenodd;stroke:#000000;stroke-width:0;stroke-linejoin:miter" />
      </g>
      <g
         id="g4316">
        <path
           d="m 93.54,209.12 0,0 0.3,-0.17 0.3,-0.17 12.17,7.02 0,0.35 -0.3,0.17 z"
           shape-rendering="geometricPrecision"
           id="path4318"
           inkscape:connector-curvature="0"
           style="fill:#000000;fill-rule:evenodd;stroke:#000000;stroke-width:0;stroke-linejoin:miter" />
        <path
           style="stroke:#000000;stroke-width:0.60000002"
           d="m 96.43,207.45 9.88,5.71"
           id="line4320"
           inkscape:connector-curvature="0" />
      </g>
      <g
         id="g4322">
        <path
           d="m 106.61,216.32 0,0 -0.3,-0.17 0,-0.35 12.17,-7.02 0.3,0.17 0,0.35 z"
           shape-rendering="geometricPrecision"
           id="path4324"
           inkscape:connector-curvature="0"
           style="fill:#000000;fill-rule:evenodd;stroke:#000000;stroke-width:0;stroke-linejoin:miter" />
      </g>
      <g
         id="g4326">
        <path
           d="m 143.72,209.3 0,0 0,-0.35 0.3,-0.17 12.17,7.02 0,0.35 -0.3,0.17 z"
           shape-rendering="geometricPrecision"
           id="path4328"
           inkscape:connector-curvature="0"
           style="fill:#000000;fill-rule:evenodd;stroke:#000000;stroke-width:0;stroke-linejoin:miter" />
      </g>
      <g
         id="g4330">
        <path
           d="m 156.49,216.32 0,0 -0.3,-0.17 0,-0.35 12.17,-7.02 0.3,0.17 0.3,0.17 z"
           shape-rendering="geometricPrecision"
           id="path4332"
           inkscape:connector-curvature="0"
           style="fill:#000000;fill-rule:evenodd;stroke:#000000;stroke-width:0;stroke-linejoin:miter" />
        <path
           style="stroke:#000000;stroke-width:0.60000002"
           d="m 156.19,213.16 9.88001,-5.71"
           id="line4334"
           inkscape:connector-curvature="0" />
      </g>
      <g
         id="g4336">
        <path
           d="m 168.96,209.12 0,0 -0.3,-0.17 -0.3,-0.17 0,-14.06 0.3,-0.17 0.3,0.17 z"
           shape-rendering="geometricPrecision"
           id="path4338"
           inkscape:connector-curvature="0"
           style="fill:#000000;fill-rule:evenodd;stroke:#000000;stroke-width:0;stroke-linejoin:miter" />
      </g>
      <g
         id="g4340">
        <path
           d="m 168.66,194.2 0,0 0,0.35 -0.3,0.17 -12.17,-7.02 0,-0.35 0,-0.35 z"
           shape-rendering="geometricPrecision"
           id="path4342"
           inkscape:connector-curvature="0"
           style="fill:#000000;fill-rule:evenodd;stroke:#000000;stroke-width:0;stroke-linejoin:miter" />
        <path
           style="stroke:#000000;stroke-width:0.60000002"
           d="M 166.07001,196.05 156.19,190.34"
           id="line4344"
           inkscape:connector-curvature="0" />
      </g>
      <g
         id="g4346">
        <path
           d="m 156.19,187 0,0 0,0.35 0,0.35 -12.17,7.02 -0.3,-0.17 0,-0.35 z"
           shape-rendering="geometricPrecision"
           id="path4348"
           inkscape:connector-curvature="0"
           style="fill:#000000;fill-rule:evenodd;stroke:#000000;stroke-width:0;stroke-linejoin:miter" />
      </g>
      <g
         id="g4350">
        <path
           d="m 168.96,194.72 0,0 -0.3,-0.17 0,-0.35 12.43,-7.17 0,0.35 0,0.35 z"
           shape-rendering="geometricPrecision"
           id="path4352"
           inkscape:connector-curvature="0"
           style="fill:#000000;fill-rule:evenodd;stroke:#000000;stroke-width:0;stroke-linejoin:miter" />
      </g>
      <g
         id="g4354">
        <g
           style="text-anchor:start"
           id="text4356">
          <path
             d="m 190.0934,194.73367 c 0,-1.18814 0.31901,-2.11832 0.95703,-2.79052 0.63802,-0.6722 1.46159,-1.0083 2.4707,-1.00831 0.66081,1e-5 1.25651,0.15789 1.78711,0.47364 0.5306,0.31576 0.93505,0.75603 1.21338,1.3208 0.27831,0.56478 0.41747,1.20524 0.41748,1.92139 -1e-5,0.72591 -0.14649,1.37532 -0.43945,1.94824 -0.29298,0.57292 -0.70801,1.00667 -1.24512,1.30127 -0.53711,0.29459 -1.11654,0.44189 -1.73828,0.44189 -0.67383,0 -1.27604,-0.16276 -1.80664,-0.48828 -0.5306,-0.32552 -0.93262,-0.76986 -1.20605,-1.33301 -0.27344,-0.56315 -0.41016,-1.15885 -0.41016,-1.78711 z m 0.97656,0.0147 c 0,0.86263 0.23193,1.54216 0.6958,2.03858 0.46387,0.49642 1.04573,0.74463 1.74561,0.74462 0.71288,1e-5 1.29963,-0.25065 1.76025,-0.75195 0.46061,-0.5013 0.69091,-1.21256 0.69092,-2.13379 -1e-5,-0.58268 -0.0985,-1.0913 -0.29541,-1.52588 -0.19695,-0.43456 -0.48503,-0.77147 -0.86426,-1.01074 -0.37923,-0.23925 -0.80485,-0.35888 -1.27685,-0.35889 -0.67058,1e-5 -1.24757,0.23032 -1.73096,0.69092 -0.4834,0.46062 -0.7251,1.22966 -0.7251,2.30713 z"
             style="font-size:10px;fill:#000000;font-family:Arial"
             id="path4426"
             inkscape:connector-curvature="0" />
          <path
             d="m 198.18422,198.22 0,-7.1582 0.94726,0 0,2.93945 3.72071,0 0,-2.93945 0.94726,0 0,7.1582 -0.94726,0 0,-3.37402 -3.72071,0 0,3.37402 z"
             style="font-size:10px;fill:#000000;font-family:Arial"
             id="path4428"
             inkscape:connector-curvature="0" />
        </g>
      </g>
      <g
         id="g4360">
        <path
           d="m 181.09,187.73 0,0 0,-0.35 0,-0.35 8.17,4.72 -0.15,0.26 -0.15,0.26 z"
           shape-rendering="geometricPrecision"
           id="path4362"
           inkscape:connector-curvature="0"
           style="fill:#000000;fill-rule:evenodd;stroke:#000000;stroke-width:0;stroke-linejoin:miter" />
      </g>
      <g
         id="g4364">
        <g
           style="text-anchor:start"
           id="text4366">
          <path
             d="m 152.77339,230.68367 c 0,-1.18815 0.31901,-2.11832 0.95703,-2.79053 0.63802,-0.67219 1.46159,-1.00829 2.47071,-1.0083 0.6608,1e-5 1.2565,0.15789 1.78711,0.47363 0.53059,0.31577 0.93505,0.75603 1.21337,1.32081 0.27832,0.56478 0.41748,1.20524 0.41748,1.92138 0,0.72592 -0.14649,1.37533 -0.43945,1.94824 -0.29297,0.57292 -0.70801,1.00668 -1.24512,1.30127 -0.53711,0.2946 -1.11654,0.4419 -1.73828,0.4419 -0.67383,0 -1.27604,-0.16276 -1.80664,-0.48828 -0.5306,-0.32552 -0.93262,-0.76986 -1.20605,-1.33301 -0.27344,-0.56315 -0.41016,-1.15885 -0.41016,-1.78711 z m 0.97656,0.0146 c 0,0.86263 0.23194,1.54216 0.69581,2.03857 0.46386,0.49642 1.04573,0.74463 1.7456,0.74463 0.71289,0 1.29964,-0.25065 1.76025,-0.75195 0.46061,-0.5013 0.69092,-1.21256 0.69092,-2.13379 0,-0.58268 -0.0985,-1.0913 -0.29541,-1.52588 -0.19694,-0.43456 -0.48503,-0.77148 -0.86426,-1.01074 -0.37923,-0.23925 -0.80485,-0.35888 -1.27685,-0.35889 -0.67058,1e-5 -1.24756,0.23031 -1.73096,0.69092 -0.4834,0.46062 -0.7251,1.22966 -0.7251,2.30713 z"
             style="font-size:10px;fill:#000000;font-family:Arial"
             id="path4431"
             inkscape:connector-curvature="0" />
          <path
             d="m 160.86421,234.17 0,-7.1582 0.94727,0 0,2.93945 3.7207,0 0,-2.93945 0.94727,0 0,7.1582 -0.94727,0 0,-3.37403 -3.7207,0 0,3.37403 z"
             style="font-size:10px;fill:#000000;font-family:Arial"
             id="path4433"
             inkscape:connector-curvature="0" />
        </g>
      </g>
      <g
         id="g4370">
        <path
           d="m 155.89,216.32 0,0 0.3,-0.17 0.3,0.17 0,8.98 -0.3,0 -0.3,0 z"
           shape-rendering="geometricPrecision"
           id="path4372"
           inkscape:connector-curvature="0"
           style="fill:#000000;fill-rule:evenodd;stroke:#000000;stroke-width:0;stroke-linejoin:miter" />
      </g>
      <g
         id="g4374">
        <g
           style="text-anchor:start"
           id="text4376">
          <path
             d="m 102.8834,230.68367 c 0,-1.18815 0.31901,-2.11832 0.95703,-2.79053 0.63802,-0.67219 1.46159,-1.00829 2.4707,-1.0083 0.66081,1e-5 1.25651,0.15789 1.78711,0.47363 0.5306,0.31577 0.93506,0.75603 1.21338,1.32081 0.27832,0.56478 0.41748,1.20524 0.41748,1.92138 0,0.72592 -0.14649,1.37533 -0.43945,1.94824 -0.29298,0.57292 -0.70801,1.00668 -1.24512,1.30127 -0.53711,0.2946 -1.11654,0.4419 -1.73828,0.4419 -0.67383,0 -1.27604,-0.16276 -1.80664,-0.48828 -0.5306,-0.32552 -0.93262,-0.76986 -1.20605,-1.33301 -0.27344,-0.56315 -0.41016,-1.15885 -0.41016,-1.78711 z m 0.97656,0.0146 c 0,0.86263 0.23193,1.54216 0.6958,2.03857 0.46387,0.49642 1.04574,0.74463 1.74561,0.74463 0.71288,0 1.29964,-0.25065 1.76025,-0.75195 0.46061,-0.5013 0.69091,-1.21256 0.69092,-2.13379 -1e-5,-0.58268 -0.0985,-1.0913 -0.29541,-1.52588 -0.19695,-0.43456 -0.48503,-0.77148 -0.86426,-1.01074 -0.37923,-0.23925 -0.80485,-0.35888 -1.27685,-0.35889 -0.67058,1e-5 -1.24756,0.23031 -1.73096,0.69092 -0.4834,0.46062 -0.7251,1.22966 -0.7251,2.30713 z"
             style="font-size:10px;fill:#000000;font-family:Arial"
             id="path4436"
             inkscape:connector-curvature="0" />
          <path
             d="m 110.97422,234.17 0,-7.1582 0.94727,0 0,2.93945 3.7207,0 0,-2.93945 0.94726,0 0,7.1582 -0.94726,0 0,-3.37403 -3.7207,0 0,3.37403 z"
             style="font-size:10px;fill:#000000;font-family:Arial"
             id="path4438"
             inkscape:connector-curvature="0" />
        </g>
      </g>
      <g
         id="g4380">
        <path
           d="m 106.01,216.32 0,0 0.3,-0.17 0.3,0.17 0,8.98 -0.3,0 -0.3,0 z"
           shape-rendering="geometricPrecision"
           id="path4382"
           inkscape:connector-curvature="0"
           style="fill:#000000;fill-rule:evenodd;stroke:#000000;stroke-width:0;stroke-linejoin:miter" />
      </g>
      <g
         id="g4384">
        <g
           style="text-anchor:start"
           id="text4386">
          <path
             d="m 127.82339,230.68367 c 0,-1.18815 0.31901,-2.11832 0.95704,-2.79053 0.63801,-0.67219 1.46158,-1.00829 2.4707,-1.0083 0.6608,1e-5 1.2565,0.15789 1.78711,0.47363 0.53059,0.31577 0.93505,0.75603 1.21338,1.32081 0.27831,0.56478 0.41747,1.20524 0.41748,1.92138 -10e-6,0.72592 -0.14649,1.37533 -0.43946,1.94824 -0.29297,0.57292 -0.70801,1.00668 -1.24511,1.30127 -0.53712,0.2946 -1.11654,0.4419 -1.73828,0.4419 -0.67384,0 -1.27605,-0.16276 -1.80664,-0.48828 -0.5306,-0.32552 -0.93262,-0.76986 -1.20606,-1.33301 -0.27344,-0.56315 -0.41016,-1.15885 -0.41016,-1.78711 z m 0.97657,0.0146 c 0,0.86263 0.23193,1.54216 0.6958,2.03857 0.46386,0.49642 1.04573,0.74463 1.7456,0.74463 0.71289,0 1.29964,-0.25065 1.76026,-0.75195 0.4606,-0.5013 0.69091,-1.21256 0.69092,-2.13379 -1e-5,-0.58268 -0.0985,-1.0913 -0.29541,-1.52588 -0.19695,-0.43456 -0.48504,-0.77148 -0.86426,-1.01074 -0.37924,-0.23925 -0.80486,-0.35888 -1.27686,-0.35889 -0.67057,1e-5 -1.24756,0.23031 -1.73096,0.69092 -0.4834,0.46062 -0.72509,1.22966 -0.72509,2.30713 z"
             style="font-size:10px;fill:#000000;font-family:Arial"
             id="path4441"
             inkscape:connector-curvature="0" />
        </g>
      </g>
      <g
         id="g4390">
        <path
           style="stroke:#000000;stroke-width:0.60000002"
           d="m 132.53999,216.14999 0,9.15001"
           id="line4392"
           inkscape:connector-curvature="0" />
        <path
           d="m 130.26,215.92 0,0 -0.6,-0.34 0,9.72 0.6,0 z"
           shape-rendering="geometricPrecision"
           id="path4394"
           inkscape:connector-curvature="0"
           style="fill:#000000;fill-rule:evenodd;stroke:#000000;stroke-width:0;stroke-linejoin:miter" />
        <path
           d="m 132.84,215.58 0,0 -0.6,0.34 0,9.38 0.6,0 z"
           shape-rendering="geometricPrecision"
           id="path4396"
           inkscape:connector-curvature="0"
           style="fill:#000000;fill-rule:evenodd;stroke:#000000;stroke-width:0;stroke-linejoin:miter" />
      </g>
      <g
         id="g4398">
        <g
           style="text-anchor:start"
           id="text4400">
          <path
             d="m 127.82339,173.19366 c 0,-1.18814 0.31901,-2.11832 0.95704,-2.79052 0.63801,-0.6722 1.46158,-1.0083 2.4707,-1.0083 0.6608,0 1.2565,0.15788 1.78711,0.47363 0.53059,0.31576 0.93505,0.75603 1.21338,1.3208 0.27831,0.56478 0.41747,1.20525 0.41748,1.92139 -10e-6,0.72591 -0.14649,1.37532 -0.43946,1.94824 -0.29297,0.57292 -0.70801,1.00667 -1.24511,1.30127 -0.53712,0.29459 -1.11654,0.44189 -1.73828,0.44189 -0.67384,0 -1.27605,-0.16276 -1.80664,-0.48828 -0.5306,-0.32552 -0.93262,-0.76985 -1.20606,-1.33301 -0.27344,-0.56314 -0.41016,-1.15885 -0.41016,-1.78711 z m 0.97657,0.0147 c 0,0.86264 0.23193,1.54216 0.6958,2.03858 0.46386,0.49642 1.04573,0.74463 1.7456,0.74463 0.71289,0 1.29964,-0.25065 1.76026,-0.75196 0.4606,-0.5013 0.69091,-1.21256 0.69092,-2.13379 -1e-5,-0.58267 -0.0985,-1.0913 -0.29541,-1.52587 -0.19695,-0.43457 -0.48504,-0.77148 -0.86426,-1.01075 -0.37924,-0.23925 -0.80486,-0.35888 -1.27686,-0.35888 -0.67057,0 -1.24756,0.23031 -1.73096,0.69091 -0.4834,0.46062 -0.72509,1.22966 -0.72509,2.30713 z"
             style="font-size:10px;fill:#000000;font-family:Arial"
             id="path4445"
             inkscape:connector-curvature="0" />
        </g>
      </g>
      <g
         id="g4404">
        <path
           style="stroke:#000000;stroke-width:0.60000002"
           d="m 129.96001,187.35001 0,-8.85001"
           id="line4406"
           inkscape:connector-curvature="0" />
        <path
           d="m 132.24,187.58 0,0 0.6,0.34 0,-9.42 -0.6,0 z"
           shape-rendering="geometricPrecision"
           id="path4408"
           inkscape:connector-curvature="0"
           style="fill:#000000;fill-rule:evenodd;stroke:#000000;stroke-width:0;stroke-linejoin:miter" />
        <path
           d="m 129.66,187.92 0,0 0.6,-0.34 0,-9.08 -0.6,0 z"
           shape-rendering="geometricPrecision"
           id="path4410"
           inkscape:connector-curvature="0"
           style="fill:#000000;fill-rule:evenodd;stroke:#000000;stroke-width:0;stroke-linejoin:miter" />
      </g>
    </g>
  </g>
</svg>
