<?xml version="1.0" encoding="utf-8"?>
<!-- Generator: Adobe Illustrator 13.0.2, SVG Export Plug-In . SVG Version: 6.00 Build 14948)  -->
<!DOCTYPE svg PUBLIC "-//W3C//DTD SVG 1.1//EN" "http://www.w3.org/Graphics/SVG/1.1/DTD/svg11.dtd">
<svg version="1.1" id="Ebene_1" xmlns="http://www.w3.org/2000/svg" xmlns:xlink="http://www.w3.org/1999/xlink" x="0px" y="0px"
	 width="365.29px" height="284.49px" viewBox="0 0 365.29 284.49" enable-background="new 0 0 365.29 284.49" xml:space="preserve">
<polygon points="104.578,168.888 106.328,170.288 106.328,171.137 69.978,161.388 68.028,159.988 68.028,159.138 "/>
<polygon points="90.228,191.087 87.828,194.337 82.378,191.788 67.528,160.988 68.028,159.988 69.978,161.388 "/>
<polygon points="128.478,180.837 126.178,184.087 126.678,186.587 90.928,196.187 87.828,194.337 90.228,191.087 "/>
<path d="M136.438,161.071c0-2.852,0.766-5.084,2.297-6.697s3.508-2.42,5.93-2.42c1.586,0,3.016,0.379,4.289,1.137
	s2.244,1.814,2.912,3.17s1.002,2.893,1.002,4.611c0,1.742-0.352,3.301-1.055,4.676s-1.699,2.416-2.988,3.123
	s-2.68,1.061-4.172,1.061c-1.617,0-3.063-0.391-4.336-1.172s-2.238-1.848-2.895-3.199S136.438,162.579,136.438,161.071z
	 M138.782,161.106c0,2.07,0.557,3.701,1.67,4.893s2.51,1.787,4.189,1.787c1.711,0,3.119-0.602,4.225-1.805s1.658-2.91,1.658-5.121
	c0-1.398-0.236-2.619-0.709-3.662s-1.164-1.852-2.074-2.426s-1.932-0.861-3.064-0.861c-1.609,0-2.994,0.553-4.154,1.658
	S138.782,158.52,138.782,161.106z"/>
<polygon points="133.978,161.988 134.428,163.638 106.328,171.137 106.328,170.288 106.728,169.288 "/>
<polygon points="162.628,192.788 164.528,194.337 164.578,195.238 129.828,188.637 126.178,184.087 128.478,180.837 "/>
<polygon points="164.928,193.387 164.528,194.337 162.628,192.788 149.878,170.687 151.328,169.837 "/>
<polygon points="202.178,183.387 202.828,184.087 202.578,185.038 164.578,195.238 164.528,194.337 164.928,193.387 "/>
<path d="M4.999,179.743v-17.18h2.273v7.055h8.93v-7.055h2.273v17.18h-2.273v-8.098h-8.93v8.098H4.999z"/>
<path d="M21.569,171.375c0-2.852,0.766-5.084,2.297-6.697s3.508-2.42,5.93-2.42c1.586,0,3.016,0.379,4.289,1.137
	s2.244,1.814,2.912,3.17s1.002,2.893,1.002,4.611c0,1.742-0.352,3.301-1.055,4.676s-1.699,2.416-2.988,3.123
	s-2.68,1.061-4.172,1.061c-1.617,0-3.063-0.391-4.336-1.172s-2.238-1.848-2.895-3.199S21.569,172.883,21.569,171.375z
	 M23.913,171.411c0,2.07,0.557,3.701,1.67,4.893s2.51,1.787,4.189,1.787c1.711,0,3.119-0.602,4.225-1.805s1.658-2.91,1.658-5.121
	c0-1.398-0.236-2.619-0.709-3.662s-1.164-1.852-2.074-2.426s-1.932-0.861-3.064-0.861c-1.609,0-2.994,0.553-4.154,1.658
	S23.913,168.825,23.913,171.411z"/>
<polygon points="40.028,168.388 39.578,166.738 68.028,159.138 68.028,159.988 67.528,160.988 "/>
<path d="M40.795,196.987v-17.18h2.273v7.055h8.93v-7.055h2.273v17.18h-2.273v-8.098h-8.93v8.098H40.795z"/>
<path d="M57.366,188.62c0-2.852,0.766-5.084,2.297-6.697s3.508-2.42,5.93-2.42c1.586,0,3.016,0.379,4.289,1.137
	s2.244,1.814,2.912,3.17s1.002,2.893,1.002,4.611c0,1.742-0.352,3.301-1.055,4.676s-1.699,2.416-2.988,3.123
	s-2.68,1.061-4.172,1.061c-1.617,0-3.063-0.391-4.336-1.172s-2.238-1.848-2.895-3.199S57.366,190.127,57.366,188.62z
	 M59.709,188.655c0,2.07,0.557,3.701,1.67,4.893s2.51,1.787,4.189,1.787c1.711,0,3.119-0.602,4.225-1.805s1.658-2.91,1.658-5.121
	c0-1.398-0.236-2.619-0.709-3.662s-1.164-1.852-2.074-2.426s-1.932-0.861-3.064-0.861c-1.609,0-2.994,0.553-4.154,1.658
	S59.709,186.069,59.709,188.655z"/>
<polygon points="75.728,191.587 76.228,189.937 82.378,191.788 87.828,194.337 90.928,196.187 "/>
<polygon points="85.528,135.888 87.478,135.888 106.728,169.288 106.328,170.288 104.578,168.888 "/>
<path d="M98.088,102.625c0-2.852,0.766-5.084,2.297-6.697s3.508-2.42,5.93-2.42c1.586,0,3.016,0.379,4.289,1.137
	s2.244,1.814,2.912,3.17s1.002,2.893,1.002,4.611c0,1.742-0.352,3.301-1.055,4.676s-1.699,2.416-2.988,3.123
	s-2.68,1.061-4.172,1.061c-1.617,0-3.063-0.391-4.336-1.172s-2.238-1.848-2.895-3.199S98.088,104.133,98.088,102.625z
	 M100.432,102.661c0,2.07,0.557,3.701,1.67,4.893s2.51,1.787,4.189,1.787c1.711,0,3.119-0.602,4.225-1.805s1.658-2.91,1.658-5.121
	c0-1.398-0.236-2.619-0.709-3.662s-1.164-1.852-2.074-2.426s-1.932-0.861-3.064-0.861c-1.609,0-2.994,0.553-4.154,1.658
	S100.432,100.075,100.432,102.661z"/>
<path d="M117.518,110.993v-17.18h2.273v7.055h8.93v-7.055h2.273v17.18h-2.273v-8.098h-8.93v8.098H117.518z"/>
<polygon points="99.678,111.388 101.128,112.237 87.478,135.888 85.528,135.888 "/>
<path d="M121.35,227.885v-17.18h2.273v7.055h8.93v-7.055h2.273v17.18h-2.273v-8.098h-8.93v8.098H121.35z"/>
<path d="M137.92,219.518c0-2.852,0.766-5.084,2.297-6.697s3.508-2.42,5.93-2.42c1.586,0,3.016,0.379,4.289,1.137
	s2.244,1.814,2.912,3.17s1.002,2.893,1.002,4.611c0,1.742-0.352,3.301-1.055,4.676s-1.699,2.416-2.988,3.123
	s-2.68,1.061-4.172,1.061c-1.617,0-3.063-0.391-4.336-1.172s-2.238-1.848-2.895-3.199S137.92,221.026,137.92,219.518z
	 M140.264,219.553c0,2.07,0.557,3.701,1.67,4.893s2.51,1.787,4.189,1.787c1.711,0,3.119-0.602,4.225-1.805s1.658-2.91,1.658-5.121
	c0-1.398-0.236-2.619-0.709-3.662s-1.164-1.852-2.074-2.426s-1.932-0.861-3.064-0.861c-1.609,0-2.994,0.553-4.154,1.658
	S140.264,216.967,140.264,219.553z"/>
<polygon points="141.528,208.988 140.078,209.837 126.678,186.587 126.178,184.087 129.828,188.637 "/>
<polygon points="231.178,211.187 230.928,212.137 229.978,212.387 202.578,185.038 202.828,184.087 203.778,183.837 "/>
<polygon points="268.528,201.187 269.228,201.887 268.978,202.837 231.627,212.837 230.928,212.137 231.178,211.187 "/>
<polygon points="267.228,207.687 267.678,209.337 235.978,217.837 235.528,216.187 "/>
<polygon points="278.578,163.788 280.478,163.288 270.178,201.637 269.228,201.887 268.528,201.187 "/>
<polygon points="251.178,136.438 251.478,135.487 252.377,135.237 280.478,163.288 278.578,163.788 "/>
<polygon points="213.828,146.437 213.127,145.738 213.377,144.788 250.778,134.788 251.478,135.487 251.178,136.438 "/>
<polygon points="215.127,139.938 214.678,138.288 246.377,129.788 246.828,131.438 "/>
<polygon points="203.778,183.837 202.828,184.087 202.178,183.387 212.178,145.988 213.127,145.738 213.828,146.437 "/>
<polygon points="260.778,97.388 261.728,97.138 262.428,97.837 252.377,135.237 251.478,135.487 250.778,134.788 "/>
<polygon points="233.428,70.038 233.928,68.138 261.978,96.188 261.728,97.138 260.778,97.388 "/>
<rect x="242.63" y="70.933" transform="matrix(-0.7073 0.707 -0.707 -0.7073 477.4223 -23.0231)" width="1.697" height="32.81"/>
<polygon points="196.028,80.038 195.328,79.388 195.578,78.438 233.928,68.138 233.428,70.038 "/>
<polygon points="186.028,117.438 184.127,117.938 194.377,79.638 195.328,79.388 196.028,80.038 "/>
<polygon points="192.528,116.138 190.877,115.688 199.377,83.987 201.028,84.438 "/>
<polygon points="213.377,144.788 213.127,145.738 212.178,145.988 184.127,117.938 186.028,117.438 "/>
<polygon points="221.578,250.238 219.678,250.738 229.978,212.387 230.928,212.137 231.627,212.837 "/>
<polygon points="248.978,277.587 248.428,279.488 219.678,250.738 221.578,250.238 "/>
<rect x="238.029" y="243.883" transform="matrix(0.7071 -0.7071 0.7071 0.7071 -114.0854 245.1487)" width="1.697" height="32.809"/>
<polygon points="286.328,267.587 287.728,268.988 248.428,279.488 248.978,277.587 "/>
<polygon points="296.377,230.187 297.328,229.937 297.978,230.637 287.728,268.988 286.328,267.587 "/>
<polygon points="289.828,231.488 291.478,231.937 282.978,263.637 281.328,263.187 "/>
<polygon points="268.978,202.837 269.228,201.887 270.178,201.637 297.578,228.988 297.328,229.937 296.377,230.187 "/>
<path d="M185.897,231.885v-17.18h2.273v7.055h8.93v-7.055h2.273v17.18H197.1v-8.098h-8.93v8.098H185.897z"/>
<polygon points="199.228,212.288 191.877,210.337 192.478,208.738 199.478,210.637 "/>
<polygon points="199.877,207.887 193.528,206.187 194.178,204.587 200.078,206.187 "/>
<polygon points="200.478,203.437 195.228,202.038 195.877,200.437 200.728,201.738 "/>
<polygon points="201.078,198.988 196.928,197.887 197.578,196.288 201.328,197.288 "/>
<polygon points="201.728,194.538 198.578,193.738 199.228,192.137 201.928,192.837 "/>
<polygon points="202.328,190.137 200.278,189.587 200.928,187.988 202.578,188.437 "/>
<polygon points="166.328,51.587 168.228,51.087 195.578,78.438 195.328,79.388 194.377,79.638 "/>
<path d="M169.338,14.12c0-2.852,0.766-5.084,2.297-6.697s3.508-2.42,5.93-2.42c1.586,0,3.016,0.379,4.289,1.137
	s2.244,1.814,2.912,3.17s1.002,2.893,1.002,4.611c0,1.742-0.352,3.301-1.055,4.676s-1.699,2.416-2.988,3.123
	s-2.68,1.061-4.172,1.061c-1.617,0-3.063-0.391-4.336-1.172s-2.238-1.848-2.895-3.199S169.338,15.627,169.338,14.12z
	 M171.682,14.155c0,2.07,0.557,3.701,1.67,4.893s2.51,1.787,4.189,1.787c1.711,0,3.119-0.602,4.225-1.805s1.658-2.91,1.658-5.121
	c0-1.398-0.236-2.619-0.709-3.662s-1.164-1.852-2.074-2.426s-1.932-0.861-3.064-0.861c-1.609,0-2.994,0.553-4.154,1.658
	S171.682,11.569,171.682,14.155z"/>
<path d="M188.768,22.487V5.307h2.273v7.055h8.93V5.307h2.273v17.18h-2.273v-8.098h-8.93v8.098H188.768z"/>
<polygon points="173.628,24.388 175.278,24.837 168.228,51.087 166.328,51.587 "/>
<path d="M291.784,87.977c0-2.852,0.766-5.084,2.297-6.697s3.508-2.42,5.93-2.42c1.586,0,3.016,0.379,4.289,1.137
	s2.244,1.814,2.912,3.17s1.002,2.893,1.002,4.611c0,1.742-0.352,3.301-1.055,4.676s-1.699,2.416-2.988,3.123
	s-2.68,1.061-4.172,1.061c-1.617,0-3.063-0.391-4.336-1.172s-2.238-1.848-2.895-3.199S291.784,89.485,291.784,87.977z
	 M294.127,88.012c0,2.07,0.557,3.701,1.67,4.893s2.51,1.787,4.189,1.787c1.711,0,3.119-0.602,4.225-1.805s1.658-2.91,1.658-5.121
	c0-1.398-0.236-2.619-0.709-3.662s-1.164-1.852-2.074-2.426s-1.932-0.861-3.064-0.861c-1.609,0-2.994,0.553-4.154,1.658
	S294.127,85.426,294.127,88.012z"/>
<path d="M311.213,96.344v-17.18h2.273v7.055h8.93v-7.055h2.273v17.18h-2.273v-8.098h-8.93v8.098H311.213z"/>
<polygon points="289.328,88.888 289.778,90.538 262.428,97.837 261.728,97.138 261.978,96.188 "/>
<path d="M309.588,154.377c0-2.852,0.766-5.084,2.297-6.697s3.508-2.42,5.93-2.42c1.586,0,3.016,0.379,4.289,1.137
	s2.244,1.814,2.912,3.17s1.002,2.893,1.002,4.611c0,1.742-0.352,3.301-1.055,4.676s-1.699,2.416-2.988,3.123
	s-2.68,1.061-4.172,1.061c-1.617,0-3.063-0.391-4.336-1.172s-2.238-1.848-2.895-3.199S309.588,155.885,309.588,154.377z
	 M311.932,154.413c0,2.07,0.557,3.701,1.67,4.893s2.51,1.787,4.189,1.787c1.711,0,3.119-0.602,4.225-1.805s1.658-2.91,1.658-5.121
	c0-1.398-0.236-2.619-0.709-3.662s-1.164-1.852-2.074-2.426s-1.932-0.861-3.064-0.861c-1.609,0-2.994,0.553-4.154,1.658
	S311.932,151.827,311.932,154.413z"/>
<polygon points="306.328,152.388 306.778,154.038 277.328,161.937 276.877,160.288 "/>
<polygon points="307.877,158.138 308.278,159.788 278.828,167.687 278.428,166.038 "/>
<path d="M327.385,220.768c0-2.852,0.766-5.084,2.297-6.697s3.508-2.42,5.93-2.42c1.586,0,3.016,0.379,4.289,1.137
	s2.244,1.814,2.912,3.17s1.002,2.893,1.002,4.611c0,1.742-0.352,3.301-1.055,4.676s-1.699,2.416-2.988,3.123
	s-2.68,1.061-4.172,1.061c-1.617,0-3.063-0.391-4.336-1.172s-2.238-1.848-2.895-3.199S327.385,222.276,327.385,220.768z
	 M329.729,220.803c0,2.07,0.557,3.701,1.67,4.893s2.51,1.787,4.189,1.787c1.711,0,3.119-0.602,4.225-1.805s1.658-2.91,1.658-5.121
	c0-1.398-0.236-2.619-0.709-3.662s-1.164-1.852-2.074-2.426s-1.932-0.861-3.064-0.861c-1.609,0-2.994,0.553-4.154,1.658
	S329.729,218.217,329.729,220.803z"/>
<path d="M346.815,229.135v-17.18h2.273v7.055h8.93v-7.055h2.273v17.18h-2.273v-8.098h-8.93v8.098H346.815z"/>
<polygon points="324.928,221.687 325.328,223.288 297.978,230.637 297.328,229.937 297.578,228.988 "/>
</svg>
