<?xml version="1.0" encoding="UTF-8" standalone="no"?>
<!-- Created with Inkscape (http://www.inkscape.org/) -->

<svg
   xmlns:dc="http://purl.org/dc/elements/1.1/"
   xmlns:cc="http://creativecommons.org/ns#"
   xmlns:rdf="http://www.w3.org/1999/02/22-rdf-syntax-ns#"
   xmlns:svg="http://www.w3.org/2000/svg"
   xmlns="http://www.w3.org/2000/svg"
   version="1.1"
   width="620"
   height="207.85"
   id="svg2">
  <defs
     id="defs4" />
  <metadata
     id="metadata7">
    <rdf:RDF>
      <cc:Work
         rdf:about="">
        <dc:format>image/svg+xml</dc:format>
        <dc:type
           rdf:resource="http://purl.org/dc/dcmitype/StillImage" />
        <dc:title></dc:title>
      </cc:Work>
    </rdf:RDF>
  </metadata>
  <g
     transform="translate(377,-558.43)"
     id="layer1">
    <path
       d="m -336.68,755.72 c -0.85,-0.3 -2.15,-0.96 -2.89,-1.46 -5.64,-3.87 -6.41,-14.41 -1.43,-19.4 2.31,-2.31 4.17,-3.01 7.93,-3.01 3.91,0 5.88,0.86 8.17,3.53 3.93,4.59 3.81,13.09 -0.24,17.49 -2.77,3 -7.7,4.22 -11.54,2.85 z m 7.12,-3.21 c 3.21,-1.62 4.79,-5.11 4.37,-9.65 -0.38,-4.07 -1.89,-6.46 -4.9,-7.71 -3.93,-1.65 -8.4,0.15 -10.22,4.09 -1.05,2.27 -1.04,7.2 0,9.51 0.8,1.77 3.06,3.87 4.66,4.33 1.93,0.56 4.28,0.34 6.08,-0.57 z m -37.44,-8.54 0,-11.92 1.44,0 1.44,0 0,4.93 0,4.94 6.17,0 6.17,0 0,-4.94 0,-4.93 1.44,0 1.44,0 0,11.92 0,11.93 -1.44,0 -1.44,0 0,-5.55 0,-5.55 -6.17,0 -6.17,0 0,5.55 0,5.55 -1.44,0 -1.44,0 0,-11.93 z m 287.496,1.68 c 0,-1.34 1.374,-3.14 5.162,-6.79 3.932,-3.79 4.298,-4.27 4.298,-5.65 0,-3.68 -5.861,-4.49 -6.754,-0.94 -0.201,0.81 -0.489,1.03 -1.176,0.93 -1.209,-0.17 -1.304,-1.07 -0.292,-2.72 1.069,-1.74 3.303,-2.7 5.684,-2.43 2.328,0.26 3.841,1.41 4.512,3.41 0.872,2.61 -0.115,4.48 -4.479,8.5 -2.016,1.86 -3.665,3.53 -3.665,3.7 0,0.17 1.946,0.31 4.319,0.31 l 4.318,0 0,1.03 0,1.03 -5.963,0 c -3.427,0 -5.964,-0.16 -5.964,-0.38 z m -183.036,-15.1 c -12.77,-7.39 -23.41,-13.43 -23.64,-13.43 -0.23,0 -8,4.39 -17.27,9.76 l -16.86,9.75 -0.73,-0.91 -0.73,-0.91 8.54,-4.93 c 4.7,-2.72 12.43,-7.19 17.18,-9.95 l 8.64,-5 0.2,-27.31 0.21,-27.32 23.98,-13.84 23.98,-13.84 23.48,13.54 c 12.9,7.45 23.72,13.45 24.03,13.33 0.31,-0.12 10.82,-6.14 23.36,-13.38 12.53,-7.24 22.95,-13.21 23.15,-13.28 0.2,-0.1 10.81,5.9 23.58,13.26 12.76,7.35 23.489,13.35 23.829,13.34 0.89,0 45.298,-25.73 45.536,-26.35 0.107,-0.28 -0.654,-8.25 -1.69,-17.71 -1.037,-9.47 -1.884,-17.53 -1.884,-17.92 0,-0.65 0.531,-0.72 5.141,-0.72 2.826,0 5.141,0.14 5.141,0.31 0,0.17 -0.822,7.8 -1.826,16.96 -0.999,9.17 -1.879,17.27 -1.945,18 l -0.128,1.34 22.815,13.18 c 20.1253,11.63 22.9223,13.13 23.7523,12.76 0.519,-0.24 11.0726,-6.29 23.4527,-13.45 12.384,-7.16 22.72,-13.02 22.925,-13.02 0.206,0 10.859,6.05 23.65,13.44 12.791,7.38 23.444,13.38 23.691,13.31 0.246,-0.1 10.65,-6.01 23.12,-13.22 l 22.7,-13.12 0,-18.24 0,-18.25 1.03,0 1.03,0 0,18.22 0,18.23 17.35,10.01 c 9.59,5.51 17.44,10.06 17.52,10.12 0.25,0.2 -0.78,1.82 -1.15,1.82 -0.16,0 -8.02,-4.44 -17.44,-9.87 -9.37,-5.43 -17.15,-9.87 -17.27,-9.87 -0.1,0 -10.74,6.11 -23.65,13.57 L 90.814,662.52 67.329,648.96 c -12.915,-7.46 -23.567,-13.57 -23.65,-13.57 -0.08,0 -10.743,6.11 -23.649,13.57 L -3.4427,662.52 -26.936,648.94 c -12.927,-7.47 -23.699,-13.51 -23.946,-13.41 -0.247,0.1 -10.879,6.21 -23.625,13.58 l -23.174,13.4 -22.889,-13.22 c -12.59,-7.26 -23.19,-13.4 -23.55,-13.61 -0.51,-0.32 -5.83,2.57 -23.74,12.91 l -23.08,13.33 -0.12,27.27 -0.11,27.28 -23.8,13.75 c -13.09,7.56 -23.92,13.75 -24.07,13.75 -0.15,0 -10.72,-6.04 -23.5,-13.42 z m 56.03,-7.85 13.46,-7.72 0,-26.56 0,-26.55 -22.73,-13.1 c -12.46,-7.21 -22.83,-13.18 -23.01,-13.27 -0.17,-0.1 -10.68,5.81 -23.34,13.13 l -23.02,13.29 0.1,26.51 0.1,26.51 22.96,13.24 22.96,13.25 9.53,-5.5 c 5.25,-3.03 15.59,-8.98 22.99,-13.23 z m -32.52,10.74 c -0.27,-0.6 -0.45,-1.14 -0.38,-1.2 0.1,-0.1 8.81,-5.13 19.44,-11.25 18.94,-10.93 19.32,-11.13 19.82,-10.22 0.38,0.71 0.38,1.02 0,1.37 -0.27,0.24 -8.64,5.13 -18.59,10.86 -9.95,5.72 -18.48,10.66 -18.96,10.97 -0.77,0.5 -0.9,0.45 -1.35,-0.53 z m -39.95,-45.2 0,-22.41 1.03,0 1.02,0 0,22.41 0,22.42 -1.02,0 -1.03,0 0,-22.42 z m 58.83,-32.61 c -10.5,-6.06 -19.14,-11.2 -19.2,-11.41 -0.1,-0.22 0.12,-0.72 0.42,-1.11 0.5,-0.66 2.16,0.21 19.84,10.42 10.6,6.13 19.34,11.2 19.42,11.27 0.21,0.21 -0.75,1.85 -1.09,1.85 -0.17,0 -8.89,-4.96 -19.39,-11.02 z m 162.494,83.23 c -5.931,-1.93 -8.802,-10.86 -5.766,-17.92 3.146,-7.32 14.292,-8.29 18.014,-1.57 1.144,2.07 1.024,2.52 -0.785,2.94 -0.876,0.21 -1.164,0 -1.851,-1.25 -1.678,-3.06 -5.08,-4.17 -8.646,-2.81 -3.171,1.21 -4.717,4.12 -4.717,8.86 0,4.56 1.378,7.36 4.277,8.68 4.105,1.86 8.662,0 9.892,-4.05 0.284,-0.94 0.876,-1.07 2.624,-0.58 l 0.958,0.27 -1.373,2.66 c -1.843,3.56 -4.06,4.99 -8.041,5.21 -1.695,0.1 -3.488,-0.1 -4.586,-0.44 z m -43.234,-11.75 0,-11.93 1.439,0 1.44,0 0,4.94 0,4.93 6.17,0 6.167,0 0,-4.93 0,-4.94 1.44,0 1.439,0 0,11.93 0,11.93 -1.439,0 -1.44,0 0,-5.55 0,-5.56 -6.167,0 -6.17,0 0,5.56 0,5.55 -1.44,0 -1.439,0 0,-11.93 z m 57.012,-10.89 c -0.728,-0.56 -0.242,-1.51 9.004,-17.57 5.375,-9.35 10.011,-17.24 10.294,-17.55 0.445,-0.48 0.654,-0.48 1.362,0 0.806,0.57 0.51,1.15 -9.308,18.15 -5.577,9.66 -10.237,17.56 -10.356,17.55 -0.124,0 -0.568,-0.28 -0.996,-0.6 z m -7.016,-4.05 c -0.642,-0.47 -0.675,-0.68 -0.222,-1.54 1.546,-2.95 16.653,-29.05 17.089,-29.53 0.432,-0.48 0.642,-0.47 1.365,0 0.835,0.58 0.642,0.97 -8.086,16.09 -4.915,8.51 -9.04,15.49 -9.167,15.49 -0.128,0 -0.568,-0.24 -0.979,-0.54 z M 224.16,681.06 c -2.51,-1.52 -3.42,-4.18 -1.52,-4.46 0.65,-0.1 1.02,0.22 1.39,1.15 0.95,2.25 3.62,2.79 5.56,1.12 2.51,-2.15 0.74,-6.35 -2.55,-5.96 -1.32,0.15 -1.4,0.1 -1.15,-0.89 0.16,-0.58 0.28,-1.06 0.32,-1.08 0,0 0.74,-0.21 1.53,-0.43 1.93,-0.53 2.83,-2.23 1.89,-3.67 -1.32,-1.98 -4.53,-1.83 -5.31,0.24 -0.49,1.24 -0.78,1.37 -2.01,0.88 -0.62,-0.25 -0.62,-0.43 -0.13,-1.61 0.33,-0.73 1.2,-1.7 1.94,-2.16 4.19,-2.54 9.79,1.44 7.69,5.47 -0.29,0.49 -0.74,1.05 -1.03,1.23 -0.82,0.47 -0.7,1.01 0.25,1.31 1.27,0.41 2.18,2.53 1.93,4.62 -0.45,4.05 -5.31,6.38 -8.8,4.24 z m -255.456,-3.49 c -0.452,-0.99 -0.341,-1.09 3.529,-3.35 2.196,-1.28 4.146,-2.42 4.331,-2.53 0.321,-0.18 1.472,1.05 1.501,1.6 0,0.2 -7.074,4.45 -8.654,5.2 -0.131,0.1 -0.452,-0.35 -0.707,-0.92 z M 181.3,674.28 c -5.92,-1.92 -8.8,-10.86 -5.76,-17.92 3.17,-7.31 14.27,-8.28 18.02,-1.56 1.15,2.07 1.03,2.51 -0.78,2.94 -0.87,0.2 -1.16,0 -1.86,-1.25 -1.68,-3.07 -5.1,-4.17 -8.63,-2.81 -3.17,1.21 -4.73,4.12 -4.73,8.86 0,4.56 1.4,7.36 4.28,8.67 4.11,1.87 8.67,0 9.91,-4.05 0.24,-0.93 0.86,-1.06 2.59,-0.57 l 0.99,0.27 -1.4,2.66 c -1.85,3.56 -4.03,4.99 -8.02,5.2 -1.73,0.1 -3.5,-0.1 -4.61,-0.44 z m 18.06,-11.74 0,-11.93 1.44,0 1.44,0 0,4.94 0,4.93 6.16,0 6.17,0 0,-4.93 0,-4.94 1.44,0 1.44,0 0,11.93 0,11.93 -1.44,0 -1.44,0 0,-5.56 0,-5.55 -6.17,0 -6.16,0 0,5.55 0,5.56 -1.44,0 -1.44,0 0,-11.93 z m -233.535,8.87 c -0.436,-0.97 -0.304,-1.09 3.323,-3.22 3.764,-2.2 3.784,-2.2 4.475,-1.36 0.383,0.47 0.568,0.97 0.415,1.12 -0.283,0.28 -7.452,4.46 -7.65,4.46 -0.06,0 -0.312,-0.45 -0.563,-1 z m -86.665,-12.82 c -9.95,-5.77 -19.53,-11.31 -21.29,-12.33 -2.99,-1.73 -3.16,-1.91 -2.72,-2.76 0.26,-0.5 0.51,-0.96 0.57,-1.03 0.1,-0.12 42.15,24.09 42.71,24.6 0.37,0.33 -0.38,2.06 -0.88,2.02 -0.16,0 -8.44,-4.74 -18.39,-10.5 z m 83.847,6.54 c -0.152,-0.61 -0.111,-1.17 0.09,-1.24 0.206,-0.1 1.575,-0.85 3.048,-1.73 2.459,-1.49 2.731,-1.56 3.393,-0.97 0.395,0.36 0.72,0.79 0.72,0.97 0,0.28 -6.281,4.08 -6.758,4.08 -0.119,0 -0.345,-0.5 -0.498,-1.11 z m -2.615,-5.88 c -0.593,-1.11 -0.391,-1.36 2.286,-2.89 1.864,-1.07 2.378,-1.21 2.888,-0.79 1.024,0.85 0.51,1.58 -2.172,3.09 -2.501,1.41 -2.558,1.42 -3.002,0.59 z m -2.863,-6.14 c -0.6,-1.13 -0.642,-1.06 1.612,-2.45 l 2.044,-1.26 0.638,0.91 c 0.732,1.05 0.493,1.33 -2.34,2.8 -1.51,0.78 -1.534,0.78 -1.954,0 z m 133.326,-1.32 c -0.329,-0.47 -0.411,-1.02 -0.206,-1.19 0.165,-0.18 8.884,-5.28 19.371,-11.31 17.98,-10.36 19.09,-10.94 19.62,-10.22 0.33,0.42 0.62,0.87 0.62,1 0,0.18 -37.595,22.09 -38.623,22.49 -0.124,0.1 -0.494,-0.28 -0.782,-0.77 z M -45.35,646.94 c -0.592,-1.11 -0.601,-1.09 1.065,-2.12 l 1.489,-0.92 0.736,0.98 c 0.737,0.97 0.732,0.98 -0.913,1.91 -1.995,1.13 -1.855,1.13 -2.377,0.15 z m -2.826,-6.42 c -0.423,-0.93 -0.366,-1.08 0.56,-1.5 0.872,-0.4 1.123,-0.35 1.628,0.31 0.535,0.71 0.506,0.87 -0.259,1.51 -1.131,0.95 -1.369,0.91 -1.929,-0.32 z m 36.659,-41.31 c -2.488,-1.51 -3.397,-4.18 -1.513,-4.45 0.633,-0.1 0.999,0.21 1.386,1.14 0.933,2.25 3.6313,2.8 5.5733,1.13 2.513,-2.16 0.707,-6.35 -2.575,-5.97 -1.32,0.15 -1.3823,0.11 -1.135,-0.89 0.144,-0.58 0.296,-1.06 0.333,-1.08 0.04,0 0.72,-0.21 1.51,-0.43 1.949,-0.53 2.821,-2.23 1.879,-3.67 -1.3,-1.98 -4.5203,-1.83 -5.3013,0.24 -0.469,1.24 -0.778,1.38 -1.995,0.88 -0.609,-0.25 -0.625,-0.43 -0.128,-1.61 0.309,-0.73 1.172,-1.7 1.921,-2.16 4.1833,-2.54 9.7893,1.45 7.6753,5.47 -0.259,0.5 -0.72,1.05 -1.028,1.23 -0.798,0.47 -0.687,1.01 0.271,1.31 1.287,0.42 2.176,2.53 1.941,4.62 -0.456,4.05 -5.305,6.38 -8.8143,4.24 z m 188.377,0 c -2.51,-1.51 -3.42,-4.18 -1.52,-4.45 0.65,-0.1 1.02,0.21 1.39,1.14 0.95,2.25 3.62,2.8 5.56,1.13 2.51,-2.16 0.74,-6.35 -2.55,-5.97 -1.32,0.15 -1.4,0.11 -1.15,-0.89 0.16,-0.58 0.28,-1.06 0.32,-1.08 0.1,0 0.75,-0.21 1.53,-0.43 1.93,-0.53 2.83,-2.23 1.89,-3.67 -1.32,-1.98 -4.53,-1.83 -5.31,0.24 -0.49,1.24 -0.78,1.38 -2.01,0.88 -0.62,-0.25 -0.62,-0.43 -0.13,-1.61 0.33,-0.73 1.2,-1.7 1.94,-2.16 4.19,-2.54 9.79,1.45 7.69,5.47 -0.29,0.5 -0.74,1.05 -1.03,1.23 -0.82,0.47 -0.7,1.01 0.25,1.31 1.27,0.42 2.18,2.53 1.93,4.62 -0.45,4.05 -5.31,6.38 -8.8,4.24 z m -230.814,-6.77 c -5.931,-1.93 -8.802,-10.87 -5.767,-17.92 3.147,-7.32 14.293,-8.29 18.015,-1.57 1.143,2.07 1.024,2.52 -0.786,2.94 -0.876,0.21 -1.164,0 -1.85,-1.25 -1.679,-3.06 -5.08,-4.17 -8.646,-2.81 -3.171,1.21 -4.717,4.12 -4.717,8.86 0,4.56 1.377,7.36 4.277,8.68 4.105,1.86 8.662,0 9.892,-4.05 0.284,-0.94 0.876,-1.07 2.624,-0.58 l 0.958,0.27 -1.374,2.66 c -1.842,3.56 -4.059,4.99 -8.04,5.21 -1.695,0.1 -3.488,-0.1 -4.586,-0.44 z m 188.364,0 c -5.92,-1.93 -8.8,-10.87 -5.76,-17.92 3.17,-7.32 14.28,-8.29 18.02,-1.57 1.15,2.07 1.03,2.52 -0.78,2.94 -0.87,0.21 -1.15,0 -1.85,-1.25 -1.69,-3.06 -5.1,-4.17 -8.64,-2.81 -3.17,1.21 -4.73,4.12 -4.73,8.86 0,4.56 1.4,7.36 4.28,8.68 4.11,1.86 8.68,0 9.91,-4.05 0.25,-0.94 0.86,-1.07 2.59,-0.58 l 0.99,0.27 -1.4,2.66 c -1.85,3.56 -4.03,4.99 -8.02,5.21 -1.73,0.1 -3.5,-0.1 -4.61,-0.44 z m -170.728,-11.75 0,-11.93 1.44,0 1.439,0 0,4.94 0,4.93 6.17,0 6.169,0 0,-4.93 0,-4.94 1.44,0 1.439,0 0,11.93 0,11.93 -1.439,0 -1.44,0 0,-5.56 0,-5.55 -6.169,0 -6.17,0 0,5.55 0,5.56 -1.439,0 -1.44,0 0,-11.93 z m 188.378,0 0,-11.93 1.44,0 1.44,0 0,4.94 0,4.93 6.17,0 6.17,0 0,-4.93 0,-4.94 1.43,0 1.44,0 0,11.93 0,11.93 -1.44,0 -1.43,0 0,-5.56 0,-5.55 -6.17,0 -6.17,0 0,5.55 0,5.56 -1.44,0 -1.44,0 0,-11.93 z"
       id="path3007"
       style="fill:#000000" />
  </g>
</svg>
