<!-- Creator: CorelDRAW -->
<svg xmlns:inkscape="http://www.inkscape.org/namespaces/inkscape" xmlns:rdf="http://www.w3.org/1999/02/22-rdf-syntax-ns#" style="image-rendering:optimizeQuality;text-rendering:geometricPrecision;shape-rendering:geometricPrecision;" xmlns="http://www.w3.org/2000/svg" fill-rule="evenodd" sodipodi:docname="Catechin_structure.svg" xml:space="preserve" height="260px" width="490px" version="1.1" clip-rule="evenodd" xmlns:cc="http://creativecommons.org/ns#" xmlns:dc="http://purl.org/dc/elements/1.1/" inkscape:version="0.48.3.1 r9886" viewBox="0 0 1200 663.429" xmlns:sodipodi="http://sodipodi.sourceforge.net/DTD/sodipodi-0.dtd"><metadata><rdf:RDF><cc:Work rdf:about=""><dc:format>image/svg+xml</dc:format><dc:type rdf:resource="http://purl.org/dc/dcmitype/StillImage"/><dc:title/></cc:Work></rdf:RDF></metadata><sodipodi:namedview bordercolor="#666666" inkscape:pageshadow="2" guidetolerance="10" pagecolor="#ffffff" gridtolerance="10" inkscape:window-maximized="1" inkscape:zoom="0.79183673" objecttolerance="10" borderopacity="1" inkscape:current-layer="svg2" inkscape:cx="245" inkscape:cy="118.63402" inkscape:window-y="29" inkscape:window-x="0" inkscape:window-width="1280" showgrid="false" inkscape:pageopacity="0" inkscape:window-height="975"/>
 <defs>
  <style type="text/css">
    .str0 {stroke:black;stroke-width:0.933061}
    .fil0 {fill:none}
    .fil1 {fill:black}
    .fil2 {fill:black;fill-rule:nonzero}
  </style>
   <clipPath id="id0">
    <rect y="-4.32" x="-4.32" height="672.07" width="1208.6"/>
   </clipPath>
 </defs>
  <g style="clip-path:url(#id0);" clip-path="url(#id0)">
   <line y2="299.06" x2="207.25" y1="427.08" x1="207.25" class="fil0 str0"/>
   <polygon points="210.88,426.04,203.63,430.19,203.63,300.62,207.25,298.54,210.88,300.62" class="fil1"/>
   <line y2="428.64" class="fil0 str0" x2="208.29" y1="491.87" x1="318.65"/>
   <polygon points="319.69,488.76,319.69,492.91,316.06,494.98,203.63,430.19,210.88,426.04" class="fil1"/>
   <line y2="415.16" class="fil0 str0" x2="231.61" y1="464.92" x1="318.65"/>
   <polygon points="321.24,462.84,317.62,469.06,229.02,417.75,232.64,411.53" class="fil1"/>
   <line y2="491.87" class="fil0 str0" x2="320.21" y1="428.64" x1="431.09"/>
   <polygon points="427.98,426.04,431.61,428.12,431.61,432.27,323.32,494.98,319.69,492.91,319.69,488.76" class="fil1"/>
   <line y2="427.08" class="fil0 str0" x2="431.61" y1="299.06" x1="431.61"/>
   <polygon points="427.98,300.62,431.61,298.54,435.23,300.62,435.23,426.04,431.61,428.12,427.98,426.04" class="fil1"/>
   <line y2="413.61" class="fil0 str0" x2="408.29" y1="312.54" x1="408.29"/>
   <polygon points="404.66,312.02,411.92,312.02,411.92,414.64,404.66,414.64" class="fil1"/>
   <line y2="297.51" class="fil0 str0" x2="431.09" y1="234.27" x1="320.21"/>
   <polygon points="319.69,237.9,319.69,229.61,431.61,294.4,431.61,298.54,427.98,300.62" class="fil1"/>
   <line y2="234.27" class="fil0 str0" x2="318.65" y1="297.51" x1="208.29"/>
   <polygon points="210.88,300.62,207.25,298.54,207.25,294.4,319.69,229.61,319.69,237.9" class="fil1"/>
   <line y2="261.22" class="fil0 str0" x2="318.65" y1="310.98" x1="231.61"/>
   <polygon points="232.64,315.13,229.02,308.91,317.62,257.6,321.24,263.82" class="fil1"/>
   <path d="M517.23,237.23c0-9.2388,2.4747-16.468,7.4376-21.691,4.9629-5.2212,11.363-7.8392,19.216-7.8392,5.1306,0,9.7702,1.2306,13.891,3.6796,4.1204,2.4624,7.2686,5.8837,9.4335,10.276,2.1637,4.38,3.2388,9.3686,3.2388,14.926,0,5.6498-1.1278,10.703-3.4078,15.148-2.28,4.4571-5.5065,7.8257-9.6796,10.119-4.1853,2.2935-8.6816,3.4335-13.515,3.4335-5.2482,0-9.9257-1.2563-14.046-3.7959-4.1326-2.5274-7.2563-5.9865-9.3808-10.366-2.1245-4.3665-3.1874-9.0049-3.1874-13.891zm7.5931,0.11755c0,6.7114,1.8012,11.985,5.4037,15.846,3.6147,3.862,8.1367,5.7931,13.578,5.7931,5.5469,0,10.107-1.9445,13.684-5.8445,3.5767-3.9,5.378-9.4335,5.378-16.598,0-4.5233-0.77755-8.4747-2.3069-11.857-1.5294-3.382-3.7702-5.9988-6.7114-7.8649-2.9547-1.8526-6.2596-2.7857-9.9257-2.7857-5.2224,0-9.7053,1.7878-13.463,5.3767-3.758,3.5767-5.6363,9.5633-5.6363,17.934z" class="fil2"/>
   <line y2="428.64" class="fil0 str0" x2="432.64" y1="491.87" x1="543"/>
   <polygon points="544.04,488.76,544.04,497.05,431.61,432.27,431.61,428.12,435.23,426.04" class="fil1"/>
   <line y2="491.87" class="fil0 str0" x2="544.56" y1="428.64" x1="655.44"/>
   <polygon points="652.33,426.04,655.96,428.12,655.96,432.27,544.04,497.05,544.04,488.76" class="fil1"/>
   <line y2="427.08" class="fil0 str0" x2="655.96" y1="299.06" x1="655.96"/>
   <polygon points="652.33,300.62,659.58,296.47,659.58,425.53,655.96,428.12,652.33,426.04" class="fil1"/>
   <line y2="297.51" class="fil0 str0" x2="655.44" y1="253.45" x1="577.2"/>
   <polygon points="574.61,255.52,578.24,249.3,659.58,296.47,652.33,300.62" class="fil1"/>
   <line y2="253.45" class="fil0 str0" x2="510.36" y1="297.51" x1="432.64"/>
   <polygon points="435.23,300.62,431.61,298.54,431.61,294.4,509.33,249.3,512.95,256.04" class="fil1"/>
   <polygon points="15.027,264.33,15.027,208.68,22.401,208.68,22.401,231.54,51.322,231.54,51.322,208.68,58.695,208.68,58.695,264.33,51.322,264.33,51.322,238.11,22.401,238.11,22.401,264.33" class="fil2"/>
   <path d="M69.043,237.23c0-9.2388,2.4747-16.468,7.4376-21.691,4.9629-5.2212,11.363-7.8392,19.216-7.8392,5.1306,0,9.7702,1.2306,13.891,3.6796,4.1204,2.4624,7.2686,5.8837,9.4335,10.276,2.1637,4.38,3.2388,9.3686,3.2388,14.926,0,5.6498-1.1278,10.703-3.4078,15.148-2.28,4.4571-5.5065,7.8257-9.6796,10.119-4.1853,2.2935-8.6816,3.4335-13.515,3.4335-5.2482,0-9.9257-1.2563-14.046-3.7959-4.1326-2.5274-7.2563-5.9865-9.3808-10.366-2.1245-4.3665-3.1874-9.0049-3.1874-13.891zm7.5931,0.11755c0,6.7114,1.8012,11.985,5.4037,15.846,3.6147,3.862,8.1367,5.7931,13.578,5.7931,5.5469,0,10.107-1.9445,13.684-5.8445,3.5767-3.9,5.378-9.4335,5.378-16.598,0-4.5233-0.77755-8.4747-2.3069-11.857-1.5294-3.382-3.7702-5.9988-6.7114-7.8649-2.9547-1.8526-6.2596-2.7857-9.9257-2.7857-5.2224,0-9.7053,1.7878-13.463,5.3767-3.758,3.5767-5.6363,9.5633-5.6363,17.934z" class="fil2"/>
   <line y2="297.51" class="fil0 str0" x2="206.74" y1="253.45" x1="129.02"/>
   <polygon points="126.42,256.04,130.05,249.3,207.25,294.4,207.25,298.54,203.63,300.62" class="fil1"/>
   <path d="M292.88,625.95c0-9.2388,2.4747-16.468,7.4376-21.691,4.9629-5.2212,11.363-7.8392,19.216-7.8392,5.1306,0,9.7702,1.2306,13.891,3.6796,4.1204,2.4624,7.2686,5.8837,9.4335,10.276,2.1637,4.38,3.2388,9.3686,3.2388,14.926,0,5.6498-1.1278,10.703-3.4078,15.148-2.28,4.4571-5.5065,7.8257-9.6796,10.119-4.1853,2.2935-8.6816,3.4335-13.515,3.4335-5.2482,0-9.9257-1.2563-14.046-3.7959-4.1326-2.5274-7.2563-5.9865-9.3808-10.366-2.1245-4.3665-3.1874-9.0049-3.1874-13.891zm7.5931,0.11755c0,6.7114,1.8012,11.985,5.4037,15.846,3.6147,3.862,8.1367,5.7931,13.578,5.7931,5.5469,0,10.107-1.9445,13.684-5.8445,3.5767-3.9,5.378-9.4335,5.378-16.598,0-4.5233-0.77755-8.4747-2.3069-11.857-1.5294-3.382-3.7702-5.9988-6.7114-7.8649-2.9547-1.8526-6.2596-2.7857-9.9257-2.7857-5.2224,0-9.7053,1.7878-13.463,5.3767-3.758,3.5767-5.6363,9.5633-5.6363,17.934z" class="fil2"/>
   <polygon points="355.96,653.06,355.96,597.41,363.33,597.41,363.33,620.27,392.26,620.27,392.26,597.41,399.63,597.41,399.63,653.06,392.26,653.06,392.26,626.84,363.33,626.84,363.33,653.06" class="fil2"/>
   <line y2="493.42" class="fil0 str0" x2="319.69" y1="587.24" x1="319.69"/>
   <polygon points="323.32,587.76,316.06,587.76,316.06,494.98,319.69,492.91,323.32,494.98" class="fil1"/>
   <line y2="232.72" class="fil0 str0" x2="746.63" y1="252.93" x1="758.03"/>
   <polygon points="749.22,229.61,762.18,252.41,755.44,255.52,743.01,234.27" class="fil1"/>
   <line y2="241.53" class="fil0 str0" x2="734.2" y1="259.67" x1="743.52"/>
   <polygon points="736.27,238.94,747.67,258.63,741.45,261.74,730.57,243.08" class="fil1"/>
   <line y2="250.86" class="fil0 str0" x2="721.24" y1="265.89" x1="729.53"/>
   <polygon points="723.83,247.75,733.68,265.37,726.94,268.48,717.62,251.9" class="fil1"/>
   <line y2="259.67" class="fil0 str0" x2="708.81" y1="272.63" x1="715.54"/>
   <polygon points="710.88,256.56,719.69,271.59,712.95,274.7,705.18,261.22" class="fil1"/>
   <line y2="268.48" class="fil0 str0" x2="696.37" y1="278.85" x1="701.55"/>
   <polygon points="698.44,265.89,705.7,278.33,698.96,281.44,692.23,270.04" class="fil1"/>
   <line y2="277.81" class="fil0 str0" x2="683.42" y1="285.58" x1="687.56"/>
   <polygon points="685.49,274.7,691.71,284.55,684.98,287.66,679.79,278.85" class="fil1"/>
   <line y2="286.62" class="fil0 str0" x2="670.98" y1="291.8" x1="673.06"/>
   <polygon points="673.06,283.51,677.2,291.29,670.47,294.4,666.84,288.18" class="fil1"/>
   <path d="M741.58,496.38c0-9.2388,2.4747-16.468,7.4376-21.691,4.9629-5.2212,11.363-7.8392,19.216-7.8392,5.1306,0,9.7702,1.2306,13.891,3.6796,4.1204,2.4624,7.2686,5.8837,9.4335,10.276,2.1637,4.38,3.2388,9.3686,3.2388,14.926,0,5.6498-1.1278,10.703-3.4078,15.148-2.28,4.4571-5.5065,7.8257-9.6796,10.119-4.1853,2.2935-8.6816,3.4335-13.515,3.4335-5.2482,0-9.9257-1.2563-14.046-3.7959-4.1326-2.5274-7.2563-5.9865-9.3808-10.366-2.1245-4.3665-3.1874-9.0049-3.1874-13.891zm7.5931,0.11755c0,6.7114,1.8012,11.985,5.4037,15.846,3.6147,3.862,8.1367,5.7931,13.578,5.7931,5.5469,0,10.107-1.9445,13.684-5.8445,3.5767-3.9,5.378-9.4335,5.378-16.598,0-4.5233-0.77755-8.4747-2.3069-11.857-1.5294-3.382-3.7702-5.9988-6.7114-7.8649-2.9547-1.8526-6.2596-2.7857-9.9257-2.7857-5.2224,0-9.7053,1.7878-13.463,5.3767-3.758,3.5767-5.6363,9.5633-5.6363,17.934z" class="fil2"/>
   <polygon points="804.66,523.49,804.66,467.83,812.04,467.83,812.04,490.69,840.96,490.69,840.96,467.83,848.33,467.83,848.33,523.49,840.96,523.49,840.96,497.26,812.04,497.26,812.04,523.49" class="fil2"/>
   <line y2="428.64" class="fil0 str0" x2="657" y1="474.25" x1="736.79"/>
   <polygon points="744.04,463.88,731.09,486.17,655.96,432.27,655.96,428.12,659.58,425.53" class="fil1"/>
   <line y2="234.27" class="fil0 str0" x2="768.91" y1="297.51" x1="879.79"/>
   <polygon points="880.31,294.4,880.31,302.69,764.77,235.83,772.02,231.68" class="fil1"/>
   <line y2="220.8" class="fil0 str0" x2="792.23" y1="270.56" x1="879.79"/>
   <polygon points="882.38,268.48,878.76,274.7,789.64,223.39,793.26,217.17" class="fil1"/>
   <line y2="297.51" class="fil0 str0" x2="881.35" y1="234.27" x1="991.71"/>
   <polygon points="989.12,231.68,992.75,233.76,992.75,237.9,880.31,302.69,880.31,294.4" class="fil1"/>
   <line y2="232.72" class="fil0 str0" x2="992.75" y1="104.7" x1="992.75"/>
   <polygon points="989.12,106.25,992.75,104.18,996.37,106.25,996.37,231.68,992.75,233.76,989.12,231.68" class="fil1"/>
   <line y2="219.24" class="fil0 str0" x2="969.43" y1="118.17" x1="969.43"/>
   <polygon points="965.8,117.66,973.06,117.66,973.06,220.28,965.8,220.28" class="fil1"/>
   <line y2="103.14" class="fil0 str0" x2="991.71" y1="39.91" x1="881.35"/>
   <polygon points="880.31,43.538,880.31,35.244,992.75,100.03,992.75,104.18,989.12,106.25" class="fil1"/>
   <line y2="39.91" class="fil0 str0" x2="879.79" y1="103.14" x1="768.91"/>
   <polygon points="772.02,106.25,764.77,102.1,880.31,35.244,880.31,43.538" class="fil1"/>
   <line y2="66.861" class="fil0 str0" x2="879.79" y1="116.62" x1="792.23"/>
   <polygon points="793.26,120.76,789.64,114.54,878.76,63.233,882.38,69.453" class="fil1"/>
   <line y2="104.7" class="fil0 str0" x2="768.39" y1="232.72" x1="768.39"/>
   <polygon points="772.02,231.68,764.77,235.83,764.77,102.1,772.02,106.25" class="fil1"/>
   <path d="M1078.4,42.863c0-9.2388,2.4747-16.468,7.4376-21.691,4.9629-5.2212,11.363-7.8392,19.216-7.8392,5.1306,0,9.7702,1.2306,13.891,3.6796,4.1204,2.4624,7.2686,5.8837,9.4335,10.276,2.1637,4.38,3.2388,9.3686,3.2388,14.926,0,5.6498-1.1278,10.703-3.4078,15.148-2.28,4.4571-5.5065,7.8257-9.6796,10.119-4.1853,2.2935-8.6816,3.4335-13.515,3.4335-5.2482,0-9.9257-1.2563-14.046-3.7959-4.1326-2.5274-7.2563-5.9865-9.3808-10.366-2.1245-4.3665-3.1874-9.0049-3.1874-13.891zm7.5931,0.11755c0,6.7114,1.8012,11.985,5.4037,15.846,3.6147,3.862,8.1367,5.7931,13.578,5.7931,5.5469,0,10.107-1.9445,13.684-5.8445,3.5767-3.9,5.378-9.4335,5.378-16.598,0-4.5233-0.77755-8.4747-2.3069-11.857-1.5294-3.382-3.7702-5.9988-6.7114-7.8649-2.9547-1.8526-6.2596-2.7857-9.9257-2.7857-5.2224,0-9.7053,1.7878-13.463,5.3767-3.758,3.5767-5.6363,9.5633-5.6363,17.934z" class="fil2"/>
   <polygon points="1140.9,69.971,1140.9,14.318,1148.3,14.318,1148.3,37.176,1177.2,37.176,1177.2,14.318,1184.6,14.318,1184.6,69.971,1177.2,69.971,1177.2,43.745,1148.3,43.745,1148.3,69.971" class="fil2"/>
   <line y2="103.14" class="fil0 str0" x2="993.26" y1="59.086" x1="1071"/>
   <polygon points="1070,54.94,1073.6,61.678,996.37,106.25,992.75,104.18,992.75,100.03" class="fil1"/>
   <path d="M1078.4,302.02c0-9.2388,2.4747-16.468,7.4376-21.691,4.9629-5.2212,11.363-7.8392,19.216-7.8392,5.1306,0,9.7702,1.2306,13.891,3.6796,4.1204,2.4624,7.2686,5.8837,9.4335,10.276,2.1637,4.38,3.2388,9.3686,3.2388,14.926,0,5.6498-1.1278,10.703-3.4078,15.148-2.28,4.4571-5.5065,7.8257-9.6796,10.119-4.1853,2.2935-8.6816,3.4335-13.515,3.4335-5.2482,0-9.9257-1.2563-14.046-3.7959-4.1326-2.5274-7.2563-5.9865-9.3808-10.366-2.1245-4.3665-3.1874-9.0049-3.1874-13.891zm7.5931,0.11755c0,6.7114,1.8012,11.985,5.4037,15.846,3.6147,3.862,8.1367,5.7931,13.578,5.7931,5.5469,0,10.107-1.9445,13.684-5.8445,3.5767-3.9,5.378-9.4335,5.378-16.598,0-4.5233-0.77755-8.4747-2.3069-11.857-1.5294-3.382-3.7702-5.9988-6.7114-7.8649-2.9547-1.8526-6.2596-2.7857-9.9257-2.7857-5.2224,0-9.7053,1.7878-13.463,5.3767-3.758,3.5767-5.6363,9.5633-5.6363,17.934z" class="fil2"/>
   <polygon points="1140.9,329.12,1140.9,273.47,1148.3,273.47,1148.3,296.33,1177.2,296.33,1177.2,273.47,1184.6,273.47,1184.6,329.12,1177.2,329.12,1177.2,302.9,1148.3,302.9,1148.3,329.12" class="fil2"/>
   <line y2="234.27" class="fil0 str0" x2="993.26" y1="279.88" x1="1073.6"/>
   <polygon points="1076.2,277.81,1072.5,284.03,992.75,237.9,992.75,233.76,996.37,231.68" class="fil1"/>
  </g>
   <polygon points="0,0,1200,0,1200,663.43,0,663.43" class="fil0"/>
</svg>
