<?xml version="1.0" encoding="UTF-8" standalone="no"?>
<svg
   xmlns:dc="http://purl.org/dc/elements/1.1/"
   xmlns:cc="http://creativecommons.org/ns#"
   xmlns:rdf="http://www.w3.org/1999/02/22-rdf-syntax-ns#"
   xmlns:svg="http://www.w3.org/2000/svg"
   xmlns="http://www.w3.org/2000/svg"
   xmlns:sodipodi="http://sodipodi.sourceforge.net/DTD/sodipodi-0.dtd"
   xmlns:inkscape="http://www.inkscape.org/namespaces/inkscape"
   viewBox="187.02 66.56 71.01 55.63"
   preserveAspectRatio="xMidYMid"
   width="100%"
   height="100%"
   id="svg2"
   version="1.1"
   inkscape:version="0.48.1 "
   sodipodi:docname="chamazulene.svg">
  <metadata
     id="metadata84">
    <rdf:RDF>
      <cc:Work
         rdf:about="">
        <dc:format>image/svg+xml</dc:format>
        <dc:type
           rdf:resource="http://purl.org/dc/dcmitype/StillImage" />
      </cc:Work>
    </rdf:RDF>
  </metadata>
  <defs
     id="defs82" />
  <sodipodi:namedview
     pagecolor="#ffffff"
     bordercolor="#666666"
     borderopacity="1"
     objecttolerance="10"
     gridtolerance="10"
     guidetolerance="10"
     inkscape:pageopacity="0"
     inkscape:pageshadow="2"
     inkscape:window-width="640"
     inkscape:window-height="480"
     id="namedview80"
     showgrid="false"
     inkscape:zoom="4.6377854"
     inkscape:cx="35.505"
     inkscape:cy="27.815"
     inkscape:window-x="0"
     inkscape:window-y="0"
     inkscape:window-maximized="0"
     inkscape:current-layer="svg2" />
  <clipPath
     id="47">
    <rect
       x="0.3"
       y="0.3"
       width="539.4"
       height="719.15"
       id="rect5" />
  </clipPath>
  <g
     id="drawing"
     transform="matrix(0.96963525,0,0,0.96963525,6.7569171,2.8656737)">
    <path
       style="fill:#ffffff;fill-opacity:0"
       d="m 187.02,66.559998 71.01001,0 0,55.630002 -71.01001,0 z"
       id="rect8"
       inkscape:connector-curvature="0" />
    <g
       id="page"
       clip-path="url(#47)">
      <g
         id="Solid">
        <path
           d="m 235.2,84.89 0,0 0.3,-0.14 0.3,0.22 0,13.96 -0.3,0.22 -0.3,-0.14 z"
           shape-rendering="geometricPrecision"
           id="path12"
           inkscape:connector-curvature="0"
           style="fill:#000000;fill-rule:evenodd;stroke:#000000;stroke-width:0;stroke-linejoin:miter" />
      </g>
      <g
         id="g14">
        <path
           d="m 235.56,99.49 0,0 -0.06,-0.34 0.3,-0.22 13.29,4.32 0.11,0.35 0.11,0.35 z"
           shape-rendering="geometricPrecision"
           id="path16"
           inkscape:connector-curvature="0"
           style="fill:#000000;fill-rule:evenodd;stroke:#000000;stroke-width:0;stroke-linejoin:miter" />
      </g>
      <g
         id="g18">
        <path
           d="m 249.31,103.95 0,0 -0.11,-0.35 -0.11,-0.35 8.2,-11.3 0.37,0 0.37,0 z"
           shape-rendering="geometricPrecision"
           id="path20"
           inkscape:connector-curvature="0"
           style="fill:#000000;fill-rule:evenodd;stroke:#000000;stroke-width:0;stroke-linejoin:miter" />
        <path
           style="stroke:#000000;stroke-width:0.60000002"
           d="m 248.21001,100.55 6.25,-8.600003"
           id="line22"
           inkscape:connector-curvature="0" />
      </g>
      <g
         id="g24">
        <path
           d="m 258.03,91.95 0,0 -0.37,0 -0.37,0 -8.2,-11.3 0.11,-0.35 0.33,-0.05 z"
           shape-rendering="geometricPrecision"
           id="path26"
           inkscape:connector-curvature="0"
           style="fill:#000000;fill-rule:evenodd;stroke:#000000;stroke-width:0;stroke-linejoin:miter" />
      </g>
      <g
         id="g28">
        <path
           d="m 248.96,80.06 0,0 0.24,0.24 -0.11,0.35 -13.29,4.32 -0.3,-0.22 0.06,-0.34 z"
           shape-rendering="geometricPrecision"
           id="path30"
           inkscape:connector-curvature="0"
           style="fill:#000000;fill-rule:evenodd;stroke:#000000;stroke-width:0;stroke-linejoin:miter" />
        <path
           style="stroke:#000000;stroke-width:0.60000002"
           d="M 248.21001,83.349998 238.09,86.629997"
           id="line32"
           inkscape:connector-curvature="0" />
      </g>
      <g
         id="g34">
        <path
           d="m 235.56,84.41 0,0 -0.06,0.34 -0.3,0.14 -11.03,-8.8 0.07,-0.32 0.07,-0.32 z"
           shape-rendering="geometricPrecision"
           id="path36"
           inkscape:connector-curvature="0"
           style="fill:#000000;fill-rule:evenodd;stroke:#000000;stroke-width:0;stroke-linejoin:miter" />
      </g>
      <g
         id="g38">
        <path
           d="m 224.31,75.45 0,0 -0.07,0.32 -0.07,0.32 -13.76,3.15 -0.21,-0.26 0.12,-0.33 z"
           shape-rendering="geometricPrecision"
           id="path40"
           inkscape:connector-curvature="0"
           style="fill:#000000;fill-rule:evenodd;stroke:#000000;stroke-width:0;stroke-linejoin:miter" />
        <path
           style="stroke:#000000;stroke-width:0.60000002"
           d="m 223.60001,78.580002 -11.61,2.650001"
           id="line42"
           inkscape:connector-curvature="0" />
      </g>
      <g
         id="g44">
        <path
           d="m 209.85,79.02 0,0 0.35,-0.04 0.21,0.26 -6.13,12.71 -0.33,0 -0.33,0 z"
           shape-rendering="geometricPrecision"
           id="path46"
           inkscape:connector-curvature="0"
           style="fill:#000000;fill-rule:evenodd;stroke:#000000;stroke-width:0;stroke-linejoin:miter" />
      </g>
      <g
         id="g48">
        <path
           d="m 203.62,91.95 0,0 0.33,0 0.33,0 6.13,12.71 -0.21,0.26 -0.21,0.26 z"
           shape-rendering="geometricPrecision"
           id="path50"
           inkscape:connector-curvature="0"
           style="fill:#000000;fill-rule:evenodd;stroke:#000000;stroke-width:0;stroke-linejoin:miter" />
        <path
           style="stroke:#000000;stroke-width:0.60000002"
           d="M 206.83,91.949997 211.99001,102.67"
           id="line52"
           inkscape:connector-curvature="0" />
      </g>
      <g
         id="g54">
        <path
           d="m 209.99,105.18 0,0 0.21,-0.26 0.21,-0.26 13.76,3.15 0.07,0.32 -0.25,0.25 z"
           shape-rendering="geometricPrecision"
           id="path56"
           inkscape:connector-curvature="0"
           style="fill:#000000;fill-rule:evenodd;stroke:#000000;stroke-width:0;stroke-linejoin:miter" />
      </g>
      <g
         id="g58">
        <path
           d="m 224.57,108.25 0,0 -0.33,-0.12 -0.07,-0.32 11.03,-8.8 0.3,0.14 0.06,0.34 z"
           shape-rendering="geometricPrecision"
           id="path60"
           inkscape:connector-curvature="0"
           style="fill:#000000;fill-rule:evenodd;stroke:#000000;stroke-width:0;stroke-linejoin:miter" />
        <path
           style="stroke:#000000;stroke-width:0.60000002"
           d="M 223.60001,105.32 232.91,97.900002"
           id="line62"
           inkscape:connector-curvature="0" />
      </g>
      <g
         id="g64">
        <path
           d="m 210.32,78.65 0,0 -0.12,0.33 -0.35,0.04 -8.72,-10.94 0.13,-0.32 0.13,-0.32 z"
           shape-rendering="geometricPrecision"
           id="path66"
           inkscape:connector-curvature="0"
           style="fill:#000000;fill-rule:evenodd;stroke:#000000;stroke-width:0;stroke-linejoin:miter" />
      </g>
      <g
         id="g68">
        <path
           d="m 201.39,67.44 0,0 -0.13,0.32 -0.13,0.32 -14.02,2.12 -0.04,-0.3 -0.04,-0.3 z"
           shape-rendering="geometricPrecision"
           id="path70"
           inkscape:connector-curvature="0"
           style="fill:#000000;fill-rule:evenodd;stroke:#000000;stroke-width:0;stroke-linejoin:miter" />
      </g>
      <g
         id="g72">
        <path
           d="m 249.53,80.25 0,0 -0.33,0.05 -0.24,-0.24 4.38,-13.5 0.29,0.09 0.29,0.09 z"
           shape-rendering="geometricPrecision"
           id="path74"
           inkscape:connector-curvature="0"
           style="fill:#000000;fill-rule:evenodd;stroke:#000000;stroke-width:0;stroke-linejoin:miter" />
      </g>
      <g
         id="g76">
        <path
           d="m 223.99,108.38 0,0 0.25,-0.25 0.33,0.12 3.15,13.8 -0.29,0.07 -0.29,0.07 z"
           shape-rendering="geometricPrecision"
           id="path78"
           inkscape:connector-curvature="0"
           style="fill:#000000;fill-rule:evenodd;stroke:#000000;stroke-width:0;stroke-linejoin:miter" />
      </g>
    </g>
  </g>
</svg>
