<?xml version="1.0" encoding="UTF-8" standalone="no"?>
<!-- Created with Inkscape (http://www.inkscape.org/) -->
<svg
   xmlns:svg="http://www.w3.org/2000/svg"
   xmlns="http://www.w3.org/2000/svg"
   version="1.0"
   width="429.17001"
   height="300"
   id="svg2">
  <defs
     id="defs4" />
  <g
     transform="translate(-196.48763,-412.88513)"
     id="layer1">
    <path
       d="M 358.11421,702.48984 C 355.7262,701.70914 353.67817,699.87785 352.49223,697.46282 C 351.56462,695.57384 351.44101,694.90315 351.44101,691.75922 C 351.44101,688.6121 351.56414,687.94556 352.49621,686.04749 C 354.75304,681.45163 359.43547,679.521 364.59316,681.05976 C 368.56738,682.24544 371.01542,685.71976 371.39283,690.71 C 371.91605,697.62827 368.17915,702.49056 362.05315,702.86233 C 360.66758,702.94642 359.04001,702.79251 358.11421,702.48984 z M 365.40556,699.02493 C 367.21965,697.57883 368.15283,695.67126 368.40464,692.89435 C 368.79067,688.63701 367.20619,685.19959 364.23597,683.85075 C 360.35878,682.09006 356.02061,684.07073 354.80756,688.15548 C 352.8094,694.88404 356.15175,700.64768 361.84266,700.28695 C 363.54607,700.17898 364.2871,699.91649 365.40556,699.02493 z M 371.28654,681.52604 C 370.5355,681.08843 370.86313,680.45137 379.62177,665.31878 C 384.63612,656.65531 388.74302,649.44045 388.74821,649.28574 C 388.7534,649.13103 388.09916,649.00447 387.29432,649.00447 C 386.0591,649.00447 385.71356,648.81902 385.07778,647.81485 L 384.32457,646.62524 L 383.63454,647.76628 C 383.25502,648.39386 379.14721,655.50592 374.50607,663.57087 C 369.86493,671.63581 365.89887,678.23428 365.69259,678.23413 C 365.48632,678.23398 365.04403,678.02562 364.70974,677.77111 C 364.17173,677.36151 365.19373,675.41627 373.6073,660.83578 L 383.11269,644.36322 L 382.00936,642.46462 C 381.40255,641.42039 376.4704,632.85182 371.04907,623.42335 L 361.19209,606.28067 L 336.28239,606.17143 L 311.3727,606.06219 L 298.97742,584.59106 L 286.58214,563.11991 L 268.66223,563.11991 L 250.74232,563.11991 L 250.74232,562.18231 L 250.74232,561.24471 L 268.65663,561.24471 L 286.57094,561.24471 L 298.68279,540.26789 C 310.67521,519.4979 310.78915,519.28064 310.2383,518.23418 C 309.93232,517.65291 306.12623,511.02239 301.78032,503.49973 C 294.01717,490.06186 293.89341,489.81413 294.71924,489.36564 C 295.36745,489.0136 295.65371,489.01099 295.97021,489.3542 C 296.19593,489.59898 300.0497,496.17029 304.53413,503.95709 L 312.68763,518.11492 L 336.93986,518.09997 L 361.19209,518.08502 L 369.57012,503.47799 C 377.55471,489.5569 377.9862,488.89074 378.75864,489.29215 C 379.20441,489.52381 379.6262,489.76163 379.69596,489.82063 C 379.76572,489.87963 376.01585,496.51644 371.36292,504.56908 L 362.90304,519.21026 L 374.9865,540.21025 L 387.06997,561.21022 L 411.26016,561.2221 L 435.45035,561.23398 L 447.56821,540.2247 L 459.68606,519.21542 L 447.5753,498.2254 L 435.46453,477.23537 L 417.36168,477.23537 L 399.25883,477.23537 L 399.25883,476.11024 L 399.25883,474.98512 L 415.29186,474.9803 L 431.32489,474.97548 L 440.08295,459.79111 C 444.89988,451.4397 448.96028,444.60674 449.10603,444.60674 C 449.25179,444.60674 449.67891,444.83186 450.0552,445.10701 C 450.69226,445.57284 450.15842,446.61167 442.29792,460.20244 L 433.8565,474.7976 L 435.26102,474.91054 C 436.42502,475.00415 436.78483,475.24499 437.36212,476.31695 C 437.74524,477.02835 438.14689,477.60528 438.25469,477.599 C 438.36248,477.59273 442.2325,471.01075 446.85474,462.97238 C 451.47697,454.934 455.3686,448.35716 455.50278,448.35716 C 455.63696,448.35716 456.06031,448.58643 456.44353,448.86665 C 457.0974,449.34478 456.59661,450.31785 448.30965,464.67127 L 439.47899,479.96639 L 444.26698,488.2582 C 446.90037,492.8187 451.83231,501.35992 455.22682,507.23871 L 461.39866,517.92739 L 486.30372,518.0375 L 511.20877,518.1476 L 523.58514,539.68701 L 535.96152,561.22641 L 553.68224,561.23555 L 571.40296,561.24471 L 571.40296,562.18231 L 571.40296,563.11991 L 553.68224,563.12702 L 535.96152,563.13412 L 523.85594,584.12907 L 511.75037,605.12402 L 520.70937,620.59478 C 528.52832,634.09683 529.59434,636.12518 529.08661,636.53433 C 528.76663,636.79217 528.32054,637.00313 528.09528,637.00313 C 527.87,637.00313 523.71393,630.1258 518.85954,621.72018 L 510.03339,606.43723 L 485.70354,606.43723 L 461.37369,606.43723 L 454.22517,618.83451 C 442.14888,639.77771 443.63663,637.47599 442.61051,636.80364 L 441.7218,636.22135 L 450.70576,620.67508 L 459.6897,605.12882 L 447.57002,584.12778 L 435.45035,563.12672 L 411.26016,563.13809 L 387.06997,563.14945 L 374.98993,584.13518 L 362.90988,605.12092 L 374.98993,626.11339 L 387.06997,647.10584 L 404.79069,647.11756 L 422.51141,647.12926 L 422.51141,648.06686 L 422.51141,649.00447 L 406.99744,649.00447 L 391.48348,649.00447 L 381.96341,665.50515 C 376.72737,674.58052 372.35896,682.00038 372.25582,681.9937 C 372.15269,681.98702 371.7165,681.77657 371.28654,681.52604 z M 373.19343,583.11503 C 379.79416,571.64085 385.16374,562.15262 385.12582,562.03008 C 385.0879,561.90754 379.68729,552.4861 373.12448,541.09357 L 361.19209,520.37987 L 336.86183,520.46628 L 312.53157,520.55269 L 300.92199,540.61741 C 294.53671,551.65302 289.14121,561.03696 288.93199,561.47061 C 288.5589,562.24393 290.97039,566.57733 311.1902,601.46792 L 312.65728,603.99945 L 336.92469,603.98832 L 361.19209,603.97717 L 373.19343,583.11503 z M 316.37461,597.62375 L 316.37461,596.49862 L 336.81438,596.49862 L 357.25415,596.49862 L 357.25415,597.62375 L 357.25415,598.74888 L 336.81438,598.74888 L 316.37461,598.74888 L 316.37461,597.62375 z M 295.82548,562.10352 L 295.03349,561.43223 L 304.79348,544.55536 C 310.16148,535.27308 314.76258,527.28807 315.01815,526.81091 C 315.4756,525.95683 315.49624,525.95419 316.34489,526.64139 L 317.20695,527.33945 L 307.16692,544.76089 C 301.6449,554.34267 297.01227,562.31563 296.87217,562.47856 C 296.7321,562.6415 296.26108,562.47273 295.82548,562.10352 z M 367.93662,547.0739 C 362.98949,538.50757 358.39419,530.53147 357.72485,529.34923 L 356.50785,527.1997 L 357.39144,526.62075 L 358.27504,526.0418 L 368.35953,543.50339 C 373.90599,553.10727 378.49278,561.16661 378.55239,561.41302 C 378.612,561.65945 378.27167,562.03835 377.79609,562.25504 C 376.9614,562.63535 376.61924,562.1085 367.93662,547.0739 z M 511.99205,600.43657 C 513.06384,598.58011 518.4798,589.20763 524.02753,579.60885 L 534.11432,562.15649 L 522.08424,541.35459 L 510.05415,520.55269 L 485.70344,520.55269 L 461.35273,520.55269 L 449.42673,541.17998 C 442.86742,552.52499 437.56131,562.06042 437.63536,562.36983 C 437.74696,562.83619 459.30671,600.46957 461.00263,603.15835 L 461.53662,604.00493 L 485.78999,603.90843 L 510.04337,603.81194 L 511.99205,600.43657 z M 454.04792,580.50039 C 448.40768,570.71881 443.8567,562.66074 443.93463,562.59357 C 444.01255,562.5264 444.42613,562.28987 444.85371,562.06796 C 445.58261,561.68964 446.2612,562.75396 455.72992,579.12674 C 461.28426,588.73099 465.87715,596.71396 465.93634,596.86665 C 465.99552,597.01936 465.65221,597.40097 465.17342,597.71469 L 464.3029,598.28508 L 454.04792,580.50039 z M 506.21227,597.67396 L 505.36918,597.03803 L 515.5752,579.36731 C 525.52166,562.14596 525.80371,561.70684 526.66663,562.10001 C 527.24999,562.36579 527.47524,562.70456 527.32689,563.09296 C 527.13945,563.58367 509.56799,594.15506 507.65974,597.3105 C 507.07694,598.27421 507.02525,598.28719 506.21227,597.67396 z M 465.26616,526.74088 L 465.26616,525.61575 L 485.70593,525.61575 L 506.1457,525.61575 L 506.1457,526.74088 L 506.1457,527.866 L 485.70593,527.866 L 465.26616,527.866 L 465.26616,526.74088 z M 432.37246,659.73509 C 429.98446,658.95439 427.93642,657.1231 426.75049,654.70807 C 425.82288,652.81909 425.69927,652.14839 425.69927,649.00447 C 425.69927,645.85735 425.8224,645.19081 426.75446,643.29273 C 429.01131,638.69687 433.69373,636.76625 438.85141,638.30501 C 442.82562,639.49068 445.27367,642.965 445.65109,647.95525 C 446.17432,654.87352 442.4374,659.73581 436.3114,660.10758 C 434.92583,660.19167 433.29827,660.03775 432.37246,659.73509 z M 439.66381,656.27017 C 441.4779,654.82407 442.41108,652.9165 442.66289,650.1396 C 443.04893,645.88225 441.46444,642.44483 438.49422,641.096 C 434.61703,639.3353 430.27886,641.31598 429.06583,645.40073 C 427.06765,652.12929 430.41,657.89293 436.10091,657.5322 C 437.80432,657.42422 438.54535,657.16174 439.66381,656.27017 z M 531.75851,659.36004 C 529.37051,658.57936 527.32247,656.74805 526.13654,654.33302 C 525.20893,652.44405 525.08531,651.77335 525.08531,648.62942 C 525.08531,645.4823 525.20845,644.81576 526.14051,642.91769 C 528.39735,638.32183 533.07978,636.39121 538.23746,637.92996 C 542.21167,639.11564 544.65972,642.58996 545.03713,647.58021 C 545.56037,654.49848 541.82345,659.36076 535.69745,659.73254 C 534.31188,659.81663 532.68432,659.66271 531.75851,659.36004 z M 539.04986,655.89512 C 540.86395,654.44903 541.79713,652.54146 542.04894,649.76456 C 542.43497,645.50722 540.85048,642.0698 537.88026,640.72097 C 534.00307,638.96025 529.66491,640.94094 528.45187,645.02569 C 526.4537,651.75426 529.79605,657.51788 535.48696,657.15715 C 537.19038,657.04918 537.9314,656.7867 539.04986,655.89512 z M 548.90046,648.62942 L 548.90046,637.75321 L 550.40063,637.75321 L 551.90079,637.75321 L 551.90079,642.25372 L 551.90079,646.75421 L 557.52642,646.75421 L 563.15205,646.75421 L 563.15205,642.25372 L 563.15205,637.75321 L 564.65221,637.75321 L 566.15238,637.75321 L 566.15238,648.62942 L 566.15238,659.50563 L 564.65221,659.50563 L 563.15205,659.50563 L 563.15205,654.44257 L 563.15205,649.37951 L 557.52642,649.37951 L 551.90079,649.37951 L 551.90079,654.44257 L 551.90079,659.50563 L 550.40063,659.50563 L 548.90046,659.50563 L 548.90046,648.62942 z M 234.35046,573.4755 C 231.96245,572.6948 229.91442,570.86351 228.72847,568.44848 C 227.80086,566.55949 227.67725,565.88882 227.67725,562.74488 C 227.67725,559.59775 227.80038,558.93122 228.73245,557.03314 C 230.98928,552.43729 235.67171,550.50667 240.8294,552.04542 C 244.80362,553.23109 247.25166,556.70541 247.62907,561.69567 C 248.1523,568.61393 244.41539,573.47622 238.28939,573.84799 C 236.90382,573.93207 235.27625,573.77817 234.35046,573.4755 z M 241.6418,570.01058 C 243.45588,568.56449 244.38907,566.65692 244.64088,563.88 C 245.02692,559.62267 243.44243,556.18525 240.47221,554.83641 C 236.59502,553.07571 232.25686,555.05639 231.0438,559.14114 C 229.04564,565.86971 232.38799,571.63334 238.0789,571.27261 C 239.78231,571.16463 240.52334,570.90215 241.6418,570.01058 z M 581.264,573.4755 C 578.876,572.6948 576.82797,570.86351 575.64204,568.44848 C 574.71443,566.55949 574.59082,565.88882 574.59082,562.74488 C 574.59082,559.59775 574.71396,558.93122 575.64601,557.03314 C 577.90285,552.43729 582.58528,550.50667 587.74296,552.04542 C 591.71717,553.23109 594.16521,556.70541 594.54262,561.69567 C 595.06588,568.61393 591.32896,573.47622 585.20296,573.84799 C 583.81737,573.93207 582.18983,573.77817 581.264,573.4755 z M 588.55534,570.01058 C 590.36946,568.56449 591.30263,566.65692 591.55444,563.88 C 591.94046,559.62267 590.35599,556.18525 587.38577,554.83641 C 583.50859,553.07571 579.17041,555.05639 577.95738,559.14114 C 575.9592,565.86971 579.30156,571.63334 584.99244,571.27261 C 586.69588,571.16463 587.43689,570.90215 588.55534,570.01058 z M 206.48739,562.74488 L 206.48739,551.86867 L 207.98756,551.86867 L 209.48772,551.86867 L 209.48772,556.36916 L 209.48772,560.86967 L 215.11335,560.86967 L 220.73898,560.86967 L 220.73898,556.36916 L 220.73898,551.86867 L 222.23914,551.86867 L 223.73931,551.86867 L 223.73931,562.74488 L 223.73931,573.62109 L 222.23914,573.62109 L 220.73898,573.62109 L 220.73898,568.55802 L 220.73898,563.49496 L 215.11335,563.49496 L 209.48772,563.49496 L 209.48772,568.55802 L 209.48772,573.62109 L 207.98756,573.62109 L 206.48739,573.62109 L 206.48739,562.74488 z M 598.40596,562.74488 L 598.40596,551.86867 L 599.90613,551.86867 L 601.4063,551.86867 L 601.4063,556.36916 L 601.4063,560.86967 L 607.03192,560.86967 L 612.65754,560.86967 L 612.65754,556.36916 L 612.65754,551.86867 L 614.15772,551.86867 L 615.65788,551.86867 L 615.65788,562.74488 L 615.65788,573.62109 L 614.15772,573.62109 L 612.65754,573.62109 L 612.65754,568.55802 L 612.65754,563.49496 L 607.03192,563.49496 L 601.4063,563.49496 L 601.4063,568.55802 L 601.4063,573.62109 L 599.90613,573.62109 L 598.40596,573.62109 L 598.40596,562.74488 z M 283.85595,487.59096 C 281.46796,486.81026 279.41992,484.97897 278.23398,482.56393 C 277.30637,480.67496 277.18275,480.00426 277.18275,476.86032 C 277.18275,473.71321 277.30589,473.04668 278.23796,471.1486 C 280.49479,466.55274 285.17722,464.62211 290.33491,466.16087 C 294.30912,467.34654 296.75717,470.82087 297.13458,475.81112 C 297.65781,482.72938 293.92089,487.59166 287.79489,487.96345 C 286.40933,488.04754 284.78176,487.89362 283.85595,487.59096 z M 291.1473,484.12603 C 292.96139,482.67994 293.89458,480.77237 294.14637,477.99547 C 294.53243,473.73812 292.94793,470.3007 289.97771,468.95187 C 286.10053,467.19117 281.76236,469.17185 280.54931,473.25659 C 278.55114,479.98516 281.89349,485.74879 287.5844,485.38807 C 289.28781,485.28009 290.02884,485.01761 291.1473,484.12603 z M 382.86696,487.59096 C 380.47896,486.81026 378.43092,484.97897 377.24499,482.56393 C 376.31737,480.67496 376.19376,480.00426 376.19376,476.86032 C 376.19376,473.71321 376.3169,473.04668 377.24896,471.1486 C 379.5058,466.55274 384.18823,464.62211 389.34591,466.16087 C 393.32012,467.34654 395.76817,470.82087 396.14558,475.81112 C 396.66882,482.72938 392.9319,487.59166 386.8059,487.96345 C 385.42033,488.04754 383.79277,487.89362 382.86696,487.59096 z M 390.15831,484.12603 C 391.9724,482.67994 392.90558,480.77237 393.15739,477.99547 C 393.54342,473.73812 391.95893,470.3007 388.98871,468.95187 C 385.11152,467.19117 380.77336,469.17185 379.56032,473.25659 C 377.56215,479.98516 380.9045,485.74879 386.59541,485.38807 C 388.29883,485.28009 389.03985,485.01761 390.15831,484.12603 z M 255.9929,476.86032 L 255.9929,465.98411 L 257.49307,465.98411 L 258.99323,465.98411 L 258.99323,470.48462 L 258.99323,474.98512 L 264.61885,474.98512 L 270.24449,474.98512 L 270.24449,470.48462 L 270.24449,465.98411 L 271.74465,465.98411 L 273.24482,465.98411 L 273.24482,476.86032 L 273.24482,487.73653 L 271.74465,487.73653 L 270.24449,487.73653 L 270.24449,482.67348 L 270.24449,477.61042 L 264.61885,477.61042 L 258.99323,477.61042 L 258.99323,482.67348 L 258.99323,487.73653 L 257.49307,487.73653 L 255.9929,487.73653 L 255.9929,476.86032 z M 457.50025,444.83621 C 455.11225,444.05551 453.06422,442.22421 451.87828,439.80918 C 450.95067,437.9202 450.82706,437.24951 450.82706,434.10558 C 450.82706,430.95846 450.9502,430.29192 451.88226,428.39385 C 454.1391,423.79799 458.82152,421.86735 463.9792,423.40612 C 467.95342,424.5918 470.40147,428.06612 470.77888,433.05637 C 471.3021,439.97463 467.56519,444.83692 461.43919,445.20869 C 460.05362,445.29278 458.42606,445.13887 457.50025,444.83621 z M 464.7916,441.37129 C 466.6057,439.92519 467.53888,438.01762 467.79068,435.24071 C 468.17672,430.98337 466.59224,427.54594 463.62201,426.19712 C 459.74483,424.43642 455.40666,426.41709 454.19362,430.50185 C 452.19544,437.2304 455.53779,442.99404 461.2287,442.63332 C 462.93211,442.52533 463.67314,442.26286 464.7916,441.37129 z"
       id="path2462"
       style="fill:#000000" />
  </g>
</svg>
