<?xml version="1.0" encoding="UTF-8" standalone="no"?>
<!-- Created with Inkscape (http://www.inkscape.org/) -->

<svg
   xmlns:dc="http://purl.org/dc/elements/1.1/"
   xmlns:cc="http://creativecommons.org/ns#"
   xmlns:rdf="http://www.w3.org/1999/02/22-rdf-syntax-ns#"
   xmlns:svg="http://www.w3.org/2000/svg"
   xmlns="http://www.w3.org/2000/svg"
   version="1.1"
   width="540"
   height="480"
   viewBox="0 0 1200 1080.64"
   id="svg3176"
   xml:space="preserve"
   style="fill-rule:evenodd"><metadata
   id="metadata3327"><rdf:RDF><cc:Work
       rdf:about=""><dc:format>image/svg+xml</dc:format><dc:type
         rdf:resource="http://purl.org/dc/dcmitype/StillImage" /><dc:title></dc:title></cc:Work></rdf:RDF></metadata>
 <defs
   id="defs3178"><style
     type="text/css"
     id="style3180" /></defs>
 <g
   id="g3716"><path
     d="m 189.57401,509.03799 0,-117.07"
     id="line3189"
     style="fill:none;stroke:#000000;stroke-width:0.85322398" /><path
     d="m 192.891,393.39 0,114.699 -6.635,3.793 0,-118.492 3.318,-1.896 z"
     id="g0"
     style="fill:#000000" /><path
     d="M 291.46899,568.28302 190.521,510.45999"
     id="g1"
     style="fill:none;stroke:#000000;stroke-width:0.85322398" /><path
     d="m 192.891,508.089 99.526,57.35 0,3.792 -3.317,1.896 -102.844,-59.245 z"
     id="g2"
     style="fill:#000000" /><path
     d="M 291.46899,543.63702 211.84801,498.13599"
     id="g3"
     style="fill:none;stroke:#000000;stroke-width:0.85322398" /><path
     d="m 293.839,541.741 -3.317,5.687 -81.043,-46.922 3.317,-5.688 z"
     id="g4"
     style="fill:#000000" /><path
     d="m 394.31299,510.45999 -101.422,57.82303"
     id="g5"
     style="fill:none;stroke:#000000;stroke-width:0.85322398" /><path
     d="m 292.417,569.231 0,-3.792 99.053,-57.35 3.316,1.896 0,3.792 -99.051,57.35 z"
     id="g6"
     style="fill:#000000" /><path
     d="m 394.78601,391.96799 0,117.07"
     id="g7"
     style="fill:none;stroke:#000000;stroke-width:0.85322398" /><path
     d="m 394.786,509.985 -3.316,-1.896 0,-114.699 3.316,-1.896 3.318,1.896 0,114.699 z"
     id="g8"
     style="fill:#000000" /><path
     d="m 373.45999,404.29099 0,92.423"
     id="g9"
     style="fill:none;stroke:#000000;stroke-width:0.85322398" /><path
     d="m 370.142,403.818 6.635,0 0,93.844 -6.635,0 z"
     id="g10"
     style="fill:#000000" /><path
     d="m 292.89099,332.72299 101.422,57.82401"
     id="g11"
     style="fill:none;stroke:#000000;stroke-width:0.85322398" /><path
     d="m 391.47,393.39 -99.053,-57.35 0,-7.582 102.369,59.245 0,3.791 z"
     id="g12"
     style="fill:#000000" /><path
     d="M 190.521,390.547 291.46899,332.72299"
     id="g13"
     style="fill:none;stroke:#000000;stroke-width:0.85322398" /><path
     d="m 292.417,336.04 -99.526,57.35 -3.317,-1.896 0,-3.791 102.843,-59.245 z"
     id="g14"
     style="fill:#000000" /><path
     d="m 211.84801,402.86899 79.62098,-45.5"
     id="g15"
     style="fill:none;stroke:#000000;stroke-width:0.85322398" /><path
     d="m 212.796,406.661 -3.317,-5.687 81.043,-46.923 3.317,5.688 z"
     id="g16"
     style="fill:#000000" /><path
     d="m 473.105,335.424 c 0,-8.44826 2.26295,-15.0602 6.80116,-19.8347 4.53821,-4.77559 10.3921,-7.16954 17.5717,-7.16954 4.69273,0 8.93422,1.12643 12.7021,3.36587 3.76897,2.25063 6.64776,5.37912 8.62629,9.39554 1.97854,4.00523 2.96277,8.56695 2.96277,13.6505 0,5.16637 -1.03126,9.78744 -3.11617,13.852 -2.08603,4.07577 -5.03648,7.15611 -8.85136,9.25334 -3.82719,2.09723 -7.93879,3.13968 -12.3583,3.13968 -4.7991,0 -9.07642,-1.14883 -12.8443,-3.47112 -3.78016,-2.31109 -6.63544,-5.47429 -8.57927,-9.47952 -1.94271,-3.99291 -2.91462,-8.23439 -2.91462,-12.7021 z m 6.94336,0.10637 c 0,6.13828 1.6471,10.9609 4.94131,14.4914 3.3054,3.53159 7.44052,5.29738 12.4177,5.29738 5.0712,0 9.24214,-1.77811 12.5128,-5.34441 3.26957,-3.5663 4.91667,-8.62629 4.91667,-15.1789 0,-4.13511 -0.71102,-7.74844 -2.10843,-10.8411 -1.39853,-3.09266 -3.44873,-5.48661 -6.13828,-7.19306 -2.70188,-1.69413 -5.72287,-2.54735 -9.07642,-2.54735 -4.77559,0 -8.87487,1.63479 -12.3113,4.91779 -3.43641,3.26957 -5.15405,8.74386 -5.15405,16.3982 z"
     id="g17"
     style="fill:#000000;fill-rule:nonzero" /><path
     d="M 496.68301,568.28302 395.73499,510.45999"
     id="g18"
     style="fill:none;stroke:#000000;stroke-width:0.85322398" /><path
     d="m 398.104,508.089 99.526,57.35 0,7.584 -102.844,-59.246 0,-3.792 z"
     id="g19"
     style="fill:#000000" /><path
     d="M 599.526,510.45999 498.10501,568.28302"
     id="g20"
     style="fill:none;stroke:#000000;stroke-width:0.85322398" /><path
     d="m 596.682,508.089 6.636,3.793 -105.688,61.141 0,-7.584 z"
     id="g21"
     style="fill:#000000" /><path
     d="m 600,391.96799 0,117.07"
     id="g22"
     style="fill:none;stroke:#000000;stroke-width:0.85322398" /><path
     d="m 596.682,393.39 6.636,-3.791 0,122.283 -6.636,-3.793 z"
     id="g23"
     style="fill:#000000" /><path
     d="M 528.90997,350.733 599.526,390.547"
     id="g24"
     style="fill:none;stroke:#000000;stroke-width:0.85322398" /><path
     d="m 526.54,352.629 3.318,-5.687 73.46,42.657 -6.636,3.791 z"
     id="g25"
     style="fill:#000000" /><path
     d="m 395.73499,390.547 70.14202,-39.814"
     id="g26"
     style="fill:none;stroke:#000000;stroke-width:0.85322398" /><path
     d="m 468.246,353.104 -70.142,40.286 -3.318,-1.896 0,-3.791 70.143,-40.287 z"
     id="g27"
     style="fill:#000000" /><path
     d="m 46.9329,330.223 0,-20.901 6.7418,0 0,50.891 -6.7418,0 0,-23.982 -26.4466,0 0,23.982 -6.7429,0 0,-50.891 6.7429,0 0,20.901 z"
     id="g28"
     style="fill:#000000;fill-rule:nonzero" /><path
     d="m 63.152,335.424 c 0,-8.44826 2.26295,-15.0602 6.80116,-19.8347 4.53821,-4.77559 10.3921,-7.16954 17.5717,-7.16954 4.69273,0 8.93422,1.12643 12.7021,3.36587 3.76897,2.25063 6.64776,5.37912 8.62629,9.39554 1.97854,4.00523 2.96277,8.56695 2.96277,13.6505 0,5.16637 -1.03126,9.78744 -3.11617,13.852 -2.08603,4.07577 -5.03648,7.15611 -8.85136,9.25334 -3.82719,2.09723 -7.93879,3.13968 -12.3583,3.13968 -4.7991,0 -9.07642,-1.14883 -12.8443,-3.47112 -3.78016,-2.31109 -6.63544,-5.47429 -8.57927,-9.47952 -1.94271,-3.99291 -2.91462,-8.23439 -2.91462,-12.7021 z m 6.94336,0.10637 c 0,6.13828 1.6471,10.9609 4.94131,14.4914 3.3054,3.53159 7.44052,5.29738 12.4177,5.29738 5.0712,0 9.24214,-1.77811 12.5128,-5.34441 3.26957,-3.5663 4.91667,-8.62629 4.91667,-15.1789 0,-4.13511 -0.71102,-7.74844 -2.10843,-10.8411 -1.39853,-3.09266 -3.44873,-5.48661 -6.13828,-7.19306 -2.70188,-1.69413 -5.72287,-2.54735 -9.07642,-2.54735 -4.77559,0 -8.87487,1.63479 -12.3113,4.91779 -3.43641,3.26957 -5.15405,8.74386 -5.15405,16.3982 z"
     id="g29"
     style="fill:#000000;fill-rule:nonzero" /><path
     d="m 118.958,350.733 70.14201,39.814"
     id="g30"
     style="fill:none;stroke:#000000;stroke-width:0.85322398" /><path
     d="m 186.256,393.39 -69.668,-40.286 3.317,-5.688 69.669,40.287 0,3.791 z"
     id="g31"
     style="fill:#000000" /><path
     d="m 267.891,690.897 c 0,-8.44826 2.26295,-15.0602 6.80116,-19.8347 4.53821,-4.77559 10.3921,-7.16954 17.5717,-7.16954 4.69273,0 8.93422,1.12643 12.7021,3.36587 3.76897,2.25063 6.64776,5.37912 8.62629,9.39554 1.97854,4.00523 2.96277,8.56695 2.96277,13.6505 0,5.16637 -1.03126,9.78744 -3.11617,13.852 -2.08603,4.07577 -5.03648,7.15611 -8.85136,9.25334 -3.82719,2.09723 -7.93879,3.13968 -12.3583,3.13968 -4.7991,0 -9.07642,-1.14883 -12.8443,-3.47112 -3.78016,-2.31109 -6.63544,-5.47429 -8.57927,-9.47952 -1.94271,-3.99291 -2.91462,-8.23439 -2.91462,-12.7021 z m 6.94336,0.10637 c 0,6.13828 1.6471,10.9609 4.94131,14.4914 3.3054,3.53159 7.44052,5.29738 12.4177,5.29738 5.0712,0 9.24214,-1.77811 12.5128,-5.34441 3.26957,-3.5663 4.91667,-8.62629 4.91667,-15.1789 0,-4.13511 -0.71102,-7.74844 -2.10843,-10.8411 -1.39853,-3.09266 -3.44873,-5.48661 -6.13828,-7.19306 -2.70188,-1.69413 -5.72287,-2.54735 -9.07642,-2.54735 -4.77559,0 -8.87487,1.63479 -12.3113,4.91779 -3.43641,3.26957 -5.15405,8.74386 -5.15405,16.3982 z"
     id="g32"
     style="fill:#000000;fill-rule:nonzero" /><path
     d="m 358.782,685.696 0,-20.901 6.742,0 0,50.891 -6.742,0 0,-23.982 -26.447,0 0,23.982 -6.743,0 0,-50.891 6.743,0 0,20.901 z"
     id="g33"
     style="fill:#000000;fill-rule:nonzero" /><path
     d="m 292.41699,654.07001 0,-84.36499"
     id="g34"
     style="fill:none;stroke:#000000;stroke-width:0.85322398" /><path
     d="m 295.735,571.127 0,83.891 -6.635,0 0,-83.891 3.317,-1.896 z"
     id="g35"
     style="fill:#000000" /><path
     d="M 693.36499,349.78601 682.93903,331.30099"
     id="g36"
     style="fill:none;stroke:#000000;stroke-width:0.85322398" /><path
     d="m 685.308,328.458 11.849,20.853 -6.162,2.844 -11.374,-19.432 z"
     id="g37"
     style="fill:#000000" /><path
     d="M 680.09399,355.94699 671.56403,339.358"
     id="g38"
     style="fill:none;stroke:#000000;stroke-width:0.85322398" /><path
     d="m 673.46,336.989 10.426,18.01 -5.687,2.844 -9.952,-17.063 z"
     id="g39"
     style="fill:#000000" /><path
     d="m 667.29797,361.63501 -7.58197,-13.746"
     id="g40"
     style="fill:none;stroke:#000000;stroke-width:0.85322398" /><path
     d="m 662.085,345.046 9.005,16.115 -6.161,2.843 -8.531,-15.166 z"
     id="g41"
     style="fill:#000000" /><path
     d="m 654.50201,367.797 -6.16003,-11.85001"
     id="g42"
     style="fill:none;stroke:#000000;stroke-width:0.85322398" /><path
     d="m 650.237,353.104 8.057,13.744 -6.161,2.844 -7.109,-12.323 z"
     id="g43"
     style="fill:#000000" /><path
     d="M 641.70599,373.48401 636.966,364.004"
     id="g44"
     style="fill:none;stroke:#000000;stroke-width:0.85322398" /><path
     d="m 638.863,361.635 6.634,11.375 -6.16,2.844 -6.162,-10.428 z"
     id="g45"
     style="fill:#000000" /><path
     d="m 628.90997,379.64499 -3.79095,-7.10898"
     id="g46"
     style="fill:none;stroke:#000000;stroke-width:0.85322398" /><path
     d="m 627.014,369.692 5.687,9.005 -6.16,2.844 -4.74,-8.057 z"
     id="g47"
     style="fill:#000000" /><path
     d="M 615.64001,385.332 613.745,380.59299"
     id="g48"
     style="fill:none;stroke:#000000;stroke-width:0.85322398" /><path
     d="m 615.64,377.75 3.792,7.109 -6.162,2.844 -3.317,-5.688 z"
     id="g49"
     style="fill:#000000" /><path
     d="m 678.317,572.407 c 0,-8.44826 2.26295,-15.0602 6.80116,-19.8347 4.53821,-4.77559 10.3921,-7.16954 17.5717,-7.16954 4.69273,0 8.93422,1.12643 12.7021,3.36587 3.76897,2.25063 6.64776,5.37912 8.62629,9.39554 1.97854,4.00523 2.96277,8.56695 2.96277,13.6505 0,5.16637 -1.03126,9.78744 -3.11617,13.852 -2.08603,4.07577 -5.03648,7.15611 -8.85136,9.25334 -3.82719,2.09723 -7.93879,3.13968 -12.3583,3.13968 -4.7991,0 -9.07642,-1.14883 -12.8443,-3.47112 -3.78016,-2.31109 -6.63544,-5.47429 -8.57927,-9.47952 -1.94271,-3.99291 -2.91462,-8.23439 -2.91462,-12.7021 z m 6.94336,0.10637 c 0,6.13828 1.6471,10.9609 4.94131,14.4914 3.3054,3.53159 7.44052,5.29738 12.4177,5.29738 5.0712,0 9.24214,-1.77811 12.5128,-5.34441 3.26957,-3.5663 4.91667,-8.62629 4.91667,-15.1789 0,-4.13511 -0.71102,-7.74844 -2.10843,-10.8411 -1.39853,-3.09266 -3.44873,-5.48661 -6.13828,-7.19306 -2.70188,-1.69413 -5.72287,-2.54735 -9.07642,-2.54735 -4.77559,0 -8.87487,1.63479 -12.3113,4.91779 -3.43641,3.26957 -5.15405,8.74386 -5.15405,16.3982 z"
     id="g50"
     style="fill:#000000;fill-rule:nonzero" /><path
     d="M 804.73901,390.547 703.31702,332.72299"
     id="g51"
     style="fill:none;stroke:#000000;stroke-width:0.85322398" /><path
     d="m 805.214,387.703 0,7.583 -105.688,-61.141 6.635,-3.792 z"
     id="g52"
     style="fill:#000000" /><path
     d="m 804.73901,365.89999 -80.09399,-45.5"
     id="g53"
     style="fill:none;stroke:#000000;stroke-width:0.85322398" /><path
     d="m 807.109,364.004 -3.317,5.688 -81.517,-46.923 3.317,-5.687 z"
     id="g54"
     style="fill:#000000" /><path
     d="M 907.10901,332.72299 806.16101,390.547"
     id="g55"
     style="fill:none;stroke:#000000;stroke-width:0.85322398" /><path
     d="m 805.214,387.703 99.526,-57.35 3.316,1.896 0,3.791 -102.842,59.246 z"
     id="g56"
     style="fill:#000000" /><path
     d="m 908.05603,214.23199 0,117.069"
     id="g57"
     style="fill:none;stroke:#000000;stroke-width:0.85322398" /><path
     d="m 908.056,332.249 -3.316,-1.896 0,-114.699 3.316,-1.896 3.318,1.896 0,114.699 z"
     id="g58"
     style="fill:#000000" /><path
     d="m 886.72998,226.554 0,92.424"
     id="g59"
     style="fill:none;stroke:#000000;stroke-width:0.85322398" /><path
     d="m 883.413,226.081 6.634,0 0,93.844 -6.634,0 z"
     id="g60"
     style="fill:#000000" /><path
     d="m 806.16101,154.987 100.948,57.823"
     id="g61"
     style="fill:none;stroke:#000000;stroke-width:0.85322398" /><path
     d="m 908.056,213.758 -3.316,1.896 -99.526,-57.35 0,-3.792 3.316,-1.896 99.526,57.35 z"
     id="g62"
     style="fill:#000000" /><path
     d="M 703.31702,212.81 804.73901,154.987"
     id="g63"
     style="fill:none;stroke:#000000;stroke-width:0.85322398" /><path
     d="m 805.214,158.304 -99.053,57.35 -6.635,-3.792 102.37,-59.246 3.318,1.896 z"
     id="g64"
     style="fill:#000000" /><path
     d="m 724.64502,225.132 80.09399,-45.499"
     id="g65"
     style="fill:none;stroke:#000000;stroke-width:0.85322398" /><path
     d="m 725.592,228.925 -3.317,-5.688 81.517,-46.922 3.317,5.687 z"
     id="g66"
     style="fill:#000000" /><path
     d="m 702.84399,331.30099 0,-117.069"
     id="g67"
     style="fill:none;stroke:#000000;stroke-width:0.85322398" /><path
     d="m 706.161,330.353 -6.635,3.792 0,-122.283 6.635,3.792 z"
     id="g68"
     style="fill:#000000" /><path
     d="m 986.375,157.687 c 0,-8.44826 2.26295,-15.0602 6.80116,-19.8347 4.53821,-4.77559 10.39214,-7.16954 17.57174,-7.16954 4.6927,0 8.9342,1.12643 12.7021,3.36587 3.7689,2.25063 6.6477,5.37912 8.6262,9.39554 1.9786,4.00523 2.9628,8.56695 2.9628,13.6505 0,5.16637 -1.0312,9.78744 -3.1161,13.852 -2.0861,4.07577 -5.0365,7.15611 -8.8514,9.25334 -3.8272,2.09723 -7.9388,3.13968 -12.3583,3.13968 -4.7991,0 -9.0764,-1.14883 -12.84431,-3.47112 -3.78016,-2.31109 -6.63544,-5.47429 -8.57927,-9.47952 -1.94271,-3.99291 -2.91462,-8.23439 -2.91462,-12.7021 z m 6.94336,0.10637 c 0,6.13828 1.6471,10.9609 4.94131,14.4914 3.30543,3.53159 7.44053,5.29738 12.41773,5.29738 5.0712,0 9.2421,-1.77811 12.5128,-5.34441 3.2695,-3.5663 4.9166,-8.62629 4.9166,-15.1789 0,-4.13511 -0.711,-7.74844 -2.1084,-10.8411 -1.3985,-3.09266 -3.4487,-5.48661 -6.1383,-7.19306 -2.7019,-1.69413 -5.7228,-2.54735 -9.0764,-2.54735 -4.7756,0 -8.8749,1.63479 -12.31129,4.91779 -3.43641,3.26957 -5.15405,8.74386 -5.15405,16.3982 z"
     id="g69"
     style="fill:#000000;fill-rule:nonzero" /><path
     d="m 1076.79,152.486 0,-20.901 6.74,0 0,50.891 -6.74,0 0,-23.982 -26.45,0 0,23.982 -6.74,0 0,-50.891 6.74,0 0,20.901 z"
     id="g70"
     style="fill:#000000;fill-rule:nonzero" /><path
     d="M 978.67401,172.99699 908.53101,212.81"
     id="g71"
     style="fill:none;stroke:#000000;stroke-width:0.85322398" /><path
     d="m 908.056,209.966 69.669,-40.286 3.318,5.687 -69.669,40.287 -3.318,-1.896 z"
     id="g72"
     style="fill:#000000" /><path
     d="m 986.375,394.67 c 0,-8.44826 2.26295,-15.0602 6.80116,-19.8347 4.53821,-4.77559 10.39214,-7.16954 17.57174,-7.16954 4.6927,0 8.9342,1.12643 12.7021,3.36587 3.7689,2.25063 6.6477,5.37912 8.6262,9.39554 1.9786,4.00523 2.9628,8.56695 2.9628,13.6505 0,5.16637 -1.0312,9.78744 -3.1161,13.852 -2.0861,4.07577 -5.0365,7.15611 -8.8514,9.25334 -3.8272,2.09723 -7.9388,3.13968 -12.3583,3.13968 -4.7991,0 -9.0764,-1.14883 -12.84431,-3.47112 -3.78016,-2.31109 -6.63544,-5.47429 -8.57927,-9.47952 -1.94271,-3.99291 -2.91462,-8.23439 -2.91462,-12.7021 z m 6.94336,0.10637 c 0,6.13828 1.6471,10.9609 4.94131,14.4914 3.30543,3.53159 7.44053,5.29738 12.41773,5.29738 5.0712,0 9.2421,-1.77811 12.5128,-5.34441 3.2695,-3.5663 4.9166,-8.62629 4.9166,-15.1789 0,-4.13511 -0.711,-7.74844 -2.1084,-10.8411 -1.3985,-3.09266 -3.4487,-5.48661 -6.1383,-7.19306 -2.7019,-1.69413 -5.7228,-2.54735 -9.0764,-2.54735 -4.7756,0 -8.8749,1.63479 -12.31129,4.91779 -3.43641,3.26957 -5.15405,8.74386 -5.15405,16.3982 z"
     id="g73"
     style="fill:#000000;fill-rule:nonzero" /><path
     d="m 1076.79,389.469 0,-20.902 6.74,0 0,50.891 -6.74,0 0,-23.982 -26.45,0 0,23.982 -6.74,0 0,-50.891 6.74,0 0,20.902 z"
     id="g74"
     style="fill:#000000;fill-rule:nonzero" /><path
     d="M 981.04303,373.957 908.53101,332.72299"
     id="g75"
     style="fill:none;stroke:#000000;stroke-width:0.85322398" /><path
     d="m 911.374,330.353 72.038,41.709 -3.318,5.688 -72.038,-41.71 0,-3.791 z"
     id="g76"
     style="fill:#000000" /><path
     d="m 702.84399,686.77399 0,-79.15198"
     id="g77"
     style="fill:none;stroke:#000000;stroke-width:0.85322398" /><path
     d="m 706.161,685.826 -6.635,3.792 0,-82.47 6.635,0 z"
     id="g78"
     style="fill:#000000" /><path
     d="m 575.948,750.143 c 0,-8.44826 2.26295,-15.0602 6.80116,-19.8347 4.53821,-4.77559 10.3921,-7.16954 17.5717,-7.16954 4.69273,0 8.93422,1.12643 12.7021,3.36587 3.76897,2.25063 6.64776,5.37912 8.62629,9.39554 1.97854,4.00523 2.96277,8.56695 2.96277,13.6505 0,5.16637 -1.03126,9.78744 -3.11617,13.852 -2.08603,4.07577 -5.03648,7.15611 -8.85136,9.25334 -3.82719,2.09723 -7.93879,3.13968 -12.3583,3.13968 -4.7991,0 -9.07642,-1.14883 -12.8443,-3.47112 -3.78016,-2.31109 -6.63544,-5.47429 -8.57927,-9.47952 -1.94271,-3.99291 -2.91462,-8.23439 -2.91462,-12.7021 z m 6.94336,0.10637 c 0,6.13828 1.6471,10.9609 4.94131,14.4914 3.3054,3.53159 7.44052,5.29738 12.4177,5.29738 5.0712,0 9.24214,-1.77811 12.5128,-5.34441 3.26957,-3.5663 4.91667,-8.62629 4.91667,-15.1789 0,-4.13511 -0.71102,-7.74844 -2.10843,-10.8411 -1.39853,-3.09266 -3.44873,-5.48661 -6.13828,-7.19306 -2.70188,-1.69413 -5.72287,-2.54735 -9.07642,-2.54735 -4.77559,0 -8.87487,1.63479 -12.3113,4.91779 -3.43641,3.26957 -5.15405,8.74386 -5.15405,16.3982 z"
     id="g79"
     style="fill:#000000;fill-rule:nonzero" /><path
     d="m 634.59698,738.90997 78.19904,-44.55298"
     id="g80"
     style="fill:none;stroke:#000000;stroke-width:0.85322398" /><path
     d="m 635.545,742.702 -3.317,-5.688 79.62,-45.974 3.318,5.688 z"
     id="g81"
     style="fill:#000000" /><path
     d="m 624.16998,720.42499 77.72504,-44.552"
     id="g82"
     style="fill:none;stroke:#000000;stroke-width:0.85322398" /><path
     d="m 625.119,724.217 -3.318,-5.687 79.147,-45.975 3.318,5.687 z"
     id="g83"
     style="fill:#000000" /><path
     d="M 804.73901,746.02002 703.31702,688.19598"
     id="g84"
     style="fill:none;stroke:#000000;stroke-width:0.85322398" /><path
     d="m 706.161,685.826 99.053,57.35 0,3.791 -3.318,1.896 -102.37,-59.245 z"
     id="g85"
     style="fill:#000000" /><path
     d="m 805.21399,864.51099 0,-117.06897"
     id="g86"
     style="fill:none;stroke:#000000;stroke-width:0.85322398" /><path
     d="m 808.53,748.863 0,114.699 -6.634,3.793 0,-118.492 3.318,-1.896 z"
     id="g87"
     style="fill:#000000" /><path
     d="m 826.53998,852.18701 0,-92.42303"
     id="g88"
     style="fill:none;stroke:#000000;stroke-width:0.85322398" /><path
     d="m 829.858,853.135 -6.635,0 0,-93.844 6.635,0 z"
     id="g89"
     style="fill:#000000" /><path
     d="m 907.10901,923.75598 -100.948,-57.823"
     id="g90"
     style="fill:none;stroke:#000000;stroke-width:0.85322398" /><path
     d="m 808.53,863.562 99.526,57.35 0,3.792 -3.316,1.896 -102.844,-59.245 z"
     id="g91"
     style="fill:#000000" /><path
     d="m 1009.95,865.93298 -101.41899,57.823"
     id="g92"
     style="fill:none;stroke:#000000;stroke-width:0.85322398" /><path
     d="m 908.056,924.704 0,-3.792 99.054,-57.35 3.32,1.897 0,3.791 -99.056,57.35 z"
     id="g93"
     style="fill:#000000" /><path
     d="m 988.62598,853.60901 -80.09497,45.50098"
     id="g94"
     style="fill:none;stroke:#000000;stroke-width:0.85322398" /><path
     d="m 987.678,850.291 3.317,5.688 -81.517,46.922 -3.317,-5.687 z"
     id="g95"
     style="fill:#000000" /><path
     d="m 1010.43,747.44202 0,117.06897"
     id="g96"
     style="fill:none;stroke:#000000;stroke-width:0.85322398" /><path
     d="m 1010.43,865.459 -3.32,-1.897 0,-114.699 3.32,-1.896 3.31,1.896 0,114.699 z"
     id="g97"
     style="fill:#000000" /><path
     d="M 908.53101,688.19598 1009.95,746.02002"
     id="g98"
     style="fill:none;stroke:#000000;stroke-width:0.85322398" /><path
     d="m 1007.11,748.863 -99.054,-57.35 0,-7.582 102.374,59.245 0,3.791 z"
     id="g99"
     style="fill:#000000" /><path
     d="m 908.53101,712.84198 80.09497,45.5"
     id="g100"
     style="fill:none;stroke:#000000;stroke-width:0.85322398" /><path
     d="m 906.161,715.212 3.317,-5.688 81.517,46.923 -3.317,5.687 z"
     id="g101"
     style="fill:#000000" /><path
     d="m 806.16101,746.02002 100.948,-57.82404"
     id="g102"
     style="fill:none;stroke:#000000;stroke-width:0.85322398" /><path
     d="m 908.056,691.513 -99.526,57.35 -3.316,-1.896 0,-3.791 102.842,-59.245 z"
     id="g103"
     style="fill:#000000" /><path
     d="m 781.161,39.1968 c 0,-8.44826 2.26295,-15.0602 6.80116,-19.8347 4.53821,-4.77559 10.3921,-7.16954 17.5717,-7.16954 4.69273,0 8.93422,1.12643 12.7021,3.36587 3.76897,2.25063 6.64776,5.37912 8.62629,9.39554 1.97854,4.00523 2.96277,8.56695 2.96277,13.6505 0,5.16637 -1.03126,9.78744 -3.11617,13.852 -2.08603,4.07577 -5.03648,7.15611 -8.85136,9.25334 -3.82719,2.09723 -7.93879,3.13968 -12.3583,3.13968 -4.7991,0 -9.07642,-1.14883 -12.8443,-3.47112 -3.78016,-2.31109 -6.63544,-5.47429 -8.57927,-9.47952 -1.94271,-3.99291 -2.91462,-8.23439 -2.91462,-12.7021 z m 6.94336,0.106373 c 0,6.13828 1.6471,10.9609 4.94131,14.4914 3.3054,3.53159 7.44052,5.29738 12.4177,5.29738 5.0712,0 9.24214,-1.77811 12.5128,-5.34441 3.26957,-3.5663 4.91667,-8.62629 4.91667,-15.1789 0,-4.13511 -0.71102,-7.74844 -2.10843,-10.8411 -1.39853,-3.09266 -3.44873,-5.48661 -6.13828,-7.19306 -2.70188,-1.69413 -5.72287,-2.54735 -9.07642,-2.54735 -4.77559,0 -8.87487,1.63479 -12.3113,4.91779 -3.43641,3.26957 -5.15405,8.74386 -5.15405,16.3982 z"
     id="g104"
     style="fill:#000000;fill-rule:nonzero" /><path
     d="m 871.578,33.9957 0,-20.9017 6.742,0 0,50.8911 -6.742,0 0,-23.9821 -26.446,0 0,23.9821 -6.743,0 0,-50.8911 6.743,0 0,20.9017 z"
     id="g105"
     style="fill:#000000;fill-rule:nonzero" /><path
     d="m 805.21399,74.411903 0,79.153097"
     id="g106"
     style="fill:none;stroke:#000000;stroke-width:0.85322398" /><path
     d="m 801.896,152.616 0,-78.6778 6.634,0 0,78.6778 -3.316,1.896 z"
     id="g107"
     style="fill:#000000" /><path
     d="m 1088.74,690.897 c 0,-8.44826 2.263,-15.0602 6.8012,-19.8347 4.5382,-4.77559 10.3921,-7.16954 17.5717,-7.16954 4.6927,0 8.9342,1.12643 12.7021,3.36587 3.7689,2.25063 6.6477,5.37912 8.6262,9.39554 1.9786,4.00523 2.9628,8.56695 2.9628,13.6505 0,5.16637 -1.0312,9.78744 -3.1161,13.852 -2.0861,4.07577 -5.0365,7.15611 -8.8514,9.25334 -3.8272,2.09723 -7.9388,3.13968 -12.3583,3.13968 -4.7991,0 -9.0764,-1.14883 -12.8443,-3.47112 -3.7802,-2.31109 -6.6354,-5.47429 -8.5793,-9.47952 -1.9427,-3.99291 -2.9146,-8.23439 -2.9146,-12.7021 z m 6.9434,0.10637 c 0,6.13828 1.6471,10.9609 4.9413,14.4914 3.3054,3.53159 7.4405,5.29738 12.4177,5.29738 5.0712,0 9.2421,-1.77811 12.5128,-5.34441 3.2695,-3.5663 4.9166,-8.62629 4.9166,-15.1789 0,-4.13511 -0.711,-7.74844 -2.1084,-10.8411 -1.3985,-3.09266 -3.4487,-5.48661 -6.1383,-7.19306 -2.7018,-1.69413 -5.7228,-2.54735 -9.0764,-2.54735 -4.7756,0 -8.8749,1.63479 -12.3113,4.91779 -3.4364,3.26957 -5.154,8.74386 -5.154,16.3982 z"
     id="g108"
     style="fill:#000000;fill-rule:nonzero" /><path
     d="m 1179.63,685.696 0,-20.901 6.75,0 0,50.891 -6.75,0 0,-23.982 -26.44,0 0,23.982 -6.74,0 0,-50.891 6.74,0 0,20.901 z"
     id="g109"
     style="fill:#000000;fill-rule:nonzero" /><path
     d="m 1081.52,706.20599 -70.15,39.81403"
     id="g110"
     style="fill:none;stroke:#000000;stroke-width:0.85322398" /><path
     d="m 1010.43,743.176 70.14,-40.288 3.32,5.689 -70.15,40.286 -3.31,-1.896 z"
     id="g111"
     style="fill:#000000" /><path
     d="m 1088.74,927.88 c 0,-8.44826 2.263,-15.0602 6.8012,-19.8347 4.5382,-4.77559 10.3921,-7.16954 17.5717,-7.16954 4.6927,0 8.9342,1.12643 12.7021,3.36587 3.7689,2.25063 6.6477,5.37912 8.6262,9.39554 1.9786,4.00523 2.9628,8.56695 2.9628,13.6505 0,5.16637 -1.0312,9.78744 -3.1161,13.852 -2.0861,4.07577 -5.0365,7.15611 -8.8514,9.25334 -3.8272,2.09723 -7.9388,3.13968 -12.3583,3.13968 -4.7991,0 -9.0764,-1.14883 -12.8443,-3.47112 -3.7802,-2.31109 -6.6354,-5.47429 -8.5793,-9.47952 -1.9427,-3.99291 -2.9146,-8.23439 -2.9146,-12.7021 z m 6.9434,0.10637 c 0,6.13828 1.6471,10.9609 4.9413,14.4914 3.3054,3.53159 7.4405,5.29738 12.4177,5.29738 5.0712,0 9.2421,-1.77811 12.5128,-5.34441 3.2695,-3.5663 4.9166,-8.62629 4.9166,-15.1789 0,-4.13511 -0.711,-7.74844 -2.1084,-10.8411 -1.3985,-3.09266 -3.4487,-5.48661 -6.1383,-7.19306 -2.7018,-1.69413 -5.7228,-2.54735 -9.0764,-2.54735 -4.7756,0 -8.8749,1.63479 -12.3113,4.91779 -3.4364,3.26957 -5.154,8.74386 -5.154,16.3982 z"
     id="g112"
     style="fill:#000000;fill-rule:nonzero" /><path
     d="m 1179.63,922.679 0,-20.902 6.75,0 0,50.891 -6.75,0 0,-23.982 -26.44,0 0,23.982 -6.74,0 0,-50.891 6.74,0 0,20.902 z"
     id="g113"
     style="fill:#000000;fill-rule:nonzero" /><path
     d="m 1083.41,907.16699 -72.04,-41.23401"
     id="g114"
     style="fill:none;stroke:#000000;stroke-width:0.85322398" /><path
     d="m 1013.74,863.562 72.04,41.71 -3.32,5.687 -72.03,-41.709 0,-3.791 z"
     id="g115"
     style="fill:#000000" /><path
     d="m 883.531,1046.37 c 0,-8.4483 2.26295,-15.0602 6.80116,-19.8347 4.53821,-4.7756 10.3921,-7.1695 17.5717,-7.1695 4.69273,0 8.93422,1.1264 12.7021,3.3658 3.76897,2.2507 6.64776,5.3791 8.62629,9.3956 1.97854,4.0052 2.96277,8.5669 2.96277,13.6505 0,5.1663 -1.03126,9.7874 -3.11617,13.852 -2.08603,4.0757 -5.03648,7.1561 -8.85136,9.2533 -3.82719,2.0972 -7.93879,3.1397 -12.3583,3.1397 -4.7991,0 -9.07642,-1.1488 -12.8443,-3.4711 -3.78016,-2.3111 -6.63544,-5.4743 -8.57927,-9.4796 -1.94271,-3.9929 -2.91462,-8.2343 -2.91462,-12.7021 z m 6.94336,0.1064 c 0,6.1383 1.6471,10.9609 4.94131,14.4914 3.3054,3.5316 7.44052,5.2974 12.4177,5.2974 5.0712,0 9.24214,-1.7782 12.5128,-5.3445 3.26957,-3.5663 4.91667,-8.6262 4.91667,-15.1789 0,-4.1351 -0.71102,-7.7484 -2.10843,-10.8411 -1.39853,-3.0926 -3.44873,-5.4866 -6.13828,-7.193 -2.70188,-1.6941 -5.72287,-2.5474 -9.07642,-2.5474 -4.77559,0 -8.87487,1.6348 -12.3113,4.9178 -3.43641,3.2696 -5.15405,8.7439 -5.15405,16.3982 z"
     id="g116"
     style="fill:#000000;fill-rule:nonzero" /><path
     d="m 974.422,1041.17 0,-20.9 6.742,0 0,50.89 -6.742,0 0,-23.98 -26.447,0 0,23.98 -6.743,0 0,-50.89 6.743,0 0,20.9 z"
     id="g117"
     style="fill:#000000;fill-rule:nonzero" /><path
     d="m 908.05603,1009.54 0,-84.36202"
     id="g118"
     style="fill:none;stroke:#000000;stroke-width:0.85322398" /><path
     d="m 911.374,926.6 0,83.89 -6.634,0 0,-83.89 3.316,-1.896 z"
     id="g119"
     style="fill:#000000" /><path
     d="m 665.87598,560.22498 9.953,-18.48395"
     id="g120"
     style="fill:none;stroke:#000000;stroke-width:0.85322398" /><path
     d="m 679.621,542.215 -11.848,20.381 -5.213,-3.793 10.9,-19.432 z"
     id="g121"
     style="fill:#000000" /><path
     d="M 652.60699,550.27197 661.138,535.10602"
     id="g122"
     style="fill:none;stroke:#000000;stroke-width:0.85322398" /><path
     d="m 664.929,535.579 -9.953,17.537 -5.687,-4.266 9.479,-15.64 z"
     id="g123"
     style="fill:#000000" /><path
     d="m 639.81,540.31897 6.16101,-11.849"
     id="g124"
     style="fill:none;stroke:#000000;stroke-width:0.85322398" /><path
     d="m 649.764,529.418 -8.058,13.745 -5.213,-4.266 7.109,-12.322 z"
     id="g125"
     style="fill:#000000" /><path
     d="m 626.54102,530.84003 4.26501,-8.53205"
     id="g126"
     style="fill:none;stroke:#000000;stroke-width:0.85322398" /><path
     d="m 634.597,522.782 -6.161,10.428 -5.213,-3.792 5.213,-9.005 z"
     id="g127"
     style="fill:#000000" /><path
     d="m 613.27002,520.88599 2.36999,-5.21302"
     id="g128"
     style="fill:none;stroke:#000000;stroke-width:0.85322398" /><path
     d="m 619.432,516.621 -3.792,7.11 -5.687,-4.267 3.317,-5.687 z"
     id="g129"
     style="fill:#000000" /><path
     d="m 0,0 1200,0 0,1080.64 -1200,0 z"
     id="polygon3323"
     style="fill:none" /></g>
</svg>
