<?xml version="1.0" encoding="UTF-8" standalone="no"?>
<svg
   xmlns:dc="http://purl.org/dc/elements/1.1/"
   xmlns:cc="http://creativecommons.org/ns#"
   xmlns:rdf="http://www.w3.org/1999/02/22-rdf-syntax-ns#"
   xmlns:svg="http://www.w3.org/2000/svg"
   xmlns="http://www.w3.org/2000/svg"
   id="svg2"
   xml:space="preserve"
   height="580"
   width="1110"
   version="1.0"><metadata
   id="metadata60"><rdf:RDF><cc:Work
       rdf:about=""><dc:format>image/svg+xml</dc:format><dc:type
         rdf:resource="http://purl.org/dc/dcmitype/StillImage" /><dc:title></dc:title></cc:Work></rdf:RDF></metadata><defs
   id="defs58">
























</defs>
<style
   id="style4"
   type="text/css">
   text {font-family:'Helvetica', 'Arial', 'sans-serif'; font-size:100px}
   .smalltext {font-size: 75px}
</style>








<polygon
   transform="translate(-104.90139,49.358525)"
   points="602.622,264.807 602.622,408.811 594.624,403.811 594.624,264.807 598.623,262.307 "
   id="polygon8" /><polygon
   transform="translate(-104.90139,49.358525)"
   points="598.623,257.81 598.623,262.307 594.624,264.807 474.121,194.807 474.121,185.808 "
   id="polygon10" /><polygon
   transform="translate(-104.90139,49.358525)"
   points="349.624,257.81 474.121,185.808 474.121,194.807 353.623,264.807 349.624,262.307 "
   id="polygon12" /><polygon
   transform="translate(-104.90139,49.358525)"
   points="349.624,406.311 345.625,403.811 345.625,264.807 349.624,262.307 353.623,264.807 353.623,403.811 "
   id="polygon14" /><polygon
   transform="translate(-104.90139,49.358525)"
   points="349.624,410.803 349.624,406.311 353.623,403.811 474.121,473.811 474.121,482.805 "
   id="polygon16" /><polygon
   transform="translate(-104.90139,49.358525)"
   points="474.121,473.811 594.624,403.811 602.622,408.811 474.121,482.805 "
   id="polygon18" /><polygon
   transform="translate(-104.90139,49.358525)"
   points="349.624,257.81 349.624,262.307 345.625,264.807 264.624,217.81 268.623,211.306 "
   id="polygon20" /><polygon
   transform="translate(-104.90139,49.358525)"
   points="345.625,403.811 349.624,406.311 349.624,410.803 266.123,458.811 262.124,452.307 "
   id="polygon22" /><polygon
   transform="translate(-104.90139,49.358525)"
   points="602.622,264.807 598.623,262.307 598.623,257.81 723.125,185.808 723.125,195.31 "
   id="polygon24" /><polygon
   transform="translate(-104.90139,49.358525)"
   points="723.125,185.808 847.119,257.81 847.119,266.809 723.125,195.31 "
   id="polygon26" /><polygon
   transform="translate(-104.90139,49.358525)"
   points="738.125,164.807 849.121,228.806 845.126,235.808 734.121,171.809 "
   id="polygon28" /><polygon
   transform="translate(-104.90139,49.358525)"
   points="847.119,257.81 971.621,185.808 971.621,195.31 847.119,266.809 "
   id="polygon30" /><polygon
   transform="translate(-104.90139,49.358525)"
   points="971.621,185.808 1057.119,235.31 1053.125,242.307 971.621,195.31 "
   id="polygon32" /><rect
   width="8"
   height="114.004"
   x="464.21957"
   y="326.66553"
   id="rect34" /><rect
   width="8.0004396"
   height="114.24327"
   x="413.55359"
   y="-186.61617"
   transform="rotate(60.233089)"
   id="rect36" /><rect
   width="8.0001411"
   height="114.23902"
   x="-252.8678"
   y="453.15985"
   transform="rotate(-60.271464)"
   id="rect38" /><rect
   width="8"
   height="99.501999"
   x="849.71765"
   y="147.66652"
   id="rect40" /><rect
   width="8"
   height="99.501999"
   x="875.72363"
   y="147.66652"
   id="rect42" /><path
   d="m 209.9528,84.683922 h -9.66796 V 49.088219 h -36.2793 v 35.595703 h -9.66797 V 11.978844 h 9.66797 v 28.515625 h 36.2793 V 11.978844 h 9.66796 z"
   style="font-style:normal;font-variant:normal;font-weight:normal;font-stretch:normal;font-size:100px;line-height:1.25;font-family:sans-serif;-inkscape-font-specification:Sans;text-align:start;writing-mode:lr-tb;text-anchor:start"
   id="path4691" /><path
   d="m 249.44551,66.291344 q 0,-3.735352 -2.85644,-6.079102 -2.81983,-2.380371 -7.25098,-2.380371 -4.6875,0 -7.17774,2.893066 -2.49023,2.856446 -2.74658,8.569336 v 0 h -6.40869 v 0 q 0,-8.276367 4.32129,-12.780761 4.35791,-4.541016 12.30469,-4.541016 7.50732,0 12.08496,3.771973 4.61426,3.735351 4.61426,9.887695 0,6.115723 -4.61426,9.887695 -0.87891,0.732422 -1.9043,1.31836 v 0 q 1.9043,0.842285 3.36914,2.01416 4.94385,3.881836 4.94385,10.473633 0,7.397461 -5.12695,12.121578 -5.12696,4.6875 -13.1836,4.6875 -8.8623,0 -13.3667,-4.24804 -4.50439,-4.284671 -4.90722,-13.073734 v 0 h 6.92138 v 0 q 0.58594,6.152344 3.25928,8.825684 2.67334,2.63672 8.31299,2.63672 4.87061,0 7.9834,-2.783204 3.11279,-2.819825 3.11279,-7.214356 0,-4.614258 -3.00293,-7.324219 -2.56348,-2.34375 -6.5918,-2.636718 -1.86767,-0.109864 -3.55224,-0.109864 -1.64795,0 -2.19727,0.146485 v -5.786133 q 0.80567,0.183105 2.49024,0.183105 1.68457,0 3.33252,-0.219726 3.18603,-0.402832 5.16357,-2.087403 2.67334,-2.197265 2.67334,-6.152343 z"
   style="font-size:75px;line-height:0%;font-family:Helvetica, Arial, sans-serif"
   id="path4688" /><path
   d="m 120.07619,281.12024 q -15.625,0 -25.292964,-10.40039 -9.667969,-10.44922 -9.667969,-27.39258 0,-16.99219 9.667969,-27.44141 9.667964,-10.44921 25.292964,-10.44921 15.72266,0 25.3418,10.44921 9.66797,10.44922 9.66797,27.44141 0,16.94336 -9.66797,27.39258 -9.61914,10.40039 -25.3418,10.40039 z m 0,-8.59375 q 11.23047,0 18.11524,-8.05664 6.88476,-8.05664 6.88476,-21.14258 0,-13.13477 -6.88476,-21.19141 -6.88477,-8.10546 -18.11524,-8.10546 -11.18164,0 -18.0664,8.10546 -6.884767,8.05664 -6.884767,21.19141 0,13.08594 6.884767,21.14258 6.88476,8.05664 18.0664,8.05664 z"
   style="font-size:100px;line-height:0%;font-family:Helvetica, Arial, sans-serif"
   id="path4672" /><path
   d="m 16.440454,566.16571 v -71.77734 0 h 4.833984 4.882812 v 0 29.44336 0 h 37.451172 v 0 -29.44336 0 h 4.833985 4.882812 v 0 71.77734 0 h -4.833984 -4.882813 v 0 -33.74023 0 H 26.15725 v 0 33.74023 0 h -4.833984 z"
   style="font-size:100px;line-height:0%;font-family:Helvetica, Arial, sans-serif"
   id="path4675" /><path
   d="m 119.85842,568.11884 q -15.625,0 -25.292966,-10.4004 -9.667969,-10.44921 -9.667969,-27.39257 0,-16.99219 9.667969,-27.44141 9.667966,-10.44922 25.292966,-10.44922 15.72266,0 25.3418,10.44922 9.66797,10.44922 9.66797,27.44141 0,16.94336 -9.66797,27.39257 -9.61914,10.4004 -25.3418,10.4004 z m 0,-8.59375 q 11.23047,0 18.11524,-8.05665 6.88476,-8.05664 6.88476,-21.14257 0,-13.13477 -6.88476,-21.19141 -6.88477,-8.10547 -18.11524,-8.10547 -11.18164,0 -18.0664,8.10547 -6.88477,8.05664 -6.88477,21.19141 0,13.08593 6.88477,21.14257 6.88476,8.05665 18.0664,8.05665 z"
   style="font-size:100px;line-height:0%;font-family:Helvetica, Arial, sans-serif"
   id="path4677" /><path
   d="m 990.09277,352.62753 q -15.625,0 -25.29297,-10.40039 -9.66796,-10.44922 -9.66796,-27.39258 0,-16.99218 9.66796,-27.4414 9.66797,-10.44922 25.29297,-10.44922 15.72263,0 25.34183,10.44922 9.6679,10.44922 9.6679,27.4414 0,16.94336 -9.6679,27.39258 -9.6192,10.40039 -25.34183,10.40039 z m 0,-8.59375 q 11.23043,0 18.11523,-8.05664 6.8848,-8.05664 6.8848,-21.14258 0,-13.13476 -6.8848,-21.1914 -6.8848,-8.10547 -18.11523,-8.10547 -11.18164,0 -18.0664,8.10547 -6.88477,8.05664 -6.88477,21.1914 0,13.08594 6.88477,21.14258 6.88476,8.05664 18.0664,8.05664 z"
   style="font-size:100px;line-height:0%;font-family:Helvetica, Arial, sans-serif"
   id="path4680" /><path
   d="m 1036.6748,350.67441 v -71.77735 0 h 4.834 4.8828 v 0 29.44336 0 h 37.4512 v 0 -29.44336 0 h 4.834 4.8828 v 0 71.77735 0 h -4.834 -4.8828 v 0 -33.74024 0 h -37.4512 v 0 33.74024 0 h -4.834 z"
   style="font-size:100px;line-height:0%;font-family:Helvetica, Arial, sans-serif"
   id="path4682" /><path
   d="m 865.58929,137.10855 q -15.625,0 -25.29296,-10.40039 -9.66797,-10.44922 -9.66797,-27.392578 0,-16.992187 9.66797,-27.441406 9.66796,-10.449219 25.29296,-10.449219 15.72266,0 25.3418,10.449219 9.66797,10.449219 9.66797,27.441406 0,16.943358 -9.66797,27.392578 -9.61914,10.40039 -25.3418,10.40039 z m 0,-8.59375 q 11.23047,0 18.11524,-8.05664 6.88476,-8.05664 6.88476,-21.142578 0,-13.134765 -6.88476,-21.191406 -6.88477,-8.105469 -18.11524,-8.105469 -11.18164,0 -18.0664,8.105469 -6.88477,8.056641 -6.88477,21.191406 0,13.085938 6.88477,21.142578 6.88476,8.05664 18.0664,8.05664 z"
   style="font-size:100px;line-height:0%;font-family:Helvetica, Arial, sans-serif"
   id="path4685" /><path
   d="m 143.67741,80.631187 q -2.68555,1.171875 -4.88282,2.197266 -2.14843,1.025391 -5.66406,2.148438 -2.97851,0.927734 -6.49414,1.5625 -3.4668,0.683593 -7.66601,0.683593 -7.91016,0 -14.4043,-2.197265 -6.445314,-2.246094 -11.230471,-6.982422 -4.6875,-4.638672 -7.324218,-11.767578 -2.636719,-7.177735 -2.636719,-16.650391 0,-8.984375 2.539062,-16.064453 2.539063,-7.080078 7.324219,-11.962891 4.638672,-4.736328 11.181637,-7.226562 6.5918,-2.490235 14.59961,-2.490235 5.85938,0 11.66993,1.416016 5.85937,1.416016 12.98828,4.980469 v 11.474609 h -0.73243 q -6.00585,-5.029297 -11.91406,-7.324219 -5.9082,-2.294921 -12.64648,-2.294921 -5.51758,0 -9.96094,1.80664 -4.39453,1.757813 -7.86133,5.517578 -3.369139,3.66211 -5.273436,9.277344 -1.855468,5.566406 -1.855468,12.890625 0,7.666016 2.050781,13.183594 2.099609,5.517578 5.371093,8.984375 3.41797,3.613281 7.95899,5.371094 4.58984,1.708984 9.66796,1.708984 6.98243,0 13.08594,-2.392578 6.10352,-2.392578 11.42578,-7.177735 h 0.6836 z"
   style="font-style:normal;font-variant:normal;font-weight:normal;font-stretch:normal;font-size:100px;line-height:1.25;font-family:sans-serif;-inkscape-font-specification:Sans;text-align:start;writing-mode:lr-tb;text-anchor:start"
   id="path4694" /><polygon
   transform="rotate(60.070061,295.55784,28.874851)"
   points="264.624,217.81 268.623,211.306 349.624,257.81 349.624,262.307 345.625,264.807 "
   id="polygon20-5" /><rect
   y="0"
   x="0"
   height="580"
   width="1110"
   id="rect4642"
   style="opacity:0.88999999;fill:none;fill-opacity:1;fill-rule:nonzero;stroke:none;stroke-width:21.73142052;stroke-linecap:round;stroke-linejoin:miter;stroke-miterlimit:10;stroke-dasharray:none;stroke-dashoffset:0;stroke-opacity:1;paint-order:markers fill stroke" /></svg>