<?xml version="1.0" encoding="utf-8"?>
<!-- Generator: Adobe Illustrator 13.0.2, SVG Export Plug-In . SVG Version: 6.00 Build 14948)  -->
<!DOCTYPE svg PUBLIC "-//W3C//DTD SVG 1.1//EN" "http://www.w3.org/Graphics/SVG/1.1/DTD/svg11.dtd">
<svg version="1.1" id="Ebene_1" xmlns="http://www.w3.org/2000/svg" xmlns:xlink="http://www.w3.org/1999/xlink" x="0px" y="0px"
	 width="252.25px" height="150.85px" viewBox="0 0 252.25 150.85" enable-background="new 0 0 252.25 150.85" xml:space="preserve">
<path fill="#1A171B" d="M100.759,66.58c0-2.852,0.766-5.084,2.297-6.697s3.508-2.42,5.93-2.42c1.586,0,3.016,0.379,4.289,1.137
	s2.244,1.814,2.912,3.17s1.002,2.893,1.002,4.611c0,1.742-0.352,3.301-1.055,4.676s-1.699,2.416-2.988,3.123
	s-2.68,1.061-4.172,1.061c-1.617,0-3.063-0.391-4.336-1.172s-2.238-1.848-2.895-3.199S100.759,68.088,100.759,66.58z
	 M103.103,66.615c0,2.07,0.557,3.701,1.67,4.893s2.51,1.787,4.189,1.787c1.711,0,3.119-0.602,4.225-1.805s1.658-2.91,1.658-5.121
	c0-1.398-0.236-2.619-0.709-3.662s-1.164-1.852-2.074-2.426s-1.932-0.861-3.064-0.861c-1.609,0-2.994,0.553-4.154,1.658
	S103.103,64.029,103.103,66.615z"/>
<polygon fill="#1A171B" points="212.05,5 212.05,6.95 178.55,26.3 176.85,25.3 "/>
<polygon fill="#1A171B" points="211.649,12.1 212.5,13.6 184.05,30 183.199,28.5 "/>
<polygon fill="#1A171B" points="247.25,25.3 245.55,26.3 212.05,6.95 212.05,5 "/>
<polygon fill="#1A171B" points="247.25,66 245.55,65 245.55,26.3 247.25,25.3 "/>
<rect x="239.6" y="29.25" fill="#1A171B" width="1.7" height="32.8"/>
<polygon fill="#1A171B" points="212.05,86.35 212.05,84.35 245.55,65 247.25,66 "/>
<polygon fill="#1A171B" points="177.699,66.5 177.699,65.5 178.55,65 212.05,84.35 212.05,86.35 "/>
<polygon fill="#1A171B" points="183.199,62.8 184.05,61.35 212.5,77.75 211.649,79.2 "/>
<polygon fill="#1A171B" points="178.55,65 177.699,65.5 176.85,65 176.85,25.3 178.55,26.3 "/>
<polygon fill="#1A171B" points="144.149,85.85 143.3,85.35 143.3,84.35 176.85,65 177.699,65.5 177.699,66.5 "/>
<polygon fill="#1A171B" points="144.149,125.5 142.449,124.55 142.449,85.85 143.3,85.35 144.149,85.85 "/>
<polygon fill="#1A171B" points="108.949,145.85 108.949,143.899 142.449,124.55 144.149,125.5 "/>
<polygon fill="#1A171B" points="109.399,138.75 108.55,137.25 136.949,120.85 137.8,122.35 "/>
<polygon fill="#1A171B" points="74.6,126 74.6,125.05 75.449,124.55 108.949,143.899 108.949,145.85 "/>
<polygon fill="#1A171B" points="40.199,145.85 40.199,143.899 73.75,124.55 74.6,125.05 74.6,126 "/>
<polygon fill="#1A171B" points="40.649,138.75 39.8,137.25 68.199,120.85 69.05,122.35 "/>
<polygon fill="#1A171B" points="5,125.5 6.699,124.55 40.199,143.899 40.199,145.85 "/>
<polygon fill="#1A171B" points="5,84.85 6.699,85.85 6.699,124.55 5,125.5 "/>
<rect x="10.949" y="88.8" fill="#1A171B" width="1.7" height="32.8"/>
<polygon fill="#1A171B" points="40.199,64.5 40.199,66.5 6.699,85.85 5,84.85 "/>
<polygon fill="#1A171B" points="74.6,84.35 74.6,85.35 73.75,85.85 40.199,66.5 40.199,64.5 "/>
<polygon fill="#1A171B" points="69.05,88.05 68.199,89.5 39.8,73.1 40.649,71.65 "/>
<polygon fill="#1A171B" points="73.75,85.85 74.6,85.35 75.449,85.85 75.449,124.55 74.6,125.05 73.75,124.55 "/>
<polygon fill="#1A171B" points="98.75,70.4 99.6,71.9 75.449,85.85 74.6,85.35 74.6,84.35 "/>
<polygon fill="#1A171B" points="118.3,71.9 119.149,70.4 143.3,84.35 143.3,85.35 142.449,85.85 "/>
<polygon fill="#1A171B" points="115.35,77.05 116.199,75.6 137.8,88.05 136.949,89.5 "/>
<path fill="none" stroke="#1A171B" stroke-width="1.35" d="M117.05,56.4h8 M121.05,52.4v8"/>
</svg>
