<?xml version="1.0" encoding="UTF-8" standalone="no"?>
<!-- Created with Inkscape (http://www.inkscape.org/) -->

<svg
   xmlns:dc="http://purl.org/dc/elements/1.1/"
   xmlns:cc="http://creativecommons.org/ns#"
   xmlns:rdf="http://www.w3.org/1999/02/22-rdf-syntax-ns#"
   xmlns:svg="http://www.w3.org/2000/svg"
   xmlns="http://www.w3.org/2000/svg"
   version="1.1"
   width="487.25"
   height="291.41"
   viewBox="0 0 15980 9556.9"
   id="svg2"
   xml:space="preserve"
   style="fill-rule:evenodd"><metadata
   id="metadata92"><rdf:RDF><cc:Work
       rdf:about=""><dc:format>image/svg+xml</dc:format><dc:type
         rdf:resource="http://purl.org/dc/dcmitype/StillImage" /><dc:title></dc:title></cc:Work></rdf:RDF></metadata>
 <defs
   id="defs4"><style
     type="text/css"
     id="style6" /></defs>
 <g
   transform="translate(328.5,328.45)"
   id="Ebene_x0020_1"
   style="fill:#000000;stroke:#000000">
  <metadata
   id="CorelCorpID_0Corel-Layer" />
  <path
   d="m 7262,2464 c -207,0 -344,149 -344,371 0,224 137,373 343,373 208,0 345,-149 345,-373 0,-222 -138,-371 -344,-371 l 0,0 z m -1,85 c 149,0 246,115 246,287 0,172 -97,287 -245,287 -148,0 -245,-115 -245,-288 0,-170 98,-286 244,-286 l 0,0 z"
   id="path10"
   style="fill:#000000;stroke:#000000" />
  <path
   d="m 5889,3636 0,1587 -35,20 -35,-20 0,-1587 35,-20 z"
   id="polygon12"
   style="fill:#000000;stroke:#000000" />
  <path
   d="m 5645,3757 0,1345 -70,0 0,-1345 z"
   id="polygon14"
   style="fill:#000000;stroke:#000000" />
  <path
   d="m 7262,6096 -1408,-814 0,-39 35,-20 1373,793 z"
   id="polygon16"
   style="fill:#000000;stroke:#000000" />
  <path
   d="m 8672,5243 -2,41 -1408,812 0,-80 1376,-793 z"
   id="polygon18"
   style="fill:#000000;stroke:#000000" />
  <path
   d="m 8707,3595 0,1626 -35,22 -34,-20 0,-1587 z"
   id="polygon20"
   style="fill:#000000;stroke:#000000" />
  <path
   d="m 8638,3636 -995,-574 35,-59 1029,592 z"
   id="polygon22"
   style="fill:#000000;stroke:#000000" />
  <path
   d="m 5854,3616 0,-41 992,-572 35,59 -992,574 z"
   id="polygon24"
   style="fill:#000000;stroke:#000000" />
  <path
   d="m 5819,3636 -1373,-793 0,-41 35,-21 1373,794 0,41 z"
   id="polygon26"
   style="fill:#000000;stroke:#000000" />
  <path
   d="m 4446,2843 -1376,793 -34,-20 0,-41 1375,-794 35,21 z"
   id="polygon28"
   style="fill:#000000;stroke:#000000" />
  <path
   d="m 4462,3114 -1164,674 -35,-62 1164,-672 z"
   id="polygon30"
   style="fill:#000000;stroke:#000000" />
  <path
   d="m 3001,5264 0,-1628 35,-20 34,20 0,1587 z"
   id="polygon32"
   style="fill:#000000;stroke:#000000" />
  <path
   d="m 3070,5223 1376,793 0,80 -1445,-832 z"
   id="polygon34"
   style="fill:#000000;stroke:#000000" />
  <path
   d="m 3298,5071 1164,672 -35,62 -1164,-672 z"
   id="polygon36"
   style="fill:#000000;stroke:#000000" />
  <path
   d="m 5854,5243 0,39 -1408,814 0,-80 1373,-793 z"
   id="polygon38"
   style="fill:#000000;stroke:#000000" />
  <path
   d="m 1627,2464 c -207,0 -344,149 -344,371 0,224 137,373 343,373 208,0 345,-149 345,-373 0,-222 -138,-371 -344,-371 l 0,0 z m -1,85 c 149,0 246,115 246,287 0,172 -97,287 -245,287 -148,0 -245,-115 -245,-288 0,-170 98,-286 244,-286 l 0,0 z"
   id="path40"
   style="fill:#000000;stroke:#000000" />
  <path
   d="m 4481,1156 0,1625 -35,21 -35,-21 0,-1586 z"
   id="polygon42"
   style="fill:#000000;stroke:#000000" />
  <path
   d="m 4411,1195 -1375,-793 0,-80 1445,834 z"
   id="polygon44"
   style="fill:#000000;stroke:#000000" />
  <path
   d="m 4184,1347 -1165,-673 35,-61 1164,674 z"
   id="polygon46"
   style="fill:#000000;stroke:#000000" />
  <path
   d="m 1627,1177 7,-46 1402,-809 0,80 -1374,793 z"
   id="polygon48"
   style="fill:#000000;stroke:#000000" />
  <path
   d="m 1593,2378 0,-1167 34,-34 35,18 0,1183 z"
   id="polygon50"
   style="fill:#000000;stroke:#000000" />
  <path
   d="m 3036,3616 -35,20 -990,-572 35,-61 990,572 z"
   id="polygon52"
   style="fill:#000000;stroke:#000000" />
  <path
   d="m 0,1142 1543,0 84,35 -34,34 -1593,0 z"
   id="polygon54"
   style="fill:#000000;stroke:#000000" />
  <path
   d="m 502,0 1132,1131 -7,46 -84,-35 L 453,49 z"
   id="polygon56"
   style="fill:#000000;stroke:#000000" />
  <path
   d="m 8707,5221 1499,721 -125,113 -35,166 -1376,-937 2,-41 z"
   id="polygon58"
   style="fill:#000000;stroke:#000000" />
  <path
   d="m 10115,6075 0,1587 -34,20 -35,-20 0,-1441 35,-166 z"
   id="polygon60"
   style="fill:#000000;stroke:#000000" />
  <path
   d="m 10359,6196 0,1345 -69,0 0,-1345 z"
   id="polygon62"
   style="fill:#000000;stroke:#000000" />
  <path
   d="m 11489,8535 -1408,-812 0,-41 34,-20 1374,793 z"
   id="polygon64"
   style="fill:#000000;stroke:#000000" />
  <path
   d="m 12897,7682 0,41 -1408,812 0,-80 1373,-793 z"
   id="polygon66"
   style="fill:#000000;stroke:#000000" />
  <path
   d="m 11470,8185 1167,-673 34,60 -1166,672 z"
   id="polygon68"
   style="fill:#000000;stroke:#000000" />
  <path
   d="m 12932,6034 0,1628 -35,20 -35,-20 0,-1587 z"
   id="polygon70"
   style="fill:#000000;stroke:#000000" />
  <path
   d="m 12862,6075 -1373,-793 0,-80 1443,832 z"
   id="polygon72"
   style="fill:#000000;stroke:#000000" />
  <path
   d="m 12637,6227 -1167,-672 35,-62 1166,673 z"
   id="polygon74"
   style="fill:#000000;stroke:#000000" />
  <path
   d="m 10081,6055 125,-113 1283,-740 0,80 -1374,793 z"
   id="polygon76"
   style="fill:#000000;stroke:#000000" />
  <path
   d="m 7756,8175 -96,0 0,706 96,0 0,-329 367,0 0,329 97,0 0,-706 -97,0 0,291 -367,0 z"
   id="polygon78"
   style="fill:#000000;stroke:#000000" />
  <path
   d="m 8677,8156 c -207,0 -344,149 -344,371 0,224 137,373 343,373 208,0 345,-149 345,-373 0,-222 -138,-371 -344,-371 l 0,0 z m -1,85 c 149,0 246,115 246,287 0,172 -97,287 -245,287 -148,0 -245,-115 -245,-288 0,-170 98,-286 244,-286 z"
   id="path80"
   style="fill:#000000;stroke:#000000" />
  <path
   d="m 9027,8250 1019,-588 35,20 0,41 -1019,587 z"
   id="polygon82"
   style="fill:#000000;stroke:#000000" />
  <path
   d="m 14304,8156 c -207,0 -344,149 -344,371 0,224 137,373 343,373 208,0 345,-149 345,-373 0,-222 -138,-371 -344,-371 l 0,0 z m -1,85 c 149,0 246,115 246,287 0,172 -97,287 -245,287 -148,0 -245,-115 -245,-288 0,-170 98,-286 244,-286 l 0,0 z"
   id="path84"
   style="fill:#000000;stroke:#000000" />
  <path
   d="m 14859,8175 -96,0 0,706 96,0 0,-329 367,0 0,329 97,0 0,-706 -97,0 0,291 -367,0 z"
   id="polygon86"
   style="fill:#000000;stroke:#000000" />
  <path
   d="m 13918,8312 -1021,-589 0,-41 35,-20 1021,588 z"
   id="polygon88"
   style="fill:#000000;stroke:#000000" />
 </g>
</svg>