<?xml version="1.0" encoding="UTF-8"?>
<svg width="251pt" version="1.1" xmlns="http://www.w3.org/2000/svg" height="203pt" viewBox="0 0 251 203" xmlns:xlink="http://www.w3.org/1999/xlink">
 <defs>
  <clipPath id="Clip0">
   <path d="M0 0 L251 0 L251 203 L0 203 L0 0 Z" transform="translate(0, 0)"/>
  </clipPath>
 </defs>
 <g id="Hintergrund">
  <g id="Gruppe1" clip-path="url(#Clip0)">
   <path style="fill:#999999; fill-rule:evenodd;stroke:none;" d="M2.613 0 C1.011 2.1015 0 5.0234 0 7.5429 C0 10.0781 1.011 13 2.613 15.1015 L3.496 15.1015 C2.086 12.8047 1.3 10.1093 1.3 7.5429 C1.3 4.9922 2.086 2.2812 3.496 0 L2.613 0 Z" transform="translate(110.972, 66.4512)"/>
   <path style="fill:#999999; fill-rule:evenodd;stroke:none;" d="M8.793 3.625 C8.793 2.8242 8.747 2.5976 8.489 2.0547 C7.848 0.707 6.485 0 4.512 0 C1.942 0 0.356 1.3164 0.356 3.4336 C0.356 4.8632 1.11 5.7617 2.649 6.1601 L5.555 6.9336 C7.047 7.3164 7.704 7.9101 7.704 8.8242 C7.704 9.4531 7.368 10.0937 6.868 10.4453 C6.403 10.7851 5.665 10.9453 4.719 10.9453 C3.434 10.9453 2.586 10.6406 2.024 9.9648 C1.59 9.4531 1.399 8.8906 1.415 8.1679 L0 8.1679 C0.016 9.2422 0.227 9.9492 0.692 10.5898 C1.493 11.6992 2.84 12.2578 4.622 12.2578 C6.02 12.2578 7.157 11.9375 7.911 11.3593 C8.7 10.7343 9.196 9.6914 9.196 8.6797 C9.196 7.2382 8.297 6.1797 6.708 5.7461 L3.774 4.957 C2.36 4.5742 1.848 4.125 1.848 3.2265 C1.848 2.039 2.891 1.25 4.461 1.25 C6.325 1.25 7.368 2.0859 7.383 3.625 L8.793 3.625 Z" transform="translate(115.896, 66.2598)"/>
   <path style="fill:#999999; fill-rule:evenodd;stroke:none;" d="M0.883 15.1015 C2.488 13 3.5 10.0781 3.5 7.5586 C3.5 5.0234 2.488 2.1015 0.883 0 L0 0 C1.414 2.2968 2.199 4.9922 2.199 7.5586 C2.199 10.1093 1.414 12.8242 0 15.1015 L0.883 15.1015 Z" transform="translate(126.408, 66.4512)"/>
   <path style="fill:#999999; fill-rule:evenodd;stroke:none;" d="M2.613 0 C1.011 2.1015 0 5.0234 0 7.5429 C0 10.0781 1.011 13 2.613 15.1015 L3.496 15.1015 C2.086 12.8047 1.3 10.1093 1.3 7.5429 C1.3 4.9922 2.086 2.2812 3.496 0 L2.613 0 Z" transform="translate(110.972, 66.4512)"/>
   <path style="fill:#999999; fill-rule:evenodd;stroke:none;" d="M8.793 3.625 C8.793 2.8242 8.747 2.5976 8.489 2.0547 C7.848 0.707 6.485 0 4.512 0 C1.942 0 0.356 1.3164 0.356 3.4336 C0.356 4.8632 1.11 5.7617 2.649 6.1601 L5.555 6.9336 C7.047 7.3164 7.704 7.9101 7.704 8.8242 C7.704 9.4531 7.368 10.0937 6.868 10.4453 C6.403 10.7851 5.665 10.9453 4.719 10.9453 C3.434 10.9453 2.586 10.6406 2.024 9.9648 C1.59 9.4531 1.399 8.8906 1.415 8.1679 L0 8.1679 C0.016 9.2422 0.227 9.9492 0.692 10.5898 C1.493 11.6992 2.84 12.2578 4.622 12.2578 C6.02 12.2578 7.157 11.9375 7.911 11.3593 C8.7 10.7343 9.196 9.6914 9.196 8.6797 C9.196 7.2382 8.297 6.1797 6.708 5.7461 L3.774 4.957 C2.36 4.5742 1.848 4.125 1.848 3.2265 C1.848 2.039 2.891 1.25 4.461 1.25 C6.325 1.25 7.368 2.0859 7.383 3.625 L8.793 3.625 Z" transform="translate(115.896, 66.2598)"/>
   <path style="fill:#999999; fill-rule:evenodd;stroke:none;" d="M0.883 15.1015 C2.488 13 3.5 10.0781 3.5 7.5586 C3.5 5.0234 2.488 2.1015 0.883 0 L0 0 C1.414 2.2968 2.199 4.9922 2.199 7.5586 C2.199 10.1093 1.414 12.8242 0 15.1015 L0.883 15.1015 Z" transform="translate(126.408, 66.4512)"/>
   <path style="fill:#000000; fill-rule:nonzero;stroke:none;" d="M1.7 39.2 L0 40.2 L0 0.5 L0.85 0 L1.7 0.5 L1.7 39.2 Z" transform="translate(107.15, 67.5)"/>
   <path style="fill:#000000; fill-rule:nonzero;stroke:none;" d="M35.2 19.35 L35.2 21.3 L0 1 L1.7 0 L35.2 19.35 Z" transform="translate(107.15, 106.7)"/>
   <path style="fill:#000000; fill-rule:nonzero;stroke:none;" d="M33.55 0 L34.4 0.5 L34.4 1.45 L0 21.3 L0 19.35 L33.55 0 Z" transform="translate(142.35, 106.7)"/>
   <path style="fill:#000000; fill-rule:nonzero;stroke:none;" d="M28.4 0 L29.25 1.5 L0.85 17.9 L0 16.4 L28.4 0 Z" transform="translate(141.95, 103)"/>
   <path style="fill:#000000; fill-rule:nonzero;stroke:none;" d="M0 1 L1.7 0 L1.7 39.7 L0.85 40.2 L0 39.7 L0 1 Z" transform="translate(175.9, 67)"/>
   <path style="fill:#000000; fill-rule:nonzero;stroke:none;" d="M0 2 L0 0 L35.25 20.3496 L33.55 21.3496 L0 2 Z" transform="translate(142.35, 46.6504)"/>
   <path style="fill:#000000; fill-rule:nonzero;stroke:none;" d="M0.85 21.3496 L0 20.8496 L0 19.8496 L34.35 0 L34.35 2 L0.85 21.3496 Z" transform="translate(108, 46.6504)"/>
   <path style="fill:#999999; fill-rule:evenodd;stroke:none;" d="M2.6133 0 C1.0117 2.1015 0 5.0234 0 7.5429 C0 10.0781 1.0117 13 2.6133 15.1015 L3.4961 15.1015 C2.0859 12.8047 1.3008 10.1094 1.3008 7.5429 C1.3008 4.9922 2.0859 2.2812 3.4961 0 L2.6133 0 Z" transform="translate(64.1221, 54.501)"/>
   <path style="fill:#999999; fill-rule:evenodd;stroke:none;" d="M8.7929 3.625 C8.7929 2.8242 8.7461 2.5976 8.4883 2.0547 C7.8476 0.707 6.4844 0 4.5117 0 C1.9414 0 0.3554 1.3164 0.3554 3.4336 C0.3554 4.8633 1.1094 5.7617 2.6484 6.1601 L5.5547 6.9336 C7.0469 7.3164 7.7031 7.9101 7.7031 8.8242 C7.7031 9.4531 7.3672 10.0937 6.8672 10.4453 C6.4023 10.7851 5.664 10.9453 4.7187 10.9453 C3.4336 10.9453 2.5859 10.6406 2.0234 9.9648 C1.5898 9.4531 1.3984 8.8906 1.414 8.1679 L0 8.1679 C0.0156 9.2422 0.2265 9.9492 0.6914 10.5898 C1.4922 11.6992 2.8398 12.2578 4.6211 12.2578 C6.0195 12.2578 7.1562 11.9375 7.9101 11.3593 C8.6992 10.7343 9.1953 9.6914 9.1953 8.6797 C9.1953 7.2383 8.2969 6.1797 6.707 5.7461 L3.7734 4.957 C2.3594 4.5742 1.8476 4.125 1.8476 3.2265 C1.8476 2.039 2.8906 1.25 4.4609 1.25 C6.3242 1.25 7.3672 2.0859 7.3828 3.625 L8.7929 3.625 Z" transform="translate(69.0469, 54.3096)"/>
   <path style="fill:#999999; fill-rule:evenodd;stroke:none;" d="M0.8828 15.1015 C2.4883 13 3.5 10.0781 3.5 7.5586 C3.5 5.0234 2.4883 2.1015 0.8828 0 L0 0 C1.4141 2.2969 2.1992 4.9922 2.1992 7.5586 C2.1992 10.1094 1.4141 12.8242 0 15.1015 L0.8828 15.1015 Z" transform="translate(79.5586, 54.501)"/>
   <path style="fill:#999999; fill-rule:evenodd;stroke:none;" d="M2.6133 0 C1.0117 2.1015 0 5.0234 0 7.5429 C0 10.0781 1.0117 13 2.6133 15.1015 L3.4961 15.1015 C2.0859 12.8047 1.3008 10.1094 1.3008 7.5429 C1.3008 4.9922 2.0859 2.2812 3.4961 0 L2.6133 0 Z" transform="translate(64.1221, 54.501)"/>
   <path style="fill:#999999; fill-rule:evenodd;stroke:none;" d="M8.7929 3.625 C8.7929 2.8242 8.7461 2.5976 8.4883 2.0547 C7.8476 0.707 6.4844 0 4.5117 0 C1.9414 0 0.3554 1.3164 0.3554 3.4336 C0.3554 4.8633 1.1094 5.7617 2.6484 6.1601 L5.5547 6.9336 C7.0469 7.3164 7.7031 7.9101 7.7031 8.8242 C7.7031 9.4531 7.3672 10.0937 6.8672 10.4453 C6.4023 10.7851 5.664 10.9453 4.7187 10.9453 C3.4336 10.9453 2.5859 10.6406 2.0234 9.9648 C1.5898 9.4531 1.3984 8.8906 1.414 8.1679 L0 8.1679 C0.0156 9.2422 0.2265 9.9492 0.6914 10.5898 C1.4922 11.6992 2.8398 12.2578 4.6211 12.2578 C6.0195 12.2578 7.1562 11.9375 7.9101 11.3593 C8.6992 10.7343 9.1953 9.6914 9.1953 8.6797 C9.1953 7.2383 8.2969 6.1797 6.707 5.7461 L3.7734 4.957 C2.3594 4.5742 1.8476 4.125 1.8476 3.2265 C1.8476 2.039 2.8906 1.25 4.4609 1.25 C6.3242 1.25 7.3672 2.0859 7.3828 3.625 L8.7929 3.625 Z" transform="translate(69.0469, 54.3096)"/>
   <path style="fill:#999999; fill-rule:evenodd;stroke:none;" d="M0.8828 15.1015 C2.4883 13 3.5 10.0781 3.5 7.5586 C3.5 5.0234 2.4883 2.1015 0.8828 0 L0 0 C1.4141 2.2969 2.1992 4.9922 2.1992 7.5586 C2.1992 10.1094 1.4141 12.8242 0 15.1015 L0.8828 15.1015 Z" transform="translate(79.5586, 54.501)"/>
   <path style="fill:#000000; fill-rule:nonzero;stroke:none;" d="M0 1.6504 L0 0.6504 L0.5996 0 L34.3496 19.5 L34.3496 20.5 L33.4996 21 L0 1.6504 Z" transform="translate(73.6504, 47)"/>
   <path style="fill:#000000; fill-rule:nonzero;stroke:none;" d="M1.6992 20.5498 L0 19.5498 L33.8994 0 L35.25 0.2002 L35.25 1.2002 L1.6992 20.5498 Z" transform="translate(38.4004, 47.4502)"/>
   <path style="fill:#000000; fill-rule:nonzero;stroke:none;" d="M1.6992 39.7 L0 40.7 L0 0 L1.6992 1 L1.6992 39.7 Z" transform="translate(38.4004, 67)"/>
   <path style="fill:#000000; fill-rule:nonzero;stroke:none;" d="M36.0996 19.85 L34.3994 20.8 L0 1 L1.6992 0 L36.0996 19.85 Z" transform="translate(38.4004, 106.7)"/>
   <path style="fill:#000000; fill-rule:nonzero;stroke:none;" d="M1.7002 39.7 L0.8506 40.15 L0 39.7 L0 0.95 L1.7002 0 L1.7002 39.7 Z" transform="translate(72.7998, 126.55)"/>
   <path style="fill:#000000; fill-rule:nonzero;stroke:none;" d="M1.7002 32.85 L0 32.85 L0 0 L1.7002 0 L1.7002 32.85 Z" transform="translate(66.8496, 130.45)"/>
   <path style="fill:#000000; fill-rule:evenodd;stroke:none;" d="M11.2266 9.528 L11.2266 17.492 L13.4609 17.492 L13.4609 0 L11.2266 0 L11.2266 7.559 L2.23047 7.559 L2.23047 0 L0 0 L0 17.492 L2.23047 17.492 L2.23047 9.528 L11.2266 9.528 Z" transform="translate(4.16699, 177.658)"/>
   <path style="fill:#000000; fill-rule:evenodd;stroke:none;" d="M3.4062 6.926 L3.6054 6.926 L4.2734 6.906 C6.0234 6.906 6.9219 7.699 6.9219 9.235 C6.9219 10.836 5.9336 11.793 4.2734 11.793 C2.5429 11.793 1.6953 10.926 1.5859 9.071 L0 9.071 C0.0703 10.098 0.25 10.766 0.5586 11.344 C1.207 12.571 2.4687 13.199 4.2187 13.199 C6.8515 13.199 8.5469 11.633 8.5469 9.215 C8.5469 7.59 7.914 6.692 6.3828 6.168 C7.5742 5.68 8.1679 4.797 8.1679 3.516 C8.1679 1.317 6.707 0 4.2734 0 C1.6953 0 0.3242 1.406 0.2695 4.129 L1.8554 4.129 C1.875 3.356 1.9453 2.922 2.1445 2.524 C2.5039 1.821 3.3008 1.387 4.289 1.387 C5.6992 1.387 6.5469 2.199 6.5469 3.571 C6.5469 4.473 6.2187 5.012 5.5156 5.301 C5.0859 5.481 4.5234 5.555 3.4062 5.571 L3.4062 6.926 Z" transform="translate(20.0801, 186.865)"/>
   <path style="fill:#000000; fill-rule:evenodd;stroke:none;" d="M14.7305 5.711 C14.0352 1.875 11.8281 0 7.9883 0 C5.6367 0 3.7422 0.746 2.4453 2.184 C0.8633 3.914 0 6.41 0 9.238 C0 12.117 0.8867 14.59 2.5195 16.293 C3.8867 17.684 5.6133 18.332 7.8945 18.332 C12.1641 18.332 14.5625 16.031 15.0899 11.399 L12.7891 11.399 C12.5977 12.598 12.3555 13.414 11.9961 14.11 C11.2774 15.551 9.7891 16.367 7.918 16.367 C4.4375 16.367 2.2305 13.582 2.2305 9.215 C2.2305 4.731 4.3164 1.969 7.7266 1.969 C9.1406 1.969 10.4609 2.379 11.1797 3.074 C11.8281 3.672 12.1875 4.395 12.4531 5.711 L14.7305 5.711 Z" transform="translate(30.6621, 177.369)"/>
   <path style="fill:#000000; fill-rule:nonzero;stroke:none;" d="M0.8506 16.6 L0 15.1 L26.25 0 L27.1006 0.45 L27.1006 1.45 L0.8506 16.6 Z" transform="translate(46.5498, 166.25)"/>
   <path style="fill:#000000; fill-rule:evenodd;stroke:none;" d="M14.73 5.711 C14.035 1.875 11.828 0 7.988 0 C5.636 0 3.742 0.746 2.445 2.184 C0.863 3.914 0 6.41 0 9.238 C0 12.117 0.886 14.59 2.519 16.293 C3.886 17.684 5.613 18.332 7.894 18.332 C12.164 18.332 14.562 16.031 15.09 11.399 L12.789 11.399 C12.597 12.598 12.355 13.414 11.996 14.11 C11.277 15.551 9.789 16.367 7.918 16.367 C4.437 16.367 2.23 13.582 2.23 9.215 C2.23 4.731 4.316 1.969 7.726 1.969 C9.14 1.969 10.461 2.379 11.179 3.074 C11.828 3.672 12.187 4.395 12.453 5.711 L14.73 5.711 Z" transform="translate(101.553, 177.369)"/>
   <path style="fill:#000000; fill-rule:evenodd;stroke:none;" d="M11.226 9.528 L11.226 17.492 L13.461 17.492 L13.461 0 L11.226 0 L11.226 7.559 L2.23 7.559 L2.23 0 L0 0 L0 17.492 L2.23 17.492 L2.23 9.528 L11.226 9.528 Z" transform="translate(119.72, 177.658)"/>
   <path style="fill:#000000; fill-rule:evenodd;stroke:none;" d="M3.406 6.926 L3.605 6.926 L4.273 6.906 C6.023 6.906 6.922 7.699 6.922 9.235 C6.922 10.836 5.933 11.793 4.273 11.793 C2.543 11.793 1.695 10.926 1.586 9.071 L0 9.071 C0.07 10.098 0.25 10.766 0.558 11.344 C1.207 12.571 2.469 13.199 4.219 13.199 C6.851 13.199 8.547 11.633 8.547 9.215 C8.547 7.59 7.914 6.692 6.383 6.168 C7.574 5.68 8.168 4.797 8.168 3.516 C8.168 1.317 6.707 0 4.273 0 C1.695 0 0.324 1.406 0.269 4.129 L1.855 4.129 C1.875 3.356 1.945 2.922 2.144 2.524 C2.504 1.821 3.301 1.387 4.289 1.387 C5.699 1.387 6.547 2.199 6.547 3.571 C6.547 4.473 6.219 5.012 5.515 5.301 C5.086 5.481 4.523 5.555 3.406 5.571 L3.406 6.926 Z" transform="translate(135.633, 186.865)"/>
   <path style="fill:#000000; fill-rule:nonzero;stroke:none;" d="M25.75 14.4 L24.8994 15.85 L0 1.45 L0 0.45 L0.8496 0 L25.75 14.4 Z" transform="translate(73.6504, 166.25)"/>
   <path style="fill:#000000; fill-rule:evenodd;stroke:none;" d="M14.731 5.711 C14.035 1.875 11.828 0 7.988 0 C5.637 0 3.742 0.746 2.445 2.184 C0.863 3.914 0 6.41 0 9.238 C0 12.117 0.887 14.59 2.52 16.293 C3.887 17.684 5.613 18.332 7.895 18.332 C12.164 18.332 14.563 16.031 15.09 11.399 L12.789 11.399 C12.598 12.598 12.356 13.414 11.996 14.11 C11.277 15.551 9.789 16.367 7.918 16.367 C4.438 16.367 2.231 13.582 2.231 9.215 C2.231 4.731 4.317 1.969 7.727 1.969 C9.141 1.969 10.461 2.379 11.18 3.074 C11.828 3.672 12.188 4.395 12.453 5.711 L14.731 5.711 Z" transform="translate(204.702, 117.869)"/>
   <path style="fill:#000000; fill-rule:evenodd;stroke:none;" d="M11.227 9.528 L11.227 17.492 L13.461 17.492 L13.461 0 L11.227 0 L11.227 7.559 L2.231 7.559 L2.231 0 L0 0 L0 17.492 L2.231 17.492 L2.231 9.528 L11.227 9.528 Z" transform="translate(222.869, 118.158)"/>
   <path style="fill:#000000; fill-rule:evenodd;stroke:none;" d="M3.406 6.926 L3.606 6.926 L4.274 6.906 C6.024 6.906 6.922 7.699 6.922 9.235 C6.922 10.836 5.934 11.793 4.274 11.793 C2.543 11.793 1.696 10.926 1.586 9.071 L0 9.071 C0.071 10.098 0.25 10.766 0.559 11.344 C1.207 12.571 2.469 13.199 4.219 13.199 C6.852 13.199 8.547 11.633 8.547 9.215 C8.547 7.59 7.914 6.692 6.383 6.168 C7.574 5.68 8.168 4.797 8.168 3.516 C8.168 1.317 6.707 0 4.274 0 C1.696 0 0.324 1.406 0.27 4.129 L1.856 4.129 C1.875 3.356 1.946 2.922 2.145 2.524 C2.504 1.821 3.301 1.387 4.289 1.387 C5.699 1.387 6.547 2.199 6.547 3.571 C6.547 4.473 6.219 5.012 5.516 5.301 C5.086 5.481 4.524 5.555 3.406 5.571 L3.406 6.926 Z" transform="translate(238.782, 127.365)"/>
   <path style="fill:#000000; fill-rule:nonzero;stroke:none;" d="M25.8 14.4 L24.95 15.85 L0 1.45 L0 0.5 L0.85 0 L25.8 14.4 Z" transform="translate(176.75, 106.7)"/>
   <path style="fill:#000000; fill-rule:evenodd;stroke:none;" d="M11.2266 9.5274 L11.2266 17.4922 L13.4609 17.4922 L13.4609 0 L11.2266 0 L11.2266 7.5586 L2.2305 7.5586 L2.2305 0 L0 0 L0 17.4922 L2.2305 17.4922 L2.2305 9.5274 L11.2266 9.5274 Z" transform="translate(65.0918, 78.7578)"/>
   <path style="fill:#000000; fill-rule:nonzero;stroke:none;" d="M3.6006 7.3994 L0 0.6494 L1.6006 0 L5 6.4492 L3.6006 7.3994 Z" transform="translate(78.8496, 77.9004)"/>
   <path style="fill:#000000; fill-rule:nonzero;stroke:none;" d="M3.0498 6.4004 L0 0.6006 L1.6006 0 L4.4502 5.4502 L3.0498 6.4004 Z" transform="translate(83.5498, 76.0996)"/>
   <path style="fill:#000000; fill-rule:nonzero;stroke:none;" d="M2.5498 5.4004 L0 0.5996 L1.5996 0 L3.9502 4.4502 L2.5498 5.4004 Z" transform="translate(88.2002, 74.25)"/>
   <path style="fill:#000000; fill-rule:nonzero;stroke:none;" d="M2 4.4492 L0 0.6494 L1.5996 0 L3.3994 3.5 L2 4.4492 Z" transform="translate(92.9004, 72.4004)"/>
   <path style="fill:#000000; fill-rule:nonzero;stroke:none;" d="M1.5 3.4502 L0 0.6504 L1.6006 0 L2.9502 2.5 L1.5 3.4502 Z" transform="translate(97.5498, 70.5498)"/>
   <path style="fill:#000000; fill-rule:nonzero;stroke:none;" d="M0.95 2.4502 L0 0.5996 L1.6 0 L2.4 1.5 L0.95 2.4502 Z" transform="translate(102.25, 68.75)"/>
   <path style="fill:#000000; fill-rule:evenodd;stroke:none;" d="M8.4218 0 C3.4101 0 0 3.69531 0 9.16796 C0 14.6602 3.3828 18.3321 8.4492 18.3321 C10.582 18.3321 12.4531 17.6836 13.8711 16.4844 C15.7656 14.8789 16.8948 12.168 16.8948 9.31246 C16.8948 3.67188 13.5586 0 8.4218 0 Z M8.4218 1.96875 C12.2148 1.96875 14.6601 4.82426 14.6601 9.26176 C14.6601 13.4883 12.1406 16.3672 8.4492 16.3672 C4.7031 16.3672 2.2343 13.4883 2.2343 9.16796 C2.2343 4.84766 4.7031 1.96875 8.4218 1.96875 Z" transform="translate(84.1602, 5.61914)"/>
   <path style="fill:#000000; fill-rule:evenodd;stroke:none;" d="M11.227 9.5273 L11.227 17.4922 L13.461 17.4922 L13.461 0 L11.227 0 L11.227 7.5586 L2.231 7.5586 L2.231 0 L0 0 L0 17.4922 L2.231 17.4922 L2.231 9.5273 L11.227 9.5273 Z" transform="translate(103.914, 5.9082)"/>
   <path style="fill:#000000; fill-rule:nonzero;stroke:none;" d="M0.5996 0 L7.2998 3.6504 L6.2998 5.0498 L0 1.5996 L0.5996 0 Z" transform="translate(82.2002, 22.75)"/>
   <path style="fill:#000000; fill-rule:nonzero;stroke:none;" d="M0.6504 0 L6.1504 3 L5.1504 4.3506 L0 1.6006 L0.6504 0 Z" transform="translate(80.3496, 27.5498)"/>
   <path style="fill:#000000; fill-rule:nonzero;stroke:none;" d="M0.6006 0 L4.9004 2.3506 L3.9004 3.75 L0 1.6504 L0.6006 0 Z" transform="translate(78.5498, 32.2998)"/>
   <path style="fill:#000000; fill-rule:nonzero;stroke:none;" d="M0.5996 0 L3.7002 1.7002 L2.7002 3.1006 L0 1.6006 L0.5996 0 Z" transform="translate(76.75, 37.0996)"/>
   <path style="fill:#000000; fill-rule:nonzero;stroke:none;" d="M0.5996 0 L2.5 1.0498 L1.5 2.3994 L0 1.5996 L0.5996 0 Z" transform="translate(74.9004, 41.9004)"/>
   <path style="fill:#000000; fill-rule:evenodd;stroke:none;" d="M11.2266 9.5273 L11.2266 17.4922 L13.4609 17.4922 L13.4609 0 L11.2266 0 L11.2266 7.5586 L2.2305 7.5586 L2.2305 0 L0 0 L0 17.4922 L2.2305 17.4922 L2.2305 9.5273 L11.2266 9.5273 Z" transform="translate(14.167, 4.9082)"/>
   <path style="fill:#000000; fill-rule:evenodd;stroke:none;" d="M3.4062 6.9258 L3.6054 6.9258 L4.2734 6.9063 C6.0234 6.9063 6.9219 7.6993 6.9219 9.2344 C6.9219 10.836 5.9336 11.793 4.2734 11.793 C2.5429 11.793 1.6953 10.9258 1.5859 9.0703 L0 9.0703 C0.0703 10.0977 0.25 10.7657 0.5586 11.3438 C1.207 12.5703 2.4687 13.1993 4.2187 13.1993 C6.8515 13.1993 8.5469 11.6328 8.5469 9.2149 C8.5469 7.5899 7.914 6.6914 6.3828 6.168 C7.5742 5.6797 8.1679 4.7969 8.1679 3.5157 C8.1679 1.3164 6.707 0 4.2734 0 C1.6953 0 0.3242 1.4063 0.2695 4.1289 L1.8554 4.1289 C1.875 3.3555 1.9453 2.9219 2.1445 2.5235 C2.5039 1.8203 3.3008 1.3868 4.289 1.3868 C5.6992 1.3868 6.5469 2.1993 6.5469 3.5703 C6.5469 4.4727 6.2187 5.0118 5.5156 5.3008 C5.0859 5.4805 4.5234 5.5547 3.4062 5.5703 L3.4062 6.9258 Z" transform="translate(30.0801, 14.1152)"/>
   <path style="fill:#000000; fill-rule:evenodd;stroke:none;" d="M14.7305 5.71096 C14.0352 1.875 11.8281 0 7.9883 0 C5.6367 0 3.7422 0.74609 2.4453 2.18359 C0.8633 3.91406 0 6.41016 0 9.23826 C0 12.1172 0.8867 14.5899 2.5195 16.293 C3.8867 17.6836 5.6133 18.3321 7.8945 18.3321 C12.1641 18.3321 14.5625 16.0313 15.0899 11.3985 L12.7891 11.3985 C12.5977 12.5977 12.3555 13.4141 11.9961 14.1094 C11.2774 15.5508 9.7891 16.3672 7.918 16.3672 C4.4375 16.3672 2.2305 13.5821 2.2305 9.21486 C2.2305 4.73047 4.3164 1.96875 7.7266 1.96875 C9.1406 1.96875 10.4609 2.37891 11.1797 3.07422 C11.8281 3.67188 12.1875 4.39453 12.4531 5.71096 L14.7305 5.71096 Z" transform="translate(40.6621, 4.61914)"/>
   <path style="fill:#000000; fill-rule:nonzero;stroke:none;" d="M0 4.5 L6.2002 0 L22.25 27.4004 L21.6504 28.0508 L20.2998 27.8506 L0 4.5 Z" transform="translate(52, 19.5996)"/>
  </g>
 </g>
</svg>
