<?xml version="1.0" standalone="no"?>
<!DOCTYPE svg PUBLIC "-//W3C//DTD SVG 20010904//EN"
 "http://www.w3.org/TR/2001/REC-SVG-20010904/DTD/svg10.dtd">
<svg version="1.0" xmlns="http://www.w3.org/2000/svg"
 width="577.000000pt" height="800.000000pt" viewBox="0 0 577.000000 800.000000"
 preserveAspectRatio="xMidYMid meet">

<g transform="translate(0.000000,800.000000) scale(0.100000,-0.100000)"
fill="#000000" stroke="none">
<path d="M2478 7614 c-54 -17 -126 -82 -157 -143 -27 -52 -51 -152 -51 -214 0
-124 62 -260 143 -314 64 -43 117 -56 202 -51 131 9 212 73 249 198 23 78 22
80 -29 80 -44 0 -44 0 -55 -42 -26 -103 -71 -145 -162 -155 -144 -15 -241 79
-255 247 -13 152 45 283 140 319 49 19 138 13 187 -11 43 -22 60 -43 80 -100
8 -25 15 -28 51 -28 l41 0 -6 38 c-15 83 -85 160 -165 182 -51 14 -158 11
-213 -6z"/>
<path d="M1190 7265 l0 -355 45 0 45 0 0 165 0 165 178 -2 177 -3 3 -162 2
-163 45 0 45 0 0 355 0 355 -45 0 -45 0 0 -155 0 -155 -180 0 -180 0 0 155 0
155 -45 0 -45 0 0 -355z"/>
<path d="M1950 7249 c-53 -21 -83 -63 -95 -130 -5 -29 -4 -30 27 -27 29 3 33
7 36 35 5 46 42 73 103 73 45 0 51 -3 69 -32 42 -69 15 -126 -63 -135 -45 -5
-48 -8 -45 -32 3 -23 8 -27 50 -31 63 -8 88 -32 88 -86 0 -80 -32 -114 -106
-114 -62 0 -103 33 -104 83 0 24 -3 27 -36 27 -34 0 -36 -1 -29 -27 22 -93 76
-138 165 -138 104 0 172 60 176 155 2 52 -16 93 -52 117 -25 16 -26 17 -6 32
45 36 56 114 25 170 -33 57 -134 87 -203 60z"/>
<path d="M3977 6909 c-210 -49 -317 -331 -208 -547 38 -75 76 -113 149 -149
51 -25 68 -28 152 -28 106 1 143 13 217 72 30 24 54 58 80 111 37 74 38 81 38
182 -1 92 -4 112 -27 162 -34 74 -69 119 -118 153 -68 47 -190 66 -283 44z
m187 -86 c91 -33 143 -117 154 -249 11 -144 -51 -263 -157 -299 -98 -33 -203
-12 -268 55 -49 50 -66 95 -71 189 -7 120 11 182 67 243 71 76 170 98 275 61z"/>
<path d="M2677 6753 c-21 -5 -29 45 74 -472 44 -217 78 -395 77 -396 -3 -2
-115 -68 -163 -95 -16 -9 -55 -32 -85 -50 -30 -18 -68 -41 -85 -50 -36 -21
-173 -101 -287 -169 -148 -86 -256 -150 -345 -202 -49 -28 -106 -62 -128 -76
-22 -13 -55 -31 -73 -40 -18 -9 -35 -26 -38 -38 -2 -11 -3 -341 -2 -734 l3
-715 60 -31 c100 -52 257 -136 310 -165 59 -33 154 -83 285 -153 52 -27 109
-58 125 -67 17 -10 75 -41 130 -70 126 -66 254 -135 294 -157 31 -18 31 -18
98 17 38 19 97 51 133 71 36 20 106 57 155 84 50 26 113 60 140 75 28 15 111
60 185 100 74 40 164 88 200 107 253 136 327 178 343 191 16 14 17 82 17 1169
l0 1153 -30 0 -30 0 0 -410 c0 -246 -4 -410 -9 -410 -9 0 -117 63 -471 275
-85 51 -172 102 -191 113 -20 11 -67 39 -104 61 -37 23 -68 41 -70 41 -1 0
-49 28 -106 63 -57 34 -116 68 -132 76 -15 8 -27 18 -27 21 0 4 55 40 123 81
67 40 167 99 222 132 55 33 109 65 120 71 11 6 68 40 127 75 99 59 106 66 96
85 -6 12 -12 22 -13 24 -4 4 -165 -89 -463 -270 -63 -37 -115 -68 -117 -68 -2
0 -33 -18 -70 -41 -37 -22 -68 -39 -70 -37 -4 3 -124 590 -146 708 -15 82 -29
130 -37 129 -4 -1 -15 -3 -25 -6z m231 -880 c-10 -2 -26 -2 -35 0 -10 3 -2 5
17 5 19 0 27 -2 18 -5z m37 -82 c37 -23 69 -41 72 -41 3 0 18 -9 33 -20 15
-11 57 -36 92 -56 34 -20 79 -45 98 -56 19 -11 47 -29 62 -39 14 -11 28 -19
30 -19 3 0 74 -42 160 -92 85 -51 244 -145 351 -208 l196 -115 0 -695 1 -695
-38 -21 c-20 -12 -75 -42 -122 -66 -86 -46 -105 -56 -350 -188 -74 -40 -166
-90 -205 -110 -178 -95 -232 -124 -260 -140 -16 -10 -69 -38 -116 -63 l-85
-45 -80 42 c-43 23 -137 73 -209 110 -71 38 -134 72 -140 76 -5 4 -57 32 -115
63 -58 30 -145 76 -195 102 -49 26 -103 55 -120 65 -16 9 -82 44 -145 78 -63
33 -130 68 -147 78 l-33 19 -2 695 -3 695 30 16 c17 8 109 62 205 118 96 57
189 111 205 121 124 72 452 264 505 296 37 22 73 43 80 47 8 3 47 26 85 51 39
24 75 42 82 41 6 -2 41 -22 78 -44z"/>
<path d="M2830 2810 c0 -27 3 -30 29 -30 34 0 45 12 36 40 -4 14 -15 20 -36
20 -26 0 -29 -3 -29 -30z"/>
<path d="M2790 2520 l0 -30 68 0 c38 0 71 2 74 5 3 3 3 17 0 30 -4 24 -8 25
-73 25 l-69 0 0 -30z"/>
<path d="M2760 2246 c0 -8 -3 -21 -6 -30 -5 -14 8 -16 105 -16 l111 0 0 30 0
30 -105 0 c-84 0 -105 -3 -105 -14z"/>
<path d="M2720 1940 l0 -30 146 0 146 0 -6 23 c-3 12 -6 25 -6 30 0 4 -63 7
-140 7 l-140 0 0 -30z"/>
<path d="M2859 1808 c-8 -14 -8 -23 -2 -25 6 -2 37 -20 69 -40 33 -19 77 -46
99 -58 22 -13 123 -73 225 -135 102 -62 210 -127 240 -145 30 -18 93 -55 140
-83 76 -45 86 -48 97 -33 18 24 16 39 -9 52 -31 16 -548 323 -625 370 -34 22
-64 39 -67 39 -2 0 -34 18 -70 40 -36 22 -70 40 -75 40 -6 0 -16 -10 -22 -22z"/>
<path d="M2785 1653 c-57 -34 -195 -115 -260 -153 -16 -9 -77 -45 -135 -80
-58 -35 -121 -72 -140 -83 -19 -10 -72 -41 -117 -69 -82 -49 -83 -49 -67 -73
18 -28 19 -27 112 31 29 19 55 34 58 34 3 0 29 15 57 33 29 19 140 86 248 151
l197 116 62 -35 c34 -19 74 -43 88 -54 15 -10 47 -30 72 -43 25 -14 150 -89
279 -167 128 -77 235 -141 236 -141 2 0 27 -14 55 -32 50 -31 53 -32 66 -13 8
10 14 22 14 25 0 5 -100 67 -229 141 -105 61 -567 341 -575 349 -5 5 10 18 33
29 41 21 41 22 25 46 -9 14 -17 25 -18 25 0 -1 -28 -17 -61 -37z"/>
<path d="M1620 1284 c-115 -22 -191 -83 -237 -193 -24 -59 -27 -78 -28 -182 0
-116 0 -116 40 -195 63 -124 139 -169 280 -168 155 2 242 78 279 247 7 28 6
28 -41 25 -44 -3 -47 -5 -55 -38 -32 -130 -134 -186 -260 -145 -106 34 -158
127 -158 280 0 208 108 320 274 285 70 -14 98 -37 125 -100 21 -48 23 -50 61
-50 49 0 51 12 15 89 -31 66 -59 95 -116 120 -46 20 -136 32 -179 25z"/>
<path d="M4030 1280 c-93 -16 -149 -54 -203 -136 -97 -149 -72 -417 49 -524
63 -54 118 -74 209 -74 95 0 157 23 210 80 36 37 75 126 75 169 0 23 -4 25
-44 25 -41 0 -44 -2 -50 -32 -19 -97 -77 -154 -165 -165 -106 -12 -201 51
-236 157 -25 76 -23 209 4 282 39 101 128 157 230 143 80 -11 113 -34 144 -97
27 -56 29 -58 68 -58 38 0 39 1 33 28 -19 80 -64 146 -122 176 -24 12 -136 38
-151 35 -3 -1 -26 -5 -51 -9z"/>
<path d="M266 1272 c-3 -5 -4 -166 -3 -358 l2 -349 40 0 40 0 3 163 2 162 185
0 185 0 2 -162 3 -163 40 0 40 0 0 355 0 355 -40 0 -40 0 -3 -152 -3 -153
-184 0 -185 0 0 155 0 155 -39 0 c-22 0 -42 -4 -45 -8z"/>
<path d="M4538 1273 l-38 -4 0 -339 c0 -186 3 -345 6 -354 4 -11 19 -16 45
-16 l39 0 2 163 3 162 182 3 183 2 2 -162 3 -163 40 0 40 0 0 355 c0 336 -1
355 -18 358 -10 2 -29 1 -43 -2 l-24 -6 0 -150 0 -150 -185 0 -185 0 0 155 c0
85 -3 154 -7 153 -5 -1 -25 -3 -45 -5z"/>
<path d="M992 883 c-41 -27 -57 -55 -64 -113 -3 -22 1 -25 27 -25 26 0 30 4
33 31 4 41 37 71 88 80 34 5 45 2 68 -17 34 -31 45 -89 22 -123 -12 -19 -28
-27 -66 -32 -43 -6 -50 -10 -50 -29 0 -19 7 -23 50 -29 67 -9 90 -32 90 -92 0
-56 -12 -79 -52 -100 -38 -20 -108 -12 -133 16 -10 11 -20 34 -24 52 -6 28
-11 33 -36 33 -27 0 -30 -3 -27 -30 10 -87 69 -135 168 -135 100 0 174 67 174
158 0 42 -27 97 -56 113 l-23 12 29 34 c38 43 41 108 8 160 -41 68 -150 85
-226 36z"/>
<path d="M5252 893 c-44 -21 -74 -66 -80 -119 -5 -44 -4 -44 27 -44 26 0 31 4
31 24 0 12 10 38 23 57 56 84 187 45 187 -56 0 -49 -23 -76 -107 -125 -132
-78 -165 -119 -175 -210 l-3 -35 173 -3 173 -2 -3 32 -3 33 -132 3 c-115 2
-133 5 -133 19 0 24 68 84 135 118 100 51 135 98 135 179 0 53 -32 104 -80
128 -44 22 -124 23 -168 1z"/>
</g>
</svg>
