<?xml version="1.0" encoding="UTF-8" standalone="no"?>
<!-- Created with Inkscape (http://www.inkscape.org/) -->

<svg
   width="13.717048mm"
   height="17.321877mm"
   viewBox="0 0 13.717048 17.321877"
   version="1.1"
   id="svg1"
   xmlns="http://www.w3.org/2000/svg"
   xmlns:svg="http://www.w3.org/2000/svg">
  <defs
     id="defs1" />
  <g
     id="layer1"
     transform="translate(-93.678595,-84.348056)">
    <g
       id="g83"
       transform="matrix(0.26458333,0,0,0.26458333,93.03516,81.965854)">
      <path
         id="path23"
         style="fill:#000000"
         d="m 27.798828,62.351562 c -0.87324,0.02651 -1.61466,0.499516 -2.02539,1.335938 -0.226151,0.46058 -0.25586,0.623039 -0.25586,1.386719 0,0.76289 0.02881,0.924422 0.253906,1.382812 0.28778,0.58603 0.785765,1.031273 1.365235,1.220703 0.22465,0.0735 0.618868,0.110244 0.955078,0.08984 1.48653,-0.09022 2.392595,-1.270439 2.265625,-2.949219 -0.09158,-1.21093 -0.684068,-2.054087 -1.648438,-2.341797 -0.31289,-0.09335 -0.619076,-0.133836 -0.910156,-0.125 z m 0.109375,0.646485 c 0.235595,-4.67e-4 0.477681,0.04944 0.712891,0.15625 0.72075,0.32732 1.105418,1.162232 1.011718,2.195312 -0.06111,0.67385 -0.286352,1.135429 -0.726562,1.486329 -0.2714,0.21635 -0.451884,0.28044 -0.865234,0.30664 -1.38094,0.08753 -2.191902,-1.310609 -1.707032,-2.943359 0.22077,-0.743393 0.867435,-1.199772 1.574219,-1.201172 z" />
      <path
         id="path7"
         style="fill:#000000"
         d="m 26.835938,20.388672 v 4.392578 4.392578 l -4.730469,2.728516 -4.732422,2.728515 v 6.189453 l -0.002,6.189454 4.732422,2.728515 4.732422,2.730469 v 4.664062 4.664063 h 0.271484 0.273437 v -4.511719 -4.511718 l 0.320313,0.197265 0.320312,0.197266 0.316407,-0.1875 0.316406,-0.1875 v 4.501953 4.501953 h 0.273437 0.273438 l 0.002,-4.664063 0.002,-4.664062 4.730469,-2.724609 4.730469,-2.72461 v -6.195312 -6.197266 l -4.730469,-2.728515 -4.732422,-2.726563 v -4.392578 l -0.002,-4.390625 H 28.929688 28.65625 v 4.240234 4.238282 l -0.318359,-0.197266 -0.31836,-0.195313 -0.318359,0.195313 -0.320313,0.197266 v -4.238282 -4.240234 h -0.271484 z m 1.271484,8.765625 c 0.0772,0.02242 2.371669,1.333609 5.099609,2.912109 l 4.958985,2.869141 v 5.888672 5.886719 l -4.958985,2.86914 c -2.72794,1.57772 -5.042468,2.881838 -5.142578,2.898438 -0.11165,0.01848 -2.11713,-1.091737 -5.1875,-2.873047 l -5.003906,-2.904297 -0.02344,-5.865234 -0.02344,-5.867188 5.070312,-2.927734 c 2.78876,-1.61023 5.133738,-2.909119 5.210938,-2.886719 z" />
      <path
         id="path4"
         style="fill:#000000"
         d="m 27.798828,14.208984 c -0.87324,0.02651 -1.61466,0.499515 -2.02539,1.335938 -0.226151,0.46058 -0.25586,0.621095 -0.25586,1.384766 0,0.762919 0.02881,0.926405 0.253906,1.384765 0.28778,0.58603 0.785765,1.031263 1.365235,1.220703 0.22465,0.0734 0.618868,0.110244 0.955078,0.08984 1.48653,-0.09022 2.392595,-1.270439 2.265625,-2.949219 -0.09158,-1.21093 -0.684068,-2.054087 -1.648438,-2.341797 -0.31289,-0.09335 -0.619076,-0.133837 -0.910156,-0.125 z m 0.109375,0.646485 c 0.235595,-4.67e-4 0.477681,0.04944 0.712891,0.15625 0.72075,0.32732 1.105418,1.160279 1.011718,2.193359 -0.06111,0.67383 -0.286352,1.137371 -0.726562,1.488281 -0.2714,0.21633 -0.451884,0.280441 -0.865234,0.306641 -1.38094,0.08752 -2.191902,-1.310609 -1.707032,-2.943359 0.22077,-0.743393 0.867435,-1.199774 1.574219,-1.201172 z" />
    </g>
    <rect
       style="fill:none;stroke:none;stroke-width:0.148845"
       id="rect1"
       width="13.717055"
       height="17.321877"
       x="93.678596"
       y="84.348045" />
  </g>
</svg>
