<?xml version="1.0" encoding="UTF-8" standalone="no"?><!-- Created with Inkscape (http://www.inkscape.org/) --><svg xmlns="http://www.w3.org/2000/svg" xmlns:xlink="http://www.w3.org/1999/xlink" width="697" height="402"><path d="M 443.3769,145.33853 L 380.3776,181.63806 L 317.07829,145.33853 L 254.07898,181.63806 M 127.78037,181.63806 L 127.78037,254.53713 L 191.07968,291.13666 M 189.87969,154.9384 L 246.27907,187.63798 M 191.07968,291.13666 L 254.07898,254.53713 L 254.07898,181.63806 M 189.87969,281.53678 L 246.27907,248.8372 M 127.78037,181.63806 L 191.07968,145.33853 L 254.07898,181.63806 M 136.78027,250.63718 L 136.78027,185.53801 M 127.78037,181.63806 L 82.48087,155.5384 M 191.07968,291.13666 L 191.07968,346.33595 M 321.57824,137.53863 L 381.57758,172.03818 M 507.87619,172.03818 L 451.47681,139.6386 M 507.87619,45.73981 L 451.47681,78.13939 M 569.67551,72.43946 L 506.67621,35.83993 L 443.3769,72.43946 L 443.3769,145.33853 M 569.67551,72.43946 L 569.67551,145.33853 L 506.67621,181.63806 L 443.3769,145.33853 M 560.67561,76.33942 L 560.67561,141.43858 M 569.67551,72.43946 L 615.57501,46.0398" style="fill:none;stroke:#000;stroke-width:3" /><path d="M 18.626155,161.84471 L 18.626155,129.6328 L 22.88885,129.6328 L 22.88885,142.86034 L 39.632014,142.86034 L 39.632014,129.6328 L 43.89471,129.6328 L 43.89471,161.84471 L 39.632014,161.84471 L 39.632014,146.66161 L 22.88885,146.66161 L 22.88885,161.84471 L 18.626155,161.84471 z" id="H" fill="#000" /><path d="M 49.717463,146.15623 C 49.717461,140.80958 51.153007,136.62379 54.024104,133.59886 C 56.895189,130.57399 60.601239,129.06154 65.142268,129.06151 C 68.11588,129.06154 70.796542,129.77199 73.18426,131.19286 C 75.571928,132.61378 77.391994,134.59498 78.644465,137.13646 C 79.896874,139.67799 80.523095,142.56006 80.523128,145.7827 C 80.523095,149.04931 79.863916,151.97167 78.545588,154.54979 C 77.227199,157.12792 75.359526,159.07982 72.942561,160.4055 C 70.525546,161.73119 67.918127,162.39403 65.120296,162.39403 C 62.088054,162.39403 59.378096,161.66161 56.990413,160.19676 C 54.60271,158.73192 52.79363,156.73241 51.563167,154.19823 C 50.332695,151.66406 49.717461,148.9834 49.717463,146.15623 L 49.717463,146.15623 z M 54.111995,146.22215 C 54.111988,150.104 55.155688,153.16186 57.243098,155.39574 C 59.330489,157.62963 61.948894,158.74657 65.098323,158.74657 C 68.30631,158.74657 70.946688,157.61864 73.019465,155.36278 C 75.092192,153.10693 76.128568,149.90625 76.128596,145.76073 C 76.128568,143.13868 75.685453,140.84986 74.799251,138.89427 C 73.912994,136.93873 72.616608,135.42262 70.91009,134.34593 C 69.203526,133.2693 67.288245,132.73097 65.164241,132.73094 C 62.146648,132.73097 59.550215,133.76735 57.374934,135.84007 C 55.199634,137.91285 54.111988,141.37354 54.111995,146.22215 L 54.111995,146.22215 z" id="O" fill="#000" /><use transform="translate(193.61255,220.64378)" xlink:href="#H" /><use transform="translate(126.11255,220.65477)" xlink:href="#O" /><use transform="translate(634.47913,-110.12127)" xlink:href="#H" /><use transform="translate(566.97913,-110.11028)" xlink:href="#O" /></svg>
